G04 #@! TF.GenerationSoftware,KiCad,Pcbnew,(5.1.5)-3*
G04 #@! TF.CreationDate,2020-10-20T09:52:33-06:00*
G04 #@! TF.ProjectId,ComputationalPrototype,436f6d70-7574-4617-9469-6f6e616c5072,rev?*
G04 #@! TF.SameCoordinates,Original*
G04 #@! TF.FileFunction,Soldermask,Bot*
G04 #@! TF.FilePolarity,Negative*
%FSLAX46Y46*%
G04 Gerber Fmt 4.6, Leading zero omitted, Abs format (unit mm)*
G04 Created by KiCad (PCBNEW (5.1.5)-3) date 2020-10-20 09:52:33*
%MOMM*%
%LPD*%
G04 APERTURE LIST*
%ADD10C,0.100000*%
G04 APERTURE END LIST*
D10*
G36*
X139056564Y-122009389D02*
G01*
X139247833Y-122088615D01*
X139247835Y-122088616D01*
X139419973Y-122203635D01*
X139566365Y-122350027D01*
X139647207Y-122471015D01*
X139681385Y-122522167D01*
X139760611Y-122713436D01*
X139801000Y-122916484D01*
X139801000Y-123123516D01*
X139760611Y-123326564D01*
X139681385Y-123517833D01*
X139681384Y-123517835D01*
X139566365Y-123689973D01*
X139419973Y-123836365D01*
X139247835Y-123951384D01*
X139247834Y-123951385D01*
X139247833Y-123951385D01*
X139056564Y-124030611D01*
X138853516Y-124071000D01*
X138646484Y-124071000D01*
X138443436Y-124030611D01*
X138252167Y-123951385D01*
X138252166Y-123951385D01*
X138252165Y-123951384D01*
X138080027Y-123836365D01*
X137933635Y-123689973D01*
X137818616Y-123517835D01*
X137818615Y-123517833D01*
X137739389Y-123326564D01*
X137699000Y-123123516D01*
X137699000Y-122916484D01*
X137739389Y-122713436D01*
X137818615Y-122522167D01*
X137852794Y-122471015D01*
X137933635Y-122350027D01*
X138080027Y-122203635D01*
X138252165Y-122088616D01*
X138252167Y-122088615D01*
X138443436Y-122009389D01*
X138646484Y-121969000D01*
X138853516Y-121969000D01*
X139056564Y-122009389D01*
G37*
G36*
X149306564Y-122009389D02*
G01*
X149497833Y-122088615D01*
X149497835Y-122088616D01*
X149669973Y-122203635D01*
X149816365Y-122350027D01*
X149897207Y-122471015D01*
X149931385Y-122522167D01*
X150010611Y-122713436D01*
X150051000Y-122916484D01*
X150051000Y-123123516D01*
X150010611Y-123326564D01*
X149931385Y-123517833D01*
X149931384Y-123517835D01*
X149816365Y-123689973D01*
X149669973Y-123836365D01*
X149497835Y-123951384D01*
X149497834Y-123951385D01*
X149497833Y-123951385D01*
X149306564Y-124030611D01*
X149103516Y-124071000D01*
X148896484Y-124071000D01*
X148693436Y-124030611D01*
X148502167Y-123951385D01*
X148502166Y-123951385D01*
X148502165Y-123951384D01*
X148330027Y-123836365D01*
X148183635Y-123689973D01*
X148068616Y-123517835D01*
X148068615Y-123517833D01*
X147989389Y-123326564D01*
X147949000Y-123123516D01*
X147949000Y-122916484D01*
X147989389Y-122713436D01*
X148068615Y-122522167D01*
X148102794Y-122471015D01*
X148183635Y-122350027D01*
X148330027Y-122203635D01*
X148502165Y-122088616D01*
X148502167Y-122088615D01*
X148693436Y-122009389D01*
X148896484Y-121969000D01*
X149103516Y-121969000D01*
X149306564Y-122009389D01*
G37*
G36*
X155806564Y-122009389D02*
G01*
X155997833Y-122088615D01*
X155997835Y-122088616D01*
X156169973Y-122203635D01*
X156316365Y-122350027D01*
X156397207Y-122471015D01*
X156431385Y-122522167D01*
X156510611Y-122713436D01*
X156551000Y-122916484D01*
X156551000Y-123123516D01*
X156510611Y-123326564D01*
X156431385Y-123517833D01*
X156431384Y-123517835D01*
X156316365Y-123689973D01*
X156169973Y-123836365D01*
X155997835Y-123951384D01*
X155997834Y-123951385D01*
X155997833Y-123951385D01*
X155806564Y-124030611D01*
X155603516Y-124071000D01*
X155396484Y-124071000D01*
X155193436Y-124030611D01*
X155002167Y-123951385D01*
X155002166Y-123951385D01*
X155002165Y-123951384D01*
X154830027Y-123836365D01*
X154683635Y-123689973D01*
X154568616Y-123517835D01*
X154568615Y-123517833D01*
X154489389Y-123326564D01*
X154449000Y-123123516D01*
X154449000Y-122916484D01*
X154489389Y-122713436D01*
X154568615Y-122522167D01*
X154602794Y-122471015D01*
X154683635Y-122350027D01*
X154830027Y-122203635D01*
X155002165Y-122088616D01*
X155002167Y-122088615D01*
X155193436Y-122009389D01*
X155396484Y-121969000D01*
X155603516Y-121969000D01*
X155806564Y-122009389D01*
G37*
G36*
X145556564Y-122009389D02*
G01*
X145747833Y-122088615D01*
X145747835Y-122088616D01*
X145919973Y-122203635D01*
X146066365Y-122350027D01*
X146147207Y-122471015D01*
X146181385Y-122522167D01*
X146260611Y-122713436D01*
X146301000Y-122916484D01*
X146301000Y-123123516D01*
X146260611Y-123326564D01*
X146181385Y-123517833D01*
X146181384Y-123517835D01*
X146066365Y-123689973D01*
X145919973Y-123836365D01*
X145747835Y-123951384D01*
X145747834Y-123951385D01*
X145747833Y-123951385D01*
X145556564Y-124030611D01*
X145353516Y-124071000D01*
X145146484Y-124071000D01*
X144943436Y-124030611D01*
X144752167Y-123951385D01*
X144752166Y-123951385D01*
X144752165Y-123951384D01*
X144580027Y-123836365D01*
X144433635Y-123689973D01*
X144318616Y-123517835D01*
X144318615Y-123517833D01*
X144239389Y-123326564D01*
X144199000Y-123123516D01*
X144199000Y-122916484D01*
X144239389Y-122713436D01*
X144318615Y-122522167D01*
X144352794Y-122471015D01*
X144433635Y-122350027D01*
X144580027Y-122203635D01*
X144752165Y-122088616D01*
X144752167Y-122088615D01*
X144943436Y-122009389D01*
X145146484Y-121969000D01*
X145353516Y-121969000D01*
X145556564Y-122009389D01*
G37*
G36*
X132618228Y-120991703D02*
G01*
X132773100Y-121055853D01*
X132912481Y-121148985D01*
X133031015Y-121267519D01*
X133124147Y-121406900D01*
X133188297Y-121561772D01*
X133221000Y-121726184D01*
X133221000Y-121893816D01*
X133188297Y-122058228D01*
X133124147Y-122213100D01*
X133031015Y-122352481D01*
X132912481Y-122471015D01*
X132773100Y-122564147D01*
X132618228Y-122628297D01*
X132453816Y-122661000D01*
X132286184Y-122661000D01*
X132121772Y-122628297D01*
X131966900Y-122564147D01*
X131827519Y-122471015D01*
X131708985Y-122352481D01*
X131615853Y-122213100D01*
X131551703Y-122058228D01*
X131519000Y-121893816D01*
X131519000Y-121726184D01*
X131551703Y-121561772D01*
X131615853Y-121406900D01*
X131708985Y-121267519D01*
X131827519Y-121148985D01*
X131966900Y-121055853D01*
X132121772Y-120991703D01*
X132286184Y-120959000D01*
X132453816Y-120959000D01*
X132618228Y-120991703D01*
G37*
G36*
X124998228Y-120991703D02*
G01*
X125153100Y-121055853D01*
X125292481Y-121148985D01*
X125411015Y-121267519D01*
X125504147Y-121406900D01*
X125568297Y-121561772D01*
X125601000Y-121726184D01*
X125601000Y-121893816D01*
X125568297Y-122058228D01*
X125504147Y-122213100D01*
X125411015Y-122352481D01*
X125292481Y-122471015D01*
X125153100Y-122564147D01*
X124998228Y-122628297D01*
X124833816Y-122661000D01*
X124666184Y-122661000D01*
X124501772Y-122628297D01*
X124346900Y-122564147D01*
X124207519Y-122471015D01*
X124088985Y-122352481D01*
X123995853Y-122213100D01*
X123931703Y-122058228D01*
X123899000Y-121893816D01*
X123899000Y-121726184D01*
X123931703Y-121561772D01*
X123995853Y-121406900D01*
X124088985Y-121267519D01*
X124207519Y-121148985D01*
X124346900Y-121055853D01*
X124501772Y-120991703D01*
X124666184Y-120959000D01*
X124833816Y-120959000D01*
X124998228Y-120991703D01*
G37*
G36*
X125601000Y-120121000D02*
G01*
X123899000Y-120121000D01*
X123899000Y-118419000D01*
X125601000Y-118419000D01*
X125601000Y-120121000D01*
G37*
G36*
X132618228Y-118451703D02*
G01*
X132773100Y-118515853D01*
X132912481Y-118608985D01*
X133031015Y-118727519D01*
X133124147Y-118866900D01*
X133188297Y-119021772D01*
X133221000Y-119186184D01*
X133221000Y-119353816D01*
X133188297Y-119518228D01*
X133124147Y-119673100D01*
X133031015Y-119812481D01*
X132912481Y-119931015D01*
X132773100Y-120024147D01*
X132618228Y-120088297D01*
X132453816Y-120121000D01*
X132286184Y-120121000D01*
X132121772Y-120088297D01*
X131966900Y-120024147D01*
X131827519Y-119931015D01*
X131708985Y-119812481D01*
X131615853Y-119673100D01*
X131551703Y-119518228D01*
X131519000Y-119353816D01*
X131519000Y-119186184D01*
X131551703Y-119021772D01*
X131615853Y-118866900D01*
X131708985Y-118727519D01*
X131827519Y-118608985D01*
X131966900Y-118515853D01*
X132121772Y-118451703D01*
X132286184Y-118419000D01*
X132453816Y-118419000D01*
X132618228Y-118451703D01*
G37*
G36*
X139056564Y-117509389D02*
G01*
X139247833Y-117588615D01*
X139247835Y-117588616D01*
X139419973Y-117703635D01*
X139566365Y-117850027D01*
X139681385Y-118022167D01*
X139760611Y-118213436D01*
X139801000Y-118416484D01*
X139801000Y-118623516D01*
X139760611Y-118826564D01*
X139743903Y-118866900D01*
X139681384Y-119017835D01*
X139566365Y-119189973D01*
X139419973Y-119336365D01*
X139247835Y-119451384D01*
X139247834Y-119451385D01*
X139247833Y-119451385D01*
X139056564Y-119530611D01*
X138853516Y-119571000D01*
X138646484Y-119571000D01*
X138443436Y-119530611D01*
X138252167Y-119451385D01*
X138252166Y-119451385D01*
X138252165Y-119451384D01*
X138080027Y-119336365D01*
X137933635Y-119189973D01*
X137818616Y-119017835D01*
X137756097Y-118866900D01*
X137739389Y-118826564D01*
X137699000Y-118623516D01*
X137699000Y-118416484D01*
X137739389Y-118213436D01*
X137818615Y-118022167D01*
X137933635Y-117850027D01*
X138080027Y-117703635D01*
X138252165Y-117588616D01*
X138252167Y-117588615D01*
X138443436Y-117509389D01*
X138646484Y-117469000D01*
X138853516Y-117469000D01*
X139056564Y-117509389D01*
G37*
G36*
X145556564Y-117509389D02*
G01*
X145747833Y-117588615D01*
X145747835Y-117588616D01*
X145919973Y-117703635D01*
X146066365Y-117850027D01*
X146181385Y-118022167D01*
X146260611Y-118213436D01*
X146301000Y-118416484D01*
X146301000Y-118623516D01*
X146260611Y-118826564D01*
X146243903Y-118866900D01*
X146181384Y-119017835D01*
X146066365Y-119189973D01*
X145919973Y-119336365D01*
X145747835Y-119451384D01*
X145747834Y-119451385D01*
X145747833Y-119451385D01*
X145556564Y-119530611D01*
X145353516Y-119571000D01*
X145146484Y-119571000D01*
X144943436Y-119530611D01*
X144752167Y-119451385D01*
X144752166Y-119451385D01*
X144752165Y-119451384D01*
X144580027Y-119336365D01*
X144433635Y-119189973D01*
X144318616Y-119017835D01*
X144256097Y-118866900D01*
X144239389Y-118826564D01*
X144199000Y-118623516D01*
X144199000Y-118416484D01*
X144239389Y-118213436D01*
X144318615Y-118022167D01*
X144433635Y-117850027D01*
X144580027Y-117703635D01*
X144752165Y-117588616D01*
X144752167Y-117588615D01*
X144943436Y-117509389D01*
X145146484Y-117469000D01*
X145353516Y-117469000D01*
X145556564Y-117509389D01*
G37*
G36*
X149306564Y-117509389D02*
G01*
X149497833Y-117588615D01*
X149497835Y-117588616D01*
X149669973Y-117703635D01*
X149816365Y-117850027D01*
X149931385Y-118022167D01*
X150010611Y-118213436D01*
X150051000Y-118416484D01*
X150051000Y-118623516D01*
X150010611Y-118826564D01*
X149993903Y-118866900D01*
X149931384Y-119017835D01*
X149816365Y-119189973D01*
X149669973Y-119336365D01*
X149497835Y-119451384D01*
X149497834Y-119451385D01*
X149497833Y-119451385D01*
X149306564Y-119530611D01*
X149103516Y-119571000D01*
X148896484Y-119571000D01*
X148693436Y-119530611D01*
X148502167Y-119451385D01*
X148502166Y-119451385D01*
X148502165Y-119451384D01*
X148330027Y-119336365D01*
X148183635Y-119189973D01*
X148068616Y-119017835D01*
X148006097Y-118866900D01*
X147989389Y-118826564D01*
X147949000Y-118623516D01*
X147949000Y-118416484D01*
X147989389Y-118213436D01*
X148068615Y-118022167D01*
X148183635Y-117850027D01*
X148330027Y-117703635D01*
X148502165Y-117588616D01*
X148502167Y-117588615D01*
X148693436Y-117509389D01*
X148896484Y-117469000D01*
X149103516Y-117469000D01*
X149306564Y-117509389D01*
G37*
G36*
X155806564Y-117509389D02*
G01*
X155997833Y-117588615D01*
X155997835Y-117588616D01*
X156169973Y-117703635D01*
X156316365Y-117850027D01*
X156431385Y-118022167D01*
X156510611Y-118213436D01*
X156551000Y-118416484D01*
X156551000Y-118623516D01*
X156510611Y-118826564D01*
X156493903Y-118866900D01*
X156431384Y-119017835D01*
X156316365Y-119189973D01*
X156169973Y-119336365D01*
X155997835Y-119451384D01*
X155997834Y-119451385D01*
X155997833Y-119451385D01*
X155806564Y-119530611D01*
X155603516Y-119571000D01*
X155396484Y-119571000D01*
X155193436Y-119530611D01*
X155002167Y-119451385D01*
X155002166Y-119451385D01*
X155002165Y-119451384D01*
X154830027Y-119336365D01*
X154683635Y-119189973D01*
X154568616Y-119017835D01*
X154506097Y-118866900D01*
X154489389Y-118826564D01*
X154449000Y-118623516D01*
X154449000Y-118416484D01*
X154489389Y-118213436D01*
X154568615Y-118022167D01*
X154683635Y-117850027D01*
X154830027Y-117703635D01*
X155002165Y-117588616D01*
X155002167Y-117588615D01*
X155193436Y-117509389D01*
X155396484Y-117469000D01*
X155603516Y-117469000D01*
X155806564Y-117509389D01*
G37*
G36*
X165113512Y-115633927D02*
G01*
X165262812Y-115663624D01*
X165426784Y-115731544D01*
X165574354Y-115830147D01*
X165699853Y-115955646D01*
X165798456Y-116103216D01*
X165866376Y-116267188D01*
X165901000Y-116441259D01*
X165901000Y-116618741D01*
X165866376Y-116792812D01*
X165798456Y-116956784D01*
X165699853Y-117104354D01*
X165574354Y-117229853D01*
X165426784Y-117328456D01*
X165262812Y-117396376D01*
X165113512Y-117426073D01*
X165088742Y-117431000D01*
X164911258Y-117431000D01*
X164886488Y-117426073D01*
X164737188Y-117396376D01*
X164573216Y-117328456D01*
X164425646Y-117229853D01*
X164300147Y-117104354D01*
X164201544Y-116956784D01*
X164133624Y-116792812D01*
X164099000Y-116618741D01*
X164099000Y-116441259D01*
X164133624Y-116267188D01*
X164201544Y-116103216D01*
X164300147Y-115955646D01*
X164425646Y-115830147D01*
X164573216Y-115731544D01*
X164737188Y-115663624D01*
X164886488Y-115633927D01*
X164911258Y-115629000D01*
X165088742Y-115629000D01*
X165113512Y-115633927D01*
G37*
G36*
X167653512Y-115633927D02*
G01*
X167802812Y-115663624D01*
X167966784Y-115731544D01*
X168114354Y-115830147D01*
X168239853Y-115955646D01*
X168338456Y-116103216D01*
X168406376Y-116267188D01*
X168441000Y-116441259D01*
X168441000Y-116618741D01*
X168406376Y-116792812D01*
X168338456Y-116956784D01*
X168239853Y-117104354D01*
X168114354Y-117229853D01*
X167966784Y-117328456D01*
X167802812Y-117396376D01*
X167653512Y-117426073D01*
X167628742Y-117431000D01*
X167451258Y-117431000D01*
X167426488Y-117426073D01*
X167277188Y-117396376D01*
X167113216Y-117328456D01*
X166965646Y-117229853D01*
X166840147Y-117104354D01*
X166741544Y-116956784D01*
X166673624Y-116792812D01*
X166639000Y-116618741D01*
X166639000Y-116441259D01*
X166673624Y-116267188D01*
X166741544Y-116103216D01*
X166840147Y-115955646D01*
X166965646Y-115830147D01*
X167113216Y-115731544D01*
X167277188Y-115663624D01*
X167426488Y-115633927D01*
X167451258Y-115629000D01*
X167628742Y-115629000D01*
X167653512Y-115633927D01*
G37*
G36*
X165113512Y-113093927D02*
G01*
X165262812Y-113123624D01*
X165426784Y-113191544D01*
X165574354Y-113290147D01*
X165699853Y-113415646D01*
X165798456Y-113563216D01*
X165866376Y-113727188D01*
X165901000Y-113901259D01*
X165901000Y-114078741D01*
X165866376Y-114252812D01*
X165798456Y-114416784D01*
X165699853Y-114564354D01*
X165574354Y-114689853D01*
X165426784Y-114788456D01*
X165262812Y-114856376D01*
X165113512Y-114886073D01*
X165088742Y-114891000D01*
X164911258Y-114891000D01*
X164886488Y-114886073D01*
X164737188Y-114856376D01*
X164573216Y-114788456D01*
X164425646Y-114689853D01*
X164300147Y-114564354D01*
X164201544Y-114416784D01*
X164133624Y-114252812D01*
X164099000Y-114078741D01*
X164099000Y-113901259D01*
X164133624Y-113727188D01*
X164201544Y-113563216D01*
X164300147Y-113415646D01*
X164425646Y-113290147D01*
X164573216Y-113191544D01*
X164737188Y-113123624D01*
X164886488Y-113093927D01*
X164911258Y-113089000D01*
X165088742Y-113089000D01*
X165113512Y-113093927D01*
G37*
G36*
X167653512Y-113093927D02*
G01*
X167802812Y-113123624D01*
X167966784Y-113191544D01*
X168114354Y-113290147D01*
X168239853Y-113415646D01*
X168338456Y-113563216D01*
X168406376Y-113727188D01*
X168441000Y-113901259D01*
X168441000Y-114078741D01*
X168406376Y-114252812D01*
X168338456Y-114416784D01*
X168239853Y-114564354D01*
X168114354Y-114689853D01*
X167966784Y-114788456D01*
X167802812Y-114856376D01*
X167653512Y-114886073D01*
X167628742Y-114891000D01*
X167451258Y-114891000D01*
X167426488Y-114886073D01*
X167277188Y-114856376D01*
X167113216Y-114788456D01*
X166965646Y-114689853D01*
X166840147Y-114564354D01*
X166741544Y-114416784D01*
X166673624Y-114252812D01*
X166639000Y-114078741D01*
X166639000Y-113901259D01*
X166673624Y-113727188D01*
X166741544Y-113563216D01*
X166840147Y-113415646D01*
X166965646Y-113290147D01*
X167113216Y-113191544D01*
X167277188Y-113123624D01*
X167426488Y-113093927D01*
X167451258Y-113089000D01*
X167628742Y-113089000D01*
X167653512Y-113093927D01*
G37*
G36*
X116806000Y-112904500D02*
G01*
X114904000Y-112904500D01*
X114904000Y-111002500D01*
X116806000Y-111002500D01*
X116806000Y-112904500D01*
G37*
G36*
X121556000Y-112904500D02*
G01*
X119654000Y-112904500D01*
X119654000Y-111002500D01*
X121556000Y-111002500D01*
X121556000Y-112904500D01*
G37*
G36*
X167653512Y-110553927D02*
G01*
X167802812Y-110583624D01*
X167966784Y-110651544D01*
X168114354Y-110750147D01*
X168239853Y-110875646D01*
X168338456Y-111023216D01*
X168406376Y-111187188D01*
X168441000Y-111361259D01*
X168441000Y-111538741D01*
X168406376Y-111712812D01*
X168338456Y-111876784D01*
X168239853Y-112024354D01*
X168114354Y-112149853D01*
X167966784Y-112248456D01*
X167802812Y-112316376D01*
X167653512Y-112346073D01*
X167628742Y-112351000D01*
X167451258Y-112351000D01*
X167426488Y-112346073D01*
X167277188Y-112316376D01*
X167113216Y-112248456D01*
X166965646Y-112149853D01*
X166840147Y-112024354D01*
X166741544Y-111876784D01*
X166673624Y-111712812D01*
X166639000Y-111538741D01*
X166639000Y-111361259D01*
X166673624Y-111187188D01*
X166741544Y-111023216D01*
X166840147Y-110875646D01*
X166965646Y-110750147D01*
X167113216Y-110651544D01*
X167277188Y-110583624D01*
X167426488Y-110553927D01*
X167451258Y-110549000D01*
X167628742Y-110549000D01*
X167653512Y-110553927D01*
G37*
G36*
X165113512Y-110553927D02*
G01*
X165262812Y-110583624D01*
X165426784Y-110651544D01*
X165574354Y-110750147D01*
X165699853Y-110875646D01*
X165798456Y-111023216D01*
X165866376Y-111187188D01*
X165901000Y-111361259D01*
X165901000Y-111538741D01*
X165866376Y-111712812D01*
X165798456Y-111876784D01*
X165699853Y-112024354D01*
X165574354Y-112149853D01*
X165426784Y-112248456D01*
X165262812Y-112316376D01*
X165113512Y-112346073D01*
X165088742Y-112351000D01*
X164911258Y-112351000D01*
X164886488Y-112346073D01*
X164737188Y-112316376D01*
X164573216Y-112248456D01*
X164425646Y-112149853D01*
X164300147Y-112024354D01*
X164201544Y-111876784D01*
X164133624Y-111712812D01*
X164099000Y-111538741D01*
X164099000Y-111361259D01*
X164133624Y-111187188D01*
X164201544Y-111023216D01*
X164300147Y-110875646D01*
X164425646Y-110750147D01*
X164573216Y-110651544D01*
X164737188Y-110583624D01*
X164886488Y-110553927D01*
X164911258Y-110549000D01*
X165088742Y-110549000D01*
X165113512Y-110553927D01*
G37*
G36*
X116132395Y-108499046D02*
G01*
X116305466Y-108570734D01*
X116305467Y-108570735D01*
X116461227Y-108674810D01*
X116593690Y-108807273D01*
X116593691Y-108807275D01*
X116697766Y-108963034D01*
X116769454Y-109136105D01*
X116806000Y-109319833D01*
X116806000Y-109507167D01*
X116769454Y-109690895D01*
X116697766Y-109863966D01*
X116697765Y-109863967D01*
X116593690Y-110019727D01*
X116461227Y-110152190D01*
X116382818Y-110204581D01*
X116305466Y-110256266D01*
X116132395Y-110327954D01*
X115948667Y-110364500D01*
X115761333Y-110364500D01*
X115577605Y-110327954D01*
X115404534Y-110256266D01*
X115327182Y-110204581D01*
X115248773Y-110152190D01*
X115116310Y-110019727D01*
X115012235Y-109863967D01*
X115012234Y-109863966D01*
X114940546Y-109690895D01*
X114904000Y-109507167D01*
X114904000Y-109319833D01*
X114940546Y-109136105D01*
X115012234Y-108963034D01*
X115116309Y-108807275D01*
X115116310Y-108807273D01*
X115248773Y-108674810D01*
X115404533Y-108570735D01*
X115404534Y-108570734D01*
X115577605Y-108499046D01*
X115761333Y-108462500D01*
X115948667Y-108462500D01*
X116132395Y-108499046D01*
G37*
G36*
X120882395Y-108499046D02*
G01*
X121055466Y-108570734D01*
X121055467Y-108570735D01*
X121211227Y-108674810D01*
X121343690Y-108807273D01*
X121343691Y-108807275D01*
X121447766Y-108963034D01*
X121519454Y-109136105D01*
X121556000Y-109319833D01*
X121556000Y-109507167D01*
X121519454Y-109690895D01*
X121447766Y-109863966D01*
X121447765Y-109863967D01*
X121343690Y-110019727D01*
X121211227Y-110152190D01*
X121132818Y-110204581D01*
X121055466Y-110256266D01*
X120882395Y-110327954D01*
X120698667Y-110364500D01*
X120511333Y-110364500D01*
X120327605Y-110327954D01*
X120154534Y-110256266D01*
X120077182Y-110204581D01*
X119998773Y-110152190D01*
X119866310Y-110019727D01*
X119762235Y-109863967D01*
X119762234Y-109863966D01*
X119690546Y-109690895D01*
X119654000Y-109507167D01*
X119654000Y-109319833D01*
X119690546Y-109136105D01*
X119762234Y-108963034D01*
X119866309Y-108807275D01*
X119866310Y-108807273D01*
X119998773Y-108674810D01*
X120154533Y-108570735D01*
X120154534Y-108570734D01*
X120327605Y-108499046D01*
X120511333Y-108462500D01*
X120698667Y-108462500D01*
X120882395Y-108499046D01*
G37*
G36*
X165113512Y-108013927D02*
G01*
X165262812Y-108043624D01*
X165426784Y-108111544D01*
X165574354Y-108210147D01*
X165699853Y-108335646D01*
X165798456Y-108483216D01*
X165866376Y-108647188D01*
X165896073Y-108796488D01*
X165898219Y-108807275D01*
X165901000Y-108821259D01*
X165901000Y-108998741D01*
X165866376Y-109172812D01*
X165798456Y-109336784D01*
X165699853Y-109484354D01*
X165574354Y-109609853D01*
X165426784Y-109708456D01*
X165262812Y-109776376D01*
X165113512Y-109806073D01*
X165088742Y-109811000D01*
X164911258Y-109811000D01*
X164886488Y-109806073D01*
X164737188Y-109776376D01*
X164573216Y-109708456D01*
X164425646Y-109609853D01*
X164300147Y-109484354D01*
X164201544Y-109336784D01*
X164133624Y-109172812D01*
X164099000Y-108998741D01*
X164099000Y-108821259D01*
X164101782Y-108807275D01*
X164103927Y-108796488D01*
X164133624Y-108647188D01*
X164201544Y-108483216D01*
X164300147Y-108335646D01*
X164425646Y-108210147D01*
X164573216Y-108111544D01*
X164737188Y-108043624D01*
X164886488Y-108013927D01*
X164911258Y-108009000D01*
X165088742Y-108009000D01*
X165113512Y-108013927D01*
G37*
G36*
X167653512Y-108013927D02*
G01*
X167802812Y-108043624D01*
X167966784Y-108111544D01*
X168114354Y-108210147D01*
X168239853Y-108335646D01*
X168338456Y-108483216D01*
X168406376Y-108647188D01*
X168436073Y-108796488D01*
X168438219Y-108807275D01*
X168441000Y-108821259D01*
X168441000Y-108998741D01*
X168406376Y-109172812D01*
X168338456Y-109336784D01*
X168239853Y-109484354D01*
X168114354Y-109609853D01*
X167966784Y-109708456D01*
X167802812Y-109776376D01*
X167653512Y-109806073D01*
X167628742Y-109811000D01*
X167451258Y-109811000D01*
X167426488Y-109806073D01*
X167277188Y-109776376D01*
X167113216Y-109708456D01*
X166965646Y-109609853D01*
X166840147Y-109484354D01*
X166741544Y-109336784D01*
X166673624Y-109172812D01*
X166639000Y-108998741D01*
X166639000Y-108821259D01*
X166641782Y-108807275D01*
X166643927Y-108796488D01*
X166673624Y-108647188D01*
X166741544Y-108483216D01*
X166840147Y-108335646D01*
X166965646Y-108210147D01*
X167113216Y-108111544D01*
X167277188Y-108043624D01*
X167426488Y-108013927D01*
X167451258Y-108009000D01*
X167628742Y-108009000D01*
X167653512Y-108013927D01*
G37*
G36*
X165113512Y-105473927D02*
G01*
X165262812Y-105503624D01*
X165426784Y-105571544D01*
X165574354Y-105670147D01*
X165699853Y-105795646D01*
X165798456Y-105943216D01*
X165866376Y-106107188D01*
X165901000Y-106281259D01*
X165901000Y-106458741D01*
X165866376Y-106632812D01*
X165798456Y-106796784D01*
X165699853Y-106944354D01*
X165574354Y-107069853D01*
X165426784Y-107168456D01*
X165262812Y-107236376D01*
X165113512Y-107266073D01*
X165088742Y-107271000D01*
X164911258Y-107271000D01*
X164886488Y-107266073D01*
X164737188Y-107236376D01*
X164573216Y-107168456D01*
X164425646Y-107069853D01*
X164300147Y-106944354D01*
X164201544Y-106796784D01*
X164133624Y-106632812D01*
X164099000Y-106458741D01*
X164099000Y-106281259D01*
X164133624Y-106107188D01*
X164201544Y-105943216D01*
X164300147Y-105795646D01*
X164425646Y-105670147D01*
X164573216Y-105571544D01*
X164737188Y-105503624D01*
X164886488Y-105473927D01*
X164911258Y-105469000D01*
X165088742Y-105469000D01*
X165113512Y-105473927D01*
G37*
G36*
X167653512Y-105473927D02*
G01*
X167802812Y-105503624D01*
X167966784Y-105571544D01*
X168114354Y-105670147D01*
X168239853Y-105795646D01*
X168338456Y-105943216D01*
X168406376Y-106107188D01*
X168441000Y-106281259D01*
X168441000Y-106458741D01*
X168406376Y-106632812D01*
X168338456Y-106796784D01*
X168239853Y-106944354D01*
X168114354Y-107069853D01*
X167966784Y-107168456D01*
X167802812Y-107236376D01*
X167653512Y-107266073D01*
X167628742Y-107271000D01*
X167451258Y-107271000D01*
X167426488Y-107266073D01*
X167277188Y-107236376D01*
X167113216Y-107168456D01*
X166965646Y-107069853D01*
X166840147Y-106944354D01*
X166741544Y-106796784D01*
X166673624Y-106632812D01*
X166639000Y-106458741D01*
X166639000Y-106281259D01*
X166673624Y-106107188D01*
X166741544Y-105943216D01*
X166840147Y-105795646D01*
X166965646Y-105670147D01*
X167113216Y-105571544D01*
X167277188Y-105503624D01*
X167426488Y-105473927D01*
X167451258Y-105469000D01*
X167628742Y-105469000D01*
X167653512Y-105473927D01*
G37*
G36*
X116426355Y-105053640D02*
G01*
X116490118Y-105059920D01*
X116580904Y-105087460D01*
X116612836Y-105097146D01*
X116725925Y-105157594D01*
X116825054Y-105238946D01*
X116906406Y-105338075D01*
X116966854Y-105451164D01*
X116966855Y-105451168D01*
X117004080Y-105573882D01*
X117016649Y-105701500D01*
X117004080Y-105829118D01*
X116976540Y-105919904D01*
X116966854Y-105951836D01*
X116906406Y-106064925D01*
X116825054Y-106164054D01*
X116725925Y-106245406D01*
X116612836Y-106305854D01*
X116580904Y-106315540D01*
X116490118Y-106343080D01*
X116426355Y-106349360D01*
X116394474Y-106352500D01*
X115630526Y-106352500D01*
X115598645Y-106349360D01*
X115534882Y-106343080D01*
X115444096Y-106315540D01*
X115412164Y-106305854D01*
X115299075Y-106245406D01*
X115199946Y-106164054D01*
X115118594Y-106064925D01*
X115058146Y-105951836D01*
X115048460Y-105919904D01*
X115020920Y-105829118D01*
X115008351Y-105701500D01*
X115020920Y-105573882D01*
X115058145Y-105451168D01*
X115058146Y-105451164D01*
X115118594Y-105338075D01*
X115199946Y-105238946D01*
X115299075Y-105157594D01*
X115412164Y-105097146D01*
X115444096Y-105087460D01*
X115534882Y-105059920D01*
X115598645Y-105053640D01*
X115630526Y-105050500D01*
X116394474Y-105050500D01*
X116426355Y-105053640D01*
G37*
G36*
X118938848Y-103955320D02*
G01*
X118938850Y-103955321D01*
X118938851Y-103955321D01*
X119080074Y-104013817D01*
X119080077Y-104013819D01*
X119207169Y-104098739D01*
X119315261Y-104206831D01*
X119348637Y-104256782D01*
X119400183Y-104333926D01*
X119458679Y-104475149D01*
X119458680Y-104475152D01*
X119488500Y-104625069D01*
X119488500Y-104777929D01*
X119458679Y-104927851D01*
X119400183Y-105069074D01*
X119400181Y-105069077D01*
X119315261Y-105196169D01*
X119207169Y-105304261D01*
X119080077Y-105389181D01*
X119080074Y-105389183D01*
X118938851Y-105447679D01*
X118938850Y-105447679D01*
X118938848Y-105447680D01*
X118788931Y-105477500D01*
X118636069Y-105477500D01*
X118486152Y-105447680D01*
X118486150Y-105447679D01*
X118486149Y-105447679D01*
X118344926Y-105389183D01*
X118344923Y-105389181D01*
X118217831Y-105304261D01*
X118109739Y-105196169D01*
X118024819Y-105069077D01*
X118024817Y-105069074D01*
X117966321Y-104927851D01*
X117936500Y-104777929D01*
X117936500Y-104625069D01*
X117966320Y-104475152D01*
X117966321Y-104475149D01*
X118024817Y-104333926D01*
X118076363Y-104256782D01*
X118109739Y-104206831D01*
X118217831Y-104098739D01*
X118344923Y-104013819D01*
X118344926Y-104013817D01*
X118486149Y-103955321D01*
X118486150Y-103955321D01*
X118486152Y-103955320D01*
X118636069Y-103925500D01*
X118788931Y-103925500D01*
X118938848Y-103955320D01*
G37*
G36*
X165113512Y-102933927D02*
G01*
X165262812Y-102963624D01*
X165426784Y-103031544D01*
X165574354Y-103130147D01*
X165699853Y-103255646D01*
X165798456Y-103403216D01*
X165866376Y-103567188D01*
X165901000Y-103741259D01*
X165901000Y-103918741D01*
X165866376Y-104092812D01*
X165798456Y-104256784D01*
X165699853Y-104404354D01*
X165574354Y-104529853D01*
X165426784Y-104628456D01*
X165262812Y-104696376D01*
X165113512Y-104726073D01*
X165088742Y-104731000D01*
X164911258Y-104731000D01*
X164886488Y-104726073D01*
X164737188Y-104696376D01*
X164573216Y-104628456D01*
X164425646Y-104529853D01*
X164300147Y-104404354D01*
X164201544Y-104256784D01*
X164133624Y-104092812D01*
X164099000Y-103918741D01*
X164099000Y-103741259D01*
X164133624Y-103567188D01*
X164201544Y-103403216D01*
X164300147Y-103255646D01*
X164425646Y-103130147D01*
X164573216Y-103031544D01*
X164737188Y-102963624D01*
X164886488Y-102933927D01*
X164911258Y-102929000D01*
X165088742Y-102929000D01*
X165113512Y-102933927D01*
G37*
G36*
X167653512Y-102933927D02*
G01*
X167802812Y-102963624D01*
X167966784Y-103031544D01*
X168114354Y-103130147D01*
X168239853Y-103255646D01*
X168338456Y-103403216D01*
X168406376Y-103567188D01*
X168441000Y-103741259D01*
X168441000Y-103918741D01*
X168406376Y-104092812D01*
X168338456Y-104256784D01*
X168239853Y-104404354D01*
X168114354Y-104529853D01*
X167966784Y-104628456D01*
X167802812Y-104696376D01*
X167653512Y-104726073D01*
X167628742Y-104731000D01*
X167451258Y-104731000D01*
X167426488Y-104726073D01*
X167277188Y-104696376D01*
X167113216Y-104628456D01*
X166965646Y-104529853D01*
X166840147Y-104404354D01*
X166741544Y-104256784D01*
X166673624Y-104092812D01*
X166639000Y-103918741D01*
X166639000Y-103741259D01*
X166673624Y-103567188D01*
X166741544Y-103403216D01*
X166840147Y-103255646D01*
X166965646Y-103130147D01*
X167113216Y-103031544D01*
X167277188Y-102963624D01*
X167426488Y-102933927D01*
X167451258Y-102929000D01*
X167628742Y-102929000D01*
X167653512Y-102933927D01*
G37*
G36*
X167653512Y-100393927D02*
G01*
X167802812Y-100423624D01*
X167966784Y-100491544D01*
X168114354Y-100590147D01*
X168239853Y-100715646D01*
X168338456Y-100863216D01*
X168406376Y-101027188D01*
X168441000Y-101201259D01*
X168441000Y-101378741D01*
X168406376Y-101552812D01*
X168338456Y-101716784D01*
X168239853Y-101864354D01*
X168114354Y-101989853D01*
X167966784Y-102088456D01*
X167802812Y-102156376D01*
X167653512Y-102186073D01*
X167628742Y-102191000D01*
X167451258Y-102191000D01*
X167426488Y-102186073D01*
X167277188Y-102156376D01*
X167113216Y-102088456D01*
X166965646Y-101989853D01*
X166840147Y-101864354D01*
X166741544Y-101716784D01*
X166673624Y-101552812D01*
X166639000Y-101378741D01*
X166639000Y-101201259D01*
X166673624Y-101027188D01*
X166741544Y-100863216D01*
X166840147Y-100715646D01*
X166965646Y-100590147D01*
X167113216Y-100491544D01*
X167277188Y-100423624D01*
X167426488Y-100393927D01*
X167451258Y-100389000D01*
X167628742Y-100389000D01*
X167653512Y-100393927D01*
G37*
G36*
X165113512Y-100393927D02*
G01*
X165262812Y-100423624D01*
X165426784Y-100491544D01*
X165574354Y-100590147D01*
X165699853Y-100715646D01*
X165798456Y-100863216D01*
X165866376Y-101027188D01*
X165901000Y-101201259D01*
X165901000Y-101378741D01*
X165866376Y-101552812D01*
X165798456Y-101716784D01*
X165699853Y-101864354D01*
X165574354Y-101989853D01*
X165426784Y-102088456D01*
X165262812Y-102156376D01*
X165113512Y-102186073D01*
X165088742Y-102191000D01*
X164911258Y-102191000D01*
X164886488Y-102186073D01*
X164737188Y-102156376D01*
X164573216Y-102088456D01*
X164425646Y-101989853D01*
X164300147Y-101864354D01*
X164201544Y-101716784D01*
X164133624Y-101552812D01*
X164099000Y-101378741D01*
X164099000Y-101201259D01*
X164133624Y-101027188D01*
X164201544Y-100863216D01*
X164300147Y-100715646D01*
X164425646Y-100590147D01*
X164573216Y-100491544D01*
X164737188Y-100423624D01*
X164886488Y-100393927D01*
X164911258Y-100389000D01*
X165088742Y-100389000D01*
X165113512Y-100393927D01*
G37*
G36*
X118938848Y-98955320D02*
G01*
X118938850Y-98955321D01*
X118938851Y-98955321D01*
X119080074Y-99013817D01*
X119080077Y-99013819D01*
X119207169Y-99098739D01*
X119315261Y-99206831D01*
X119393787Y-99324354D01*
X119400183Y-99333926D01*
X119448201Y-99449853D01*
X119458680Y-99475152D01*
X119488500Y-99625069D01*
X119488500Y-99777929D01*
X119458679Y-99927851D01*
X119400183Y-100069074D01*
X119400181Y-100069077D01*
X119315261Y-100196169D01*
X119207169Y-100304261D01*
X119080348Y-100389000D01*
X119080074Y-100389183D01*
X118938851Y-100447679D01*
X118938850Y-100447679D01*
X118938848Y-100447680D01*
X118788931Y-100477500D01*
X118636069Y-100477500D01*
X118486152Y-100447680D01*
X118486150Y-100447679D01*
X118486149Y-100447679D01*
X118344926Y-100389183D01*
X118344652Y-100389000D01*
X118217831Y-100304261D01*
X118109739Y-100196169D01*
X118024819Y-100069077D01*
X118024817Y-100069074D01*
X117966321Y-99927851D01*
X117936500Y-99777929D01*
X117936500Y-99625069D01*
X117966320Y-99475152D01*
X117976799Y-99449853D01*
X118024817Y-99333926D01*
X118031213Y-99324354D01*
X118109739Y-99206831D01*
X118217831Y-99098739D01*
X118344923Y-99013819D01*
X118344926Y-99013817D01*
X118486149Y-98955321D01*
X118486150Y-98955321D01*
X118486152Y-98955320D01*
X118636069Y-98925500D01*
X118788931Y-98925500D01*
X118938848Y-98955320D01*
G37*
G36*
X167653512Y-97853927D02*
G01*
X167802812Y-97883624D01*
X167966784Y-97951544D01*
X168114354Y-98050147D01*
X168239853Y-98175646D01*
X168338456Y-98323216D01*
X168406376Y-98487188D01*
X168441000Y-98661259D01*
X168441000Y-98838741D01*
X168406376Y-99012812D01*
X168338456Y-99176784D01*
X168239853Y-99324354D01*
X168114354Y-99449853D01*
X167966784Y-99548456D01*
X167802812Y-99616376D01*
X167653512Y-99646073D01*
X167628742Y-99651000D01*
X167451258Y-99651000D01*
X167426488Y-99646073D01*
X167277188Y-99616376D01*
X167113216Y-99548456D01*
X166965646Y-99449853D01*
X166840147Y-99324354D01*
X166741544Y-99176784D01*
X166673624Y-99012812D01*
X166639000Y-98838741D01*
X166639000Y-98661259D01*
X166673624Y-98487188D01*
X166741544Y-98323216D01*
X166840147Y-98175646D01*
X166965646Y-98050147D01*
X167113216Y-97951544D01*
X167277188Y-97883624D01*
X167426488Y-97853927D01*
X167451258Y-97849000D01*
X167628742Y-97849000D01*
X167653512Y-97853927D01*
G37*
G36*
X165113512Y-97853927D02*
G01*
X165262812Y-97883624D01*
X165426784Y-97951544D01*
X165574354Y-98050147D01*
X165699853Y-98175646D01*
X165798456Y-98323216D01*
X165866376Y-98487188D01*
X165901000Y-98661259D01*
X165901000Y-98838741D01*
X165866376Y-99012812D01*
X165798456Y-99176784D01*
X165699853Y-99324354D01*
X165574354Y-99449853D01*
X165426784Y-99548456D01*
X165262812Y-99616376D01*
X165113512Y-99646073D01*
X165088742Y-99651000D01*
X164911258Y-99651000D01*
X164886488Y-99646073D01*
X164737188Y-99616376D01*
X164573216Y-99548456D01*
X164425646Y-99449853D01*
X164300147Y-99324354D01*
X164201544Y-99176784D01*
X164133624Y-99012812D01*
X164099000Y-98838741D01*
X164099000Y-98661259D01*
X164133624Y-98487188D01*
X164201544Y-98323216D01*
X164300147Y-98175646D01*
X164425646Y-98050147D01*
X164573216Y-97951544D01*
X164737188Y-97883624D01*
X164886488Y-97853927D01*
X164911258Y-97849000D01*
X165088742Y-97849000D01*
X165113512Y-97853927D01*
G37*
G36*
X116426355Y-98053640D02*
G01*
X116490118Y-98059920D01*
X116580904Y-98087460D01*
X116612836Y-98097146D01*
X116725925Y-98157594D01*
X116825054Y-98238946D01*
X116906406Y-98338075D01*
X116966854Y-98451164D01*
X116966855Y-98451168D01*
X117004080Y-98573882D01*
X117016649Y-98701500D01*
X117004080Y-98829118D01*
X116976540Y-98919904D01*
X116966854Y-98951836D01*
X116906406Y-99064925D01*
X116825054Y-99164054D01*
X116725925Y-99245406D01*
X116612836Y-99305854D01*
X116580904Y-99315540D01*
X116490118Y-99343080D01*
X116426355Y-99349360D01*
X116394474Y-99352500D01*
X115630526Y-99352500D01*
X115598645Y-99349360D01*
X115534882Y-99343080D01*
X115444096Y-99315540D01*
X115412164Y-99305854D01*
X115299075Y-99245406D01*
X115199946Y-99164054D01*
X115118594Y-99064925D01*
X115058146Y-98951836D01*
X115048460Y-98919904D01*
X115020920Y-98829118D01*
X115008351Y-98701500D01*
X115020920Y-98573882D01*
X115058145Y-98451168D01*
X115058146Y-98451164D01*
X115118594Y-98338075D01*
X115199946Y-98238946D01*
X115299075Y-98157594D01*
X115412164Y-98097146D01*
X115444096Y-98087460D01*
X115534882Y-98059920D01*
X115598645Y-98053640D01*
X115630526Y-98050500D01*
X116394474Y-98050500D01*
X116426355Y-98053640D01*
G37*
G36*
X165113512Y-95313927D02*
G01*
X165262812Y-95343624D01*
X165426784Y-95411544D01*
X165574354Y-95510147D01*
X165699853Y-95635646D01*
X165798456Y-95783216D01*
X165866376Y-95947188D01*
X165901000Y-96121259D01*
X165901000Y-96298741D01*
X165866376Y-96472812D01*
X165798456Y-96636784D01*
X165699853Y-96784354D01*
X165574354Y-96909853D01*
X165426784Y-97008456D01*
X165262812Y-97076376D01*
X165113512Y-97106073D01*
X165088742Y-97111000D01*
X164911258Y-97111000D01*
X164886488Y-97106073D01*
X164737188Y-97076376D01*
X164573216Y-97008456D01*
X164425646Y-96909853D01*
X164300147Y-96784354D01*
X164201544Y-96636784D01*
X164133624Y-96472812D01*
X164099000Y-96298741D01*
X164099000Y-96121259D01*
X164133624Y-95947188D01*
X164201544Y-95783216D01*
X164300147Y-95635646D01*
X164425646Y-95510147D01*
X164573216Y-95411544D01*
X164737188Y-95343624D01*
X164886488Y-95313927D01*
X164911258Y-95309000D01*
X165088742Y-95309000D01*
X165113512Y-95313927D01*
G37*
G36*
X167653512Y-95313927D02*
G01*
X167802812Y-95343624D01*
X167966784Y-95411544D01*
X168114354Y-95510147D01*
X168239853Y-95635646D01*
X168338456Y-95783216D01*
X168406376Y-95947188D01*
X168441000Y-96121259D01*
X168441000Y-96298741D01*
X168406376Y-96472812D01*
X168338456Y-96636784D01*
X168239853Y-96784354D01*
X168114354Y-96909853D01*
X167966784Y-97008456D01*
X167802812Y-97076376D01*
X167653512Y-97106073D01*
X167628742Y-97111000D01*
X167451258Y-97111000D01*
X167426488Y-97106073D01*
X167277188Y-97076376D01*
X167113216Y-97008456D01*
X166965646Y-96909853D01*
X166840147Y-96784354D01*
X166741544Y-96636784D01*
X166673624Y-96472812D01*
X166639000Y-96298741D01*
X166639000Y-96121259D01*
X166673624Y-95947188D01*
X166741544Y-95783216D01*
X166840147Y-95635646D01*
X166965646Y-95510147D01*
X167113216Y-95411544D01*
X167277188Y-95343624D01*
X167426488Y-95313927D01*
X167451258Y-95309000D01*
X167628742Y-95309000D01*
X167653512Y-95313927D01*
G37*
G36*
X151903512Y-94203927D02*
G01*
X152052812Y-94233624D01*
X152216784Y-94301544D01*
X152364354Y-94400147D01*
X152489853Y-94525646D01*
X152588456Y-94673216D01*
X152656376Y-94837188D01*
X152691000Y-95011259D01*
X152691000Y-95188741D01*
X152656376Y-95362812D01*
X152588456Y-95526784D01*
X152489853Y-95674354D01*
X152364354Y-95799853D01*
X152216784Y-95898456D01*
X152052812Y-95966376D01*
X151903512Y-95996073D01*
X151878742Y-96001000D01*
X151701258Y-96001000D01*
X151676488Y-95996073D01*
X151527188Y-95966376D01*
X151363216Y-95898456D01*
X151215646Y-95799853D01*
X151090147Y-95674354D01*
X150991544Y-95526784D01*
X150923624Y-95362812D01*
X150889000Y-95188741D01*
X150889000Y-95011259D01*
X150923624Y-94837188D01*
X150991544Y-94673216D01*
X151090147Y-94525646D01*
X151215646Y-94400147D01*
X151363216Y-94301544D01*
X151527188Y-94233624D01*
X151676488Y-94203927D01*
X151701258Y-94199000D01*
X151878742Y-94199000D01*
X151903512Y-94203927D01*
G37*
G36*
X149363512Y-94203927D02*
G01*
X149512812Y-94233624D01*
X149676784Y-94301544D01*
X149824354Y-94400147D01*
X149949853Y-94525646D01*
X150048456Y-94673216D01*
X150116376Y-94837188D01*
X150151000Y-95011259D01*
X150151000Y-95188741D01*
X150116376Y-95362812D01*
X150048456Y-95526784D01*
X149949853Y-95674354D01*
X149824354Y-95799853D01*
X149676784Y-95898456D01*
X149512812Y-95966376D01*
X149363512Y-95996073D01*
X149338742Y-96001000D01*
X149161258Y-96001000D01*
X149136488Y-95996073D01*
X148987188Y-95966376D01*
X148823216Y-95898456D01*
X148675646Y-95799853D01*
X148550147Y-95674354D01*
X148451544Y-95526784D01*
X148383624Y-95362812D01*
X148349000Y-95188741D01*
X148349000Y-95011259D01*
X148383624Y-94837188D01*
X148451544Y-94673216D01*
X148550147Y-94525646D01*
X148675646Y-94400147D01*
X148823216Y-94301544D01*
X148987188Y-94233624D01*
X149136488Y-94203927D01*
X149161258Y-94199000D01*
X149338742Y-94199000D01*
X149363512Y-94203927D01*
G37*
G36*
X165113512Y-92773927D02*
G01*
X165262812Y-92803624D01*
X165426784Y-92871544D01*
X165574354Y-92970147D01*
X165699853Y-93095646D01*
X165798456Y-93243216D01*
X165866376Y-93407188D01*
X165901000Y-93581259D01*
X165901000Y-93758741D01*
X165866376Y-93932812D01*
X165798456Y-94096784D01*
X165699853Y-94244354D01*
X165574354Y-94369853D01*
X165426784Y-94468456D01*
X165262812Y-94536376D01*
X165113512Y-94566073D01*
X165088742Y-94571000D01*
X164911258Y-94571000D01*
X164886488Y-94566073D01*
X164737188Y-94536376D01*
X164573216Y-94468456D01*
X164425646Y-94369853D01*
X164300147Y-94244354D01*
X164201544Y-94096784D01*
X164133624Y-93932812D01*
X164099000Y-93758741D01*
X164099000Y-93581259D01*
X164133624Y-93407188D01*
X164201544Y-93243216D01*
X164300147Y-93095646D01*
X164425646Y-92970147D01*
X164573216Y-92871544D01*
X164737188Y-92803624D01*
X164886488Y-92773927D01*
X164911258Y-92769000D01*
X165088742Y-92769000D01*
X165113512Y-92773927D01*
G37*
G36*
X167653512Y-92773927D02*
G01*
X167802812Y-92803624D01*
X167966784Y-92871544D01*
X168114354Y-92970147D01*
X168239853Y-93095646D01*
X168338456Y-93243216D01*
X168406376Y-93407188D01*
X168441000Y-93581259D01*
X168441000Y-93758741D01*
X168406376Y-93932812D01*
X168338456Y-94096784D01*
X168239853Y-94244354D01*
X168114354Y-94369853D01*
X167966784Y-94468456D01*
X167802812Y-94536376D01*
X167653512Y-94566073D01*
X167628742Y-94571000D01*
X167451258Y-94571000D01*
X167426488Y-94566073D01*
X167277188Y-94536376D01*
X167113216Y-94468456D01*
X166965646Y-94369853D01*
X166840147Y-94244354D01*
X166741544Y-94096784D01*
X166673624Y-93932812D01*
X166639000Y-93758741D01*
X166639000Y-93581259D01*
X166673624Y-93407188D01*
X166741544Y-93243216D01*
X166840147Y-93095646D01*
X166965646Y-92970147D01*
X167113216Y-92871544D01*
X167277188Y-92803624D01*
X167426488Y-92773927D01*
X167451258Y-92769000D01*
X167628742Y-92769000D01*
X167653512Y-92773927D01*
G37*
G36*
X151903512Y-91663927D02*
G01*
X152052812Y-91693624D01*
X152216784Y-91761544D01*
X152364354Y-91860147D01*
X152489853Y-91985646D01*
X152588456Y-92133216D01*
X152656376Y-92297188D01*
X152691000Y-92471259D01*
X152691000Y-92648741D01*
X152656376Y-92822812D01*
X152588456Y-92986784D01*
X152489853Y-93134354D01*
X152364354Y-93259853D01*
X152216784Y-93358456D01*
X152052812Y-93426376D01*
X151903512Y-93456073D01*
X151878742Y-93461000D01*
X151701258Y-93461000D01*
X151676488Y-93456073D01*
X151527188Y-93426376D01*
X151363216Y-93358456D01*
X151215646Y-93259853D01*
X151090147Y-93134354D01*
X150991544Y-92986784D01*
X150923624Y-92822812D01*
X150889000Y-92648741D01*
X150889000Y-92471259D01*
X150923624Y-92297188D01*
X150991544Y-92133216D01*
X151090147Y-91985646D01*
X151215646Y-91860147D01*
X151363216Y-91761544D01*
X151527188Y-91693624D01*
X151676488Y-91663927D01*
X151701258Y-91659000D01*
X151878742Y-91659000D01*
X151903512Y-91663927D01*
G37*
G36*
X149363512Y-91663927D02*
G01*
X149512812Y-91693624D01*
X149676784Y-91761544D01*
X149824354Y-91860147D01*
X149949853Y-91985646D01*
X150048456Y-92133216D01*
X150116376Y-92297188D01*
X150151000Y-92471259D01*
X150151000Y-92648741D01*
X150116376Y-92822812D01*
X150048456Y-92986784D01*
X149949853Y-93134354D01*
X149824354Y-93259853D01*
X149676784Y-93358456D01*
X149512812Y-93426376D01*
X149363512Y-93456073D01*
X149338742Y-93461000D01*
X149161258Y-93461000D01*
X149136488Y-93456073D01*
X148987188Y-93426376D01*
X148823216Y-93358456D01*
X148675646Y-93259853D01*
X148550147Y-93134354D01*
X148451544Y-92986784D01*
X148383624Y-92822812D01*
X148349000Y-92648741D01*
X148349000Y-92471259D01*
X148383624Y-92297188D01*
X148451544Y-92133216D01*
X148550147Y-91985646D01*
X148675646Y-91860147D01*
X148823216Y-91761544D01*
X148987188Y-91693624D01*
X149136488Y-91663927D01*
X149161258Y-91659000D01*
X149338742Y-91659000D01*
X149363512Y-91663927D01*
G37*
G36*
X165113512Y-90233927D02*
G01*
X165262812Y-90263624D01*
X165426784Y-90331544D01*
X165574354Y-90430147D01*
X165699853Y-90555646D01*
X165798456Y-90703216D01*
X165866376Y-90867188D01*
X165901000Y-91041259D01*
X165901000Y-91218741D01*
X165866376Y-91392812D01*
X165798456Y-91556784D01*
X165699853Y-91704354D01*
X165574354Y-91829853D01*
X165426784Y-91928456D01*
X165262812Y-91996376D01*
X165113512Y-92026073D01*
X165088742Y-92031000D01*
X164911258Y-92031000D01*
X164886488Y-92026073D01*
X164737188Y-91996376D01*
X164573216Y-91928456D01*
X164425646Y-91829853D01*
X164300147Y-91704354D01*
X164201544Y-91556784D01*
X164133624Y-91392812D01*
X164099000Y-91218741D01*
X164099000Y-91041259D01*
X164133624Y-90867188D01*
X164201544Y-90703216D01*
X164300147Y-90555646D01*
X164425646Y-90430147D01*
X164573216Y-90331544D01*
X164737188Y-90263624D01*
X164886488Y-90233927D01*
X164911258Y-90229000D01*
X165088742Y-90229000D01*
X165113512Y-90233927D01*
G37*
G36*
X167653512Y-90233927D02*
G01*
X167802812Y-90263624D01*
X167966784Y-90331544D01*
X168114354Y-90430147D01*
X168239853Y-90555646D01*
X168338456Y-90703216D01*
X168406376Y-90867188D01*
X168441000Y-91041259D01*
X168441000Y-91218741D01*
X168406376Y-91392812D01*
X168338456Y-91556784D01*
X168239853Y-91704354D01*
X168114354Y-91829853D01*
X167966784Y-91928456D01*
X167802812Y-91996376D01*
X167653512Y-92026073D01*
X167628742Y-92031000D01*
X167451258Y-92031000D01*
X167426488Y-92026073D01*
X167277188Y-91996376D01*
X167113216Y-91928456D01*
X166965646Y-91829853D01*
X166840147Y-91704354D01*
X166741544Y-91556784D01*
X166673624Y-91392812D01*
X166639000Y-91218741D01*
X166639000Y-91041259D01*
X166673624Y-90867188D01*
X166741544Y-90703216D01*
X166840147Y-90555646D01*
X166965646Y-90430147D01*
X167113216Y-90331544D01*
X167277188Y-90263624D01*
X167426488Y-90233927D01*
X167451258Y-90229000D01*
X167628742Y-90229000D01*
X167653512Y-90233927D01*
G37*
G36*
X142737395Y-89105546D02*
G01*
X142910466Y-89177234D01*
X142910467Y-89177235D01*
X143066227Y-89281310D01*
X143198690Y-89413773D01*
X143227156Y-89456376D01*
X143302766Y-89569534D01*
X143374454Y-89742605D01*
X143411000Y-89926333D01*
X143411000Y-90113667D01*
X143374454Y-90297395D01*
X143302766Y-90470466D01*
X143302765Y-90470467D01*
X143198690Y-90626227D01*
X143066227Y-90758690D01*
X142987818Y-90811081D01*
X142910466Y-90862766D01*
X142737395Y-90934454D01*
X142553667Y-90971000D01*
X142366333Y-90971000D01*
X142182605Y-90934454D01*
X142009534Y-90862766D01*
X141932182Y-90811081D01*
X141853773Y-90758690D01*
X141721310Y-90626227D01*
X141617235Y-90470467D01*
X141617234Y-90470466D01*
X141545546Y-90297395D01*
X141509000Y-90113667D01*
X141509000Y-89926333D01*
X141545546Y-89742605D01*
X141617234Y-89569534D01*
X141692844Y-89456376D01*
X141721310Y-89413773D01*
X141853773Y-89281310D01*
X142009533Y-89177235D01*
X142009534Y-89177234D01*
X142182605Y-89105546D01*
X142366333Y-89069000D01*
X142553667Y-89069000D01*
X142737395Y-89105546D01*
G37*
G36*
X145951000Y-90971000D02*
G01*
X144049000Y-90971000D01*
X144049000Y-89069000D01*
X145951000Y-89069000D01*
X145951000Y-90971000D01*
G37*
G36*
X151903512Y-89123927D02*
G01*
X152052812Y-89153624D01*
X152216784Y-89221544D01*
X152364354Y-89320147D01*
X152489853Y-89445646D01*
X152588456Y-89593216D01*
X152656376Y-89757188D01*
X152691000Y-89931259D01*
X152691000Y-90108741D01*
X152656376Y-90282812D01*
X152588456Y-90446784D01*
X152489853Y-90594354D01*
X152364354Y-90719853D01*
X152216784Y-90818456D01*
X152052812Y-90886376D01*
X151903512Y-90916073D01*
X151878742Y-90921000D01*
X151701258Y-90921000D01*
X151676488Y-90916073D01*
X151527188Y-90886376D01*
X151363216Y-90818456D01*
X151215646Y-90719853D01*
X151090147Y-90594354D01*
X150991544Y-90446784D01*
X150923624Y-90282812D01*
X150889000Y-90108741D01*
X150889000Y-89931259D01*
X150923624Y-89757188D01*
X150991544Y-89593216D01*
X151090147Y-89445646D01*
X151215646Y-89320147D01*
X151363216Y-89221544D01*
X151527188Y-89153624D01*
X151676488Y-89123927D01*
X151701258Y-89119000D01*
X151878742Y-89119000D01*
X151903512Y-89123927D01*
G37*
G36*
X150151000Y-90921000D02*
G01*
X148349000Y-90921000D01*
X148349000Y-89119000D01*
X150151000Y-89119000D01*
X150151000Y-90921000D01*
G37*
G36*
X167653512Y-87693927D02*
G01*
X167802812Y-87723624D01*
X167966784Y-87791544D01*
X168114354Y-87890147D01*
X168239853Y-88015646D01*
X168338456Y-88163216D01*
X168406376Y-88327188D01*
X168441000Y-88501259D01*
X168441000Y-88678741D01*
X168406376Y-88852812D01*
X168338456Y-89016784D01*
X168239853Y-89164354D01*
X168114354Y-89289853D01*
X167966784Y-89388456D01*
X167802812Y-89456376D01*
X167653512Y-89486073D01*
X167628742Y-89491000D01*
X167451258Y-89491000D01*
X167426488Y-89486073D01*
X167277188Y-89456376D01*
X167113216Y-89388456D01*
X166965646Y-89289853D01*
X166840147Y-89164354D01*
X166741544Y-89016784D01*
X166673624Y-88852812D01*
X166639000Y-88678741D01*
X166639000Y-88501259D01*
X166673624Y-88327188D01*
X166741544Y-88163216D01*
X166840147Y-88015646D01*
X166965646Y-87890147D01*
X167113216Y-87791544D01*
X167277188Y-87723624D01*
X167426488Y-87693927D01*
X167451258Y-87689000D01*
X167628742Y-87689000D01*
X167653512Y-87693927D01*
G37*
G36*
X165113512Y-87693927D02*
G01*
X165262812Y-87723624D01*
X165426784Y-87791544D01*
X165574354Y-87890147D01*
X165699853Y-88015646D01*
X165798456Y-88163216D01*
X165866376Y-88327188D01*
X165901000Y-88501259D01*
X165901000Y-88678741D01*
X165866376Y-88852812D01*
X165798456Y-89016784D01*
X165699853Y-89164354D01*
X165574354Y-89289853D01*
X165426784Y-89388456D01*
X165262812Y-89456376D01*
X165113512Y-89486073D01*
X165088742Y-89491000D01*
X164911258Y-89491000D01*
X164886488Y-89486073D01*
X164737188Y-89456376D01*
X164573216Y-89388456D01*
X164425646Y-89289853D01*
X164300147Y-89164354D01*
X164201544Y-89016784D01*
X164133624Y-88852812D01*
X164099000Y-88678741D01*
X164099000Y-88501259D01*
X164133624Y-88327188D01*
X164201544Y-88163216D01*
X164300147Y-88015646D01*
X164425646Y-87890147D01*
X164573216Y-87791544D01*
X164737188Y-87723624D01*
X164886488Y-87693927D01*
X164911258Y-87689000D01*
X165088742Y-87689000D01*
X165113512Y-87693927D01*
G37*
G36*
X127316890Y-88210017D02*
G01*
X127435364Y-88259091D01*
X127541988Y-88330335D01*
X127632665Y-88421012D01*
X127703909Y-88527636D01*
X127752983Y-88646110D01*
X127778000Y-88771882D01*
X127778000Y-88900118D01*
X127752983Y-89025890D01*
X127703909Y-89144364D01*
X127632665Y-89250988D01*
X127541988Y-89341665D01*
X127435364Y-89412909D01*
X127435363Y-89412910D01*
X127435362Y-89412910D01*
X127316890Y-89461983D01*
X127191119Y-89487000D01*
X127062881Y-89487000D01*
X126937110Y-89461983D01*
X126818638Y-89412910D01*
X126818637Y-89412910D01*
X126818636Y-89412909D01*
X126712012Y-89341665D01*
X126621335Y-89250988D01*
X126550091Y-89144364D01*
X126501017Y-89025890D01*
X126476000Y-88900118D01*
X126476000Y-88771882D01*
X126501017Y-88646110D01*
X126550091Y-88527636D01*
X126621335Y-88421012D01*
X126712012Y-88330335D01*
X126818636Y-88259091D01*
X126937110Y-88210017D01*
X127062881Y-88185000D01*
X127191119Y-88185000D01*
X127316890Y-88210017D01*
G37*
G36*
X167653512Y-85153927D02*
G01*
X167802812Y-85183624D01*
X167966784Y-85251544D01*
X168114354Y-85350147D01*
X168239853Y-85475646D01*
X168338456Y-85623216D01*
X168406376Y-85787188D01*
X168441000Y-85961259D01*
X168441000Y-86138741D01*
X168406376Y-86312812D01*
X168338456Y-86476784D01*
X168239853Y-86624354D01*
X168114354Y-86749853D01*
X167966784Y-86848456D01*
X167802812Y-86916376D01*
X167653512Y-86946073D01*
X167628742Y-86951000D01*
X167451258Y-86951000D01*
X167426488Y-86946073D01*
X167277188Y-86916376D01*
X167113216Y-86848456D01*
X166965646Y-86749853D01*
X166840147Y-86624354D01*
X166741544Y-86476784D01*
X166673624Y-86312812D01*
X166639000Y-86138741D01*
X166639000Y-85961259D01*
X166673624Y-85787188D01*
X166741544Y-85623216D01*
X166840147Y-85475646D01*
X166965646Y-85350147D01*
X167113216Y-85251544D01*
X167277188Y-85183624D01*
X167426488Y-85153927D01*
X167451258Y-85149000D01*
X167628742Y-85149000D01*
X167653512Y-85153927D01*
G37*
G36*
X165113512Y-85153927D02*
G01*
X165262812Y-85183624D01*
X165426784Y-85251544D01*
X165574354Y-85350147D01*
X165699853Y-85475646D01*
X165798456Y-85623216D01*
X165866376Y-85787188D01*
X165901000Y-85961259D01*
X165901000Y-86138741D01*
X165866376Y-86312812D01*
X165798456Y-86476784D01*
X165699853Y-86624354D01*
X165574354Y-86749853D01*
X165426784Y-86848456D01*
X165262812Y-86916376D01*
X165113512Y-86946073D01*
X165088742Y-86951000D01*
X164911258Y-86951000D01*
X164886488Y-86946073D01*
X164737188Y-86916376D01*
X164573216Y-86848456D01*
X164425646Y-86749853D01*
X164300147Y-86624354D01*
X164201544Y-86476784D01*
X164133624Y-86312812D01*
X164099000Y-86138741D01*
X164099000Y-85961259D01*
X164133624Y-85787188D01*
X164201544Y-85623216D01*
X164300147Y-85475646D01*
X164425646Y-85350147D01*
X164573216Y-85251544D01*
X164737188Y-85183624D01*
X164886488Y-85153927D01*
X164911258Y-85149000D01*
X165088742Y-85149000D01*
X165113512Y-85153927D01*
G37*
G36*
X148702915Y-84043334D02*
G01*
X148811491Y-84076271D01*
X148811494Y-84076272D01*
X148847600Y-84095571D01*
X148911556Y-84129756D01*
X148999264Y-84201736D01*
X149071244Y-84289443D01*
X149105429Y-84353399D01*
X149124728Y-84389505D01*
X149124729Y-84389508D01*
X149157666Y-84498084D01*
X149166000Y-84582702D01*
X149166000Y-85089297D01*
X149157666Y-85173916D01*
X149125252Y-85280767D01*
X149124728Y-85282495D01*
X149114761Y-85301141D01*
X149071244Y-85382557D01*
X148999264Y-85470264D01*
X148911557Y-85542244D01*
X148847601Y-85576429D01*
X148811495Y-85595728D01*
X148811492Y-85595729D01*
X148702916Y-85628666D01*
X148590000Y-85639787D01*
X148477085Y-85628666D01*
X148368509Y-85595729D01*
X148368506Y-85595728D01*
X148332400Y-85576429D01*
X148268444Y-85542244D01*
X148180737Y-85470264D01*
X148108757Y-85382557D01*
X148065239Y-85301141D01*
X148051625Y-85280766D01*
X148034298Y-85263439D01*
X148013924Y-85249826D01*
X147991285Y-85240448D01*
X147967252Y-85235668D01*
X147942748Y-85235668D01*
X147918715Y-85240448D01*
X147896076Y-85249826D01*
X147875701Y-85263440D01*
X147858374Y-85280767D01*
X147844761Y-85301141D01*
X147801244Y-85382557D01*
X147729264Y-85470264D01*
X147641557Y-85542244D01*
X147577601Y-85576429D01*
X147541495Y-85595728D01*
X147541492Y-85595729D01*
X147432916Y-85628666D01*
X147320000Y-85639787D01*
X147207085Y-85628666D01*
X147098509Y-85595729D01*
X147098506Y-85595728D01*
X147062400Y-85576429D01*
X146998444Y-85542244D01*
X146910737Y-85470264D01*
X146847622Y-85393359D01*
X146830297Y-85376034D01*
X146809923Y-85362420D01*
X146787284Y-85353043D01*
X146763250Y-85348263D01*
X146738746Y-85348263D01*
X146714713Y-85353044D01*
X146692074Y-85362421D01*
X146671700Y-85376035D01*
X146654373Y-85393362D01*
X146640759Y-85413736D01*
X146631382Y-85436375D01*
X146626000Y-85472660D01*
X146626000Y-85637000D01*
X145474000Y-85637000D01*
X145474000Y-84035000D01*
X146626000Y-84035000D01*
X146626000Y-84199341D01*
X146628402Y-84223727D01*
X146635515Y-84247176D01*
X146647066Y-84268787D01*
X146662611Y-84287729D01*
X146681553Y-84303274D01*
X146703164Y-84314825D01*
X146726613Y-84321938D01*
X146750999Y-84324340D01*
X146775385Y-84321938D01*
X146798834Y-84314825D01*
X146820445Y-84303274D01*
X146839387Y-84287729D01*
X146847608Y-84278657D01*
X146910736Y-84201736D01*
X146998443Y-84129756D01*
X147062399Y-84095571D01*
X147098505Y-84076272D01*
X147098508Y-84076271D01*
X147207084Y-84043334D01*
X147320000Y-84032213D01*
X147432915Y-84043334D01*
X147541491Y-84076271D01*
X147541494Y-84076272D01*
X147577600Y-84095571D01*
X147641556Y-84129756D01*
X147729264Y-84201736D01*
X147801244Y-84289443D01*
X147844761Y-84370859D01*
X147858375Y-84391234D01*
X147875702Y-84408561D01*
X147896076Y-84422174D01*
X147918715Y-84431552D01*
X147942748Y-84436332D01*
X147967252Y-84436332D01*
X147991285Y-84431552D01*
X148013924Y-84422174D01*
X148034299Y-84408560D01*
X148051626Y-84391233D01*
X148065239Y-84370860D01*
X148108756Y-84289444D01*
X148180736Y-84201736D01*
X148268443Y-84129756D01*
X148332399Y-84095571D01*
X148368505Y-84076272D01*
X148368508Y-84076271D01*
X148477084Y-84043334D01*
X148590000Y-84032213D01*
X148702915Y-84043334D01*
G37*
G36*
X165113512Y-82613927D02*
G01*
X165262812Y-82643624D01*
X165426784Y-82711544D01*
X165574354Y-82810147D01*
X165699853Y-82935646D01*
X165798456Y-83083216D01*
X165866376Y-83247188D01*
X165901000Y-83421259D01*
X165901000Y-83598741D01*
X165866376Y-83772812D01*
X165798456Y-83936784D01*
X165699853Y-84084354D01*
X165574354Y-84209853D01*
X165426784Y-84308456D01*
X165262812Y-84376376D01*
X165113512Y-84406073D01*
X165088742Y-84411000D01*
X164911258Y-84411000D01*
X164886488Y-84406073D01*
X164737188Y-84376376D01*
X164573216Y-84308456D01*
X164425646Y-84209853D01*
X164300147Y-84084354D01*
X164201544Y-83936784D01*
X164133624Y-83772812D01*
X164099000Y-83598741D01*
X164099000Y-83421259D01*
X164133624Y-83247188D01*
X164201544Y-83083216D01*
X164300147Y-82935646D01*
X164425646Y-82810147D01*
X164573216Y-82711544D01*
X164737188Y-82643624D01*
X164886488Y-82613927D01*
X164911258Y-82609000D01*
X165088742Y-82609000D01*
X165113512Y-82613927D01*
G37*
G36*
X167653512Y-82613927D02*
G01*
X167802812Y-82643624D01*
X167966784Y-82711544D01*
X168114354Y-82810147D01*
X168239853Y-82935646D01*
X168338456Y-83083216D01*
X168406376Y-83247188D01*
X168441000Y-83421259D01*
X168441000Y-83598741D01*
X168406376Y-83772812D01*
X168338456Y-83936784D01*
X168239853Y-84084354D01*
X168114354Y-84209853D01*
X167966784Y-84308456D01*
X167802812Y-84376376D01*
X167653512Y-84406073D01*
X167628742Y-84411000D01*
X167451258Y-84411000D01*
X167426488Y-84406073D01*
X167277188Y-84376376D01*
X167113216Y-84308456D01*
X166965646Y-84209853D01*
X166840147Y-84084354D01*
X166741544Y-83936784D01*
X166673624Y-83772812D01*
X166639000Y-83598741D01*
X166639000Y-83421259D01*
X166673624Y-83247188D01*
X166741544Y-83083216D01*
X166840147Y-82935646D01*
X166965646Y-82810147D01*
X167113216Y-82711544D01*
X167277188Y-82643624D01*
X167426488Y-82613927D01*
X167451258Y-82609000D01*
X167628742Y-82609000D01*
X167653512Y-82613927D01*
G37*
G36*
X165113512Y-80073927D02*
G01*
X165262812Y-80103624D01*
X165426784Y-80171544D01*
X165574354Y-80270147D01*
X165699853Y-80395646D01*
X165798456Y-80543216D01*
X165866376Y-80707188D01*
X165901000Y-80881259D01*
X165901000Y-81058741D01*
X165866376Y-81232812D01*
X165798456Y-81396784D01*
X165699853Y-81544354D01*
X165574354Y-81669853D01*
X165426784Y-81768456D01*
X165262812Y-81836376D01*
X165113512Y-81866073D01*
X165088742Y-81871000D01*
X164911258Y-81871000D01*
X164886488Y-81866073D01*
X164737188Y-81836376D01*
X164573216Y-81768456D01*
X164425646Y-81669853D01*
X164300147Y-81544354D01*
X164201544Y-81396784D01*
X164133624Y-81232812D01*
X164099000Y-81058741D01*
X164099000Y-80881259D01*
X164133624Y-80707188D01*
X164201544Y-80543216D01*
X164300147Y-80395646D01*
X164425646Y-80270147D01*
X164573216Y-80171544D01*
X164737188Y-80103624D01*
X164886488Y-80073927D01*
X164911258Y-80069000D01*
X165088742Y-80069000D01*
X165113512Y-80073927D01*
G37*
G36*
X167653512Y-80073927D02*
G01*
X167802812Y-80103624D01*
X167966784Y-80171544D01*
X168114354Y-80270147D01*
X168239853Y-80395646D01*
X168338456Y-80543216D01*
X168406376Y-80707188D01*
X168441000Y-80881259D01*
X168441000Y-81058741D01*
X168406376Y-81232812D01*
X168338456Y-81396784D01*
X168239853Y-81544354D01*
X168114354Y-81669853D01*
X167966784Y-81768456D01*
X167802812Y-81836376D01*
X167653512Y-81866073D01*
X167628742Y-81871000D01*
X167451258Y-81871000D01*
X167426488Y-81866073D01*
X167277188Y-81836376D01*
X167113216Y-81768456D01*
X166965646Y-81669853D01*
X166840147Y-81544354D01*
X166741544Y-81396784D01*
X166673624Y-81232812D01*
X166639000Y-81058741D01*
X166639000Y-80881259D01*
X166673624Y-80707188D01*
X166741544Y-80543216D01*
X166840147Y-80395646D01*
X166965646Y-80270147D01*
X167113216Y-80171544D01*
X167277188Y-80103624D01*
X167426488Y-80073927D01*
X167451258Y-80069000D01*
X167628742Y-80069000D01*
X167653512Y-80073927D01*
G37*
G36*
X127297899Y-79976832D02*
G01*
X127382520Y-79993664D01*
X127541942Y-80059699D01*
X127685418Y-80155566D01*
X127807434Y-80277582D01*
X127903301Y-80421058D01*
X127969336Y-80580480D01*
X128003000Y-80749721D01*
X128003000Y-80922279D01*
X127969336Y-81091520D01*
X127903301Y-81250942D01*
X127807434Y-81394418D01*
X127685418Y-81516434D01*
X127541942Y-81612301D01*
X127382520Y-81678336D01*
X127213280Y-81712000D01*
X127040720Y-81712000D01*
X126871480Y-81678336D01*
X126712058Y-81612301D01*
X126568582Y-81516434D01*
X126446566Y-81394418D01*
X126350699Y-81250942D01*
X126284664Y-81091520D01*
X126251000Y-80922279D01*
X126251000Y-80749721D01*
X126284664Y-80580480D01*
X126350699Y-80421058D01*
X126446566Y-80277582D01*
X126568582Y-80155566D01*
X126712058Y-80059699D01*
X126871480Y-79993664D01*
X126956101Y-79976832D01*
X127040720Y-79960000D01*
X127213280Y-79960000D01*
X127297899Y-79976832D01*
G37*
G36*
X165113512Y-77533927D02*
G01*
X165262812Y-77563624D01*
X165426784Y-77631544D01*
X165574354Y-77730147D01*
X165699853Y-77855646D01*
X165798456Y-78003216D01*
X165866376Y-78167188D01*
X165901000Y-78341259D01*
X165901000Y-78518741D01*
X165866376Y-78692812D01*
X165798456Y-78856784D01*
X165699853Y-79004354D01*
X165574354Y-79129853D01*
X165426784Y-79228456D01*
X165262812Y-79296376D01*
X165113512Y-79326073D01*
X165088742Y-79331000D01*
X164911258Y-79331000D01*
X164886488Y-79326073D01*
X164737188Y-79296376D01*
X164573216Y-79228456D01*
X164425646Y-79129853D01*
X164300147Y-79004354D01*
X164201544Y-78856784D01*
X164133624Y-78692812D01*
X164099000Y-78518741D01*
X164099000Y-78341259D01*
X164133624Y-78167188D01*
X164201544Y-78003216D01*
X164300147Y-77855646D01*
X164425646Y-77730147D01*
X164573216Y-77631544D01*
X164737188Y-77563624D01*
X164886488Y-77533927D01*
X164911258Y-77529000D01*
X165088742Y-77529000D01*
X165113512Y-77533927D01*
G37*
G36*
X167653512Y-77533927D02*
G01*
X167802812Y-77563624D01*
X167966784Y-77631544D01*
X168114354Y-77730147D01*
X168239853Y-77855646D01*
X168338456Y-78003216D01*
X168406376Y-78167188D01*
X168441000Y-78341259D01*
X168441000Y-78518741D01*
X168406376Y-78692812D01*
X168338456Y-78856784D01*
X168239853Y-79004354D01*
X168114354Y-79129853D01*
X167966784Y-79228456D01*
X167802812Y-79296376D01*
X167653512Y-79326073D01*
X167628742Y-79331000D01*
X167451258Y-79331000D01*
X167426488Y-79326073D01*
X167277188Y-79296376D01*
X167113216Y-79228456D01*
X166965646Y-79129853D01*
X166840147Y-79004354D01*
X166741544Y-78856784D01*
X166673624Y-78692812D01*
X166639000Y-78518741D01*
X166639000Y-78341259D01*
X166673624Y-78167188D01*
X166741544Y-78003216D01*
X166840147Y-77855646D01*
X166965646Y-77730147D01*
X167113216Y-77631544D01*
X167277188Y-77563624D01*
X167426488Y-77533927D01*
X167451258Y-77529000D01*
X167628742Y-77529000D01*
X167653512Y-77533927D01*
G37*
G36*
X149895000Y-77965500D02*
G01*
X147793000Y-77965500D01*
X147793000Y-75958500D01*
X149895000Y-75958500D01*
X149895000Y-77965500D01*
G37*
G36*
X165113512Y-74993927D02*
G01*
X165262812Y-75023624D01*
X165426784Y-75091544D01*
X165574354Y-75190147D01*
X165699853Y-75315646D01*
X165798456Y-75463216D01*
X165866376Y-75627188D01*
X165901000Y-75801259D01*
X165901000Y-75978741D01*
X165866376Y-76152812D01*
X165798456Y-76316784D01*
X165699853Y-76464354D01*
X165574354Y-76589853D01*
X165426784Y-76688456D01*
X165262812Y-76756376D01*
X165113512Y-76786073D01*
X165088742Y-76791000D01*
X164911258Y-76791000D01*
X164886488Y-76786073D01*
X164737188Y-76756376D01*
X164573216Y-76688456D01*
X164425646Y-76589853D01*
X164300147Y-76464354D01*
X164201544Y-76316784D01*
X164133624Y-76152812D01*
X164099000Y-75978741D01*
X164099000Y-75801259D01*
X164133624Y-75627188D01*
X164201544Y-75463216D01*
X164300147Y-75315646D01*
X164425646Y-75190147D01*
X164573216Y-75091544D01*
X164737188Y-75023624D01*
X164886488Y-74993927D01*
X164911258Y-74989000D01*
X165088742Y-74989000D01*
X165113512Y-74993927D01*
G37*
G36*
X167653512Y-74993927D02*
G01*
X167802812Y-75023624D01*
X167966784Y-75091544D01*
X168114354Y-75190147D01*
X168239853Y-75315646D01*
X168338456Y-75463216D01*
X168406376Y-75627188D01*
X168441000Y-75801259D01*
X168441000Y-75978741D01*
X168406376Y-76152812D01*
X168338456Y-76316784D01*
X168239853Y-76464354D01*
X168114354Y-76589853D01*
X167966784Y-76688456D01*
X167802812Y-76756376D01*
X167653512Y-76786073D01*
X167628742Y-76791000D01*
X167451258Y-76791000D01*
X167426488Y-76786073D01*
X167277188Y-76756376D01*
X167113216Y-76688456D01*
X166965646Y-76589853D01*
X166840147Y-76464354D01*
X166741544Y-76316784D01*
X166673624Y-76152812D01*
X166639000Y-75978741D01*
X166639000Y-75801259D01*
X166673624Y-75627188D01*
X166741544Y-75463216D01*
X166840147Y-75315646D01*
X166965646Y-75190147D01*
X167113216Y-75091544D01*
X167277188Y-75023624D01*
X167426488Y-74993927D01*
X167451258Y-74989000D01*
X167628742Y-74989000D01*
X167653512Y-74993927D01*
G37*
G36*
X148989936Y-73423340D02*
G01*
X149088220Y-73433020D01*
X149277381Y-73490401D01*
X149451712Y-73583583D01*
X149604515Y-73708985D01*
X149729917Y-73861788D01*
X149823099Y-74036119D01*
X149880480Y-74225280D01*
X149899855Y-74422000D01*
X149880480Y-74618720D01*
X149823099Y-74807881D01*
X149729917Y-74982212D01*
X149604515Y-75135015D01*
X149451712Y-75260417D01*
X149277381Y-75353599D01*
X149088220Y-75410980D01*
X148989936Y-75420660D01*
X148940795Y-75425500D01*
X148747205Y-75425500D01*
X148698064Y-75420660D01*
X148599780Y-75410980D01*
X148410619Y-75353599D01*
X148236288Y-75260417D01*
X148083485Y-75135015D01*
X147958083Y-74982212D01*
X147864901Y-74807881D01*
X147807520Y-74618720D01*
X147788145Y-74422000D01*
X147807520Y-74225280D01*
X147864901Y-74036119D01*
X147958083Y-73861788D01*
X148083485Y-73708985D01*
X148236288Y-73583583D01*
X148410619Y-73490401D01*
X148599780Y-73433020D01*
X148698064Y-73423340D01*
X148747205Y-73418500D01*
X148940795Y-73418500D01*
X148989936Y-73423340D01*
G37*
G36*
X167653512Y-72453927D02*
G01*
X167802812Y-72483624D01*
X167966784Y-72551544D01*
X168114354Y-72650147D01*
X168239853Y-72775646D01*
X168338456Y-72923216D01*
X168406376Y-73087188D01*
X168441000Y-73261259D01*
X168441000Y-73438741D01*
X168406376Y-73612812D01*
X168338456Y-73776784D01*
X168239853Y-73924354D01*
X168114354Y-74049853D01*
X167966784Y-74148456D01*
X167802812Y-74216376D01*
X167653512Y-74246073D01*
X167628742Y-74251000D01*
X167451258Y-74251000D01*
X167426488Y-74246073D01*
X167277188Y-74216376D01*
X167113216Y-74148456D01*
X166965646Y-74049853D01*
X166840147Y-73924354D01*
X166741544Y-73776784D01*
X166673624Y-73612812D01*
X166639000Y-73438741D01*
X166639000Y-73261259D01*
X166673624Y-73087188D01*
X166741544Y-72923216D01*
X166840147Y-72775646D01*
X166965646Y-72650147D01*
X167113216Y-72551544D01*
X167277188Y-72483624D01*
X167426488Y-72453927D01*
X167451258Y-72449000D01*
X167628742Y-72449000D01*
X167653512Y-72453927D01*
G37*
G36*
X165113512Y-72453927D02*
G01*
X165262812Y-72483624D01*
X165426784Y-72551544D01*
X165574354Y-72650147D01*
X165699853Y-72775646D01*
X165798456Y-72923216D01*
X165866376Y-73087188D01*
X165901000Y-73261259D01*
X165901000Y-73438741D01*
X165866376Y-73612812D01*
X165798456Y-73776784D01*
X165699853Y-73924354D01*
X165574354Y-74049853D01*
X165426784Y-74148456D01*
X165262812Y-74216376D01*
X165113512Y-74246073D01*
X165088742Y-74251000D01*
X164911258Y-74251000D01*
X164886488Y-74246073D01*
X164737188Y-74216376D01*
X164573216Y-74148456D01*
X164425646Y-74049853D01*
X164300147Y-73924354D01*
X164201544Y-73776784D01*
X164133624Y-73612812D01*
X164099000Y-73438741D01*
X164099000Y-73261259D01*
X164133624Y-73087188D01*
X164201544Y-72923216D01*
X164300147Y-72775646D01*
X164425646Y-72650147D01*
X164573216Y-72551544D01*
X164737188Y-72483624D01*
X164886488Y-72453927D01*
X164911258Y-72449000D01*
X165088742Y-72449000D01*
X165113512Y-72453927D01*
G37*
G36*
X148989936Y-70883340D02*
G01*
X149088220Y-70893020D01*
X149277381Y-70950401D01*
X149451712Y-71043583D01*
X149604515Y-71168985D01*
X149729917Y-71321788D01*
X149823099Y-71496119D01*
X149880480Y-71685280D01*
X149899855Y-71882000D01*
X149880480Y-72078720D01*
X149823099Y-72267881D01*
X149729917Y-72442212D01*
X149604515Y-72595015D01*
X149451712Y-72720417D01*
X149277381Y-72813599D01*
X149088220Y-72870980D01*
X148989936Y-72880660D01*
X148940795Y-72885500D01*
X148747205Y-72885500D01*
X148698064Y-72880660D01*
X148599780Y-72870980D01*
X148410619Y-72813599D01*
X148236288Y-72720417D01*
X148083485Y-72595015D01*
X147958083Y-72442212D01*
X147864901Y-72267881D01*
X147807520Y-72078720D01*
X147788145Y-71882000D01*
X147807520Y-71685280D01*
X147864901Y-71496119D01*
X147958083Y-71321788D01*
X148083485Y-71168985D01*
X148236288Y-71043583D01*
X148410619Y-70950401D01*
X148599780Y-70893020D01*
X148698064Y-70883340D01*
X148747205Y-70878500D01*
X148940795Y-70878500D01*
X148989936Y-70883340D01*
G37*
G36*
X165113512Y-69913927D02*
G01*
X165262812Y-69943624D01*
X165426784Y-70011544D01*
X165574354Y-70110147D01*
X165699853Y-70235646D01*
X165798456Y-70383216D01*
X165866376Y-70547188D01*
X165901000Y-70721259D01*
X165901000Y-70898741D01*
X165866376Y-71072812D01*
X165798456Y-71236784D01*
X165699853Y-71384354D01*
X165574354Y-71509853D01*
X165426784Y-71608456D01*
X165262812Y-71676376D01*
X165113512Y-71706073D01*
X165088742Y-71711000D01*
X164911258Y-71711000D01*
X164886488Y-71706073D01*
X164737188Y-71676376D01*
X164573216Y-71608456D01*
X164425646Y-71509853D01*
X164300147Y-71384354D01*
X164201544Y-71236784D01*
X164133624Y-71072812D01*
X164099000Y-70898741D01*
X164099000Y-70721259D01*
X164133624Y-70547188D01*
X164201544Y-70383216D01*
X164300147Y-70235646D01*
X164425646Y-70110147D01*
X164573216Y-70011544D01*
X164737188Y-69943624D01*
X164886488Y-69913927D01*
X164911258Y-69909000D01*
X165088742Y-69909000D01*
X165113512Y-69913927D01*
G37*
G36*
X167653512Y-69913927D02*
G01*
X167802812Y-69943624D01*
X167966784Y-70011544D01*
X168114354Y-70110147D01*
X168239853Y-70235646D01*
X168338456Y-70383216D01*
X168406376Y-70547188D01*
X168441000Y-70721259D01*
X168441000Y-70898741D01*
X168406376Y-71072812D01*
X168338456Y-71236784D01*
X168239853Y-71384354D01*
X168114354Y-71509853D01*
X167966784Y-71608456D01*
X167802812Y-71676376D01*
X167653512Y-71706073D01*
X167628742Y-71711000D01*
X167451258Y-71711000D01*
X167426488Y-71706073D01*
X167277188Y-71676376D01*
X167113216Y-71608456D01*
X166965646Y-71509853D01*
X166840147Y-71384354D01*
X166741544Y-71236784D01*
X166673624Y-71072812D01*
X166639000Y-70898741D01*
X166639000Y-70721259D01*
X166673624Y-70547188D01*
X166741544Y-70383216D01*
X166840147Y-70235646D01*
X166965646Y-70110147D01*
X167113216Y-70011544D01*
X167277188Y-69943624D01*
X167426488Y-69913927D01*
X167451258Y-69909000D01*
X167628742Y-69909000D01*
X167653512Y-69913927D01*
G37*
G36*
X165901000Y-69171000D02*
G01*
X164099000Y-69171000D01*
X164099000Y-67369000D01*
X165901000Y-67369000D01*
X165901000Y-69171000D01*
G37*
G36*
X167653512Y-67373927D02*
G01*
X167802812Y-67403624D01*
X167966784Y-67471544D01*
X168114354Y-67570147D01*
X168239853Y-67695646D01*
X168338456Y-67843216D01*
X168406376Y-68007188D01*
X168441000Y-68181259D01*
X168441000Y-68358741D01*
X168406376Y-68532812D01*
X168338456Y-68696784D01*
X168239853Y-68844354D01*
X168114354Y-68969853D01*
X167966784Y-69068456D01*
X167802812Y-69136376D01*
X167653512Y-69166073D01*
X167628742Y-69171000D01*
X167451258Y-69171000D01*
X167426488Y-69166073D01*
X167277188Y-69136376D01*
X167113216Y-69068456D01*
X166965646Y-68969853D01*
X166840147Y-68844354D01*
X166741544Y-68696784D01*
X166673624Y-68532812D01*
X166639000Y-68358741D01*
X166639000Y-68181259D01*
X166673624Y-68007188D01*
X166741544Y-67843216D01*
X166840147Y-67695646D01*
X166965646Y-67570147D01*
X167113216Y-67471544D01*
X167277188Y-67403624D01*
X167426488Y-67373927D01*
X167451258Y-67369000D01*
X167628742Y-67369000D01*
X167653512Y-67373927D01*
G37*
G36*
X142630601Y-66597397D02*
G01*
X142669305Y-66605096D01*
X142701340Y-66618365D01*
X142778680Y-66650400D01*
X142877115Y-66716173D01*
X142960827Y-66799885D01*
X143026600Y-66898320D01*
X143071904Y-67007696D01*
X143095000Y-67123805D01*
X143095000Y-67242195D01*
X143071904Y-67358304D01*
X143026600Y-67467680D01*
X142960827Y-67566115D01*
X142877115Y-67649827D01*
X142778680Y-67715600D01*
X142701340Y-67747635D01*
X142669305Y-67760904D01*
X142630601Y-67768603D01*
X142553195Y-67784000D01*
X142434805Y-67784000D01*
X142357399Y-67768603D01*
X142318695Y-67760904D01*
X142286660Y-67747635D01*
X142209320Y-67715600D01*
X142110885Y-67649827D01*
X142027173Y-67566115D01*
X141961400Y-67467680D01*
X141916096Y-67358304D01*
X141893000Y-67242195D01*
X141893000Y-67123805D01*
X141916096Y-67007696D01*
X141961400Y-66898320D01*
X142027173Y-66799885D01*
X142110885Y-66716173D01*
X142209320Y-66650400D01*
X142286660Y-66618365D01*
X142318695Y-66605096D01*
X142357399Y-66597397D01*
X142434805Y-66582000D01*
X142553195Y-66582000D01*
X142630601Y-66597397D01*
G37*
G36*
X140090601Y-66597397D02*
G01*
X140129305Y-66605096D01*
X140161340Y-66618365D01*
X140238680Y-66650400D01*
X140337115Y-66716173D01*
X140420827Y-66799885D01*
X140486600Y-66898320D01*
X140531904Y-67007696D01*
X140555000Y-67123805D01*
X140555000Y-67242195D01*
X140531904Y-67358304D01*
X140486600Y-67467680D01*
X140420827Y-67566115D01*
X140337115Y-67649827D01*
X140238680Y-67715600D01*
X140161340Y-67747635D01*
X140129305Y-67760904D01*
X140090601Y-67768603D01*
X140013195Y-67784000D01*
X139894805Y-67784000D01*
X139817399Y-67768603D01*
X139778695Y-67760904D01*
X139746660Y-67747635D01*
X139669320Y-67715600D01*
X139570885Y-67649827D01*
X139487173Y-67566115D01*
X139421400Y-67467680D01*
X139376096Y-67358304D01*
X139353000Y-67242195D01*
X139353000Y-67123805D01*
X139376096Y-67007696D01*
X139421400Y-66898320D01*
X139487173Y-66799885D01*
X139570885Y-66716173D01*
X139669320Y-66650400D01*
X139746660Y-66618365D01*
X139778695Y-66605096D01*
X139817399Y-66597397D01*
X139894805Y-66582000D01*
X140013195Y-66582000D01*
X140090601Y-66597397D01*
G37*
G36*
X159867022Y-64660590D02*
G01*
X159967681Y-64691125D01*
X160018012Y-64706392D01*
X160082019Y-64740605D01*
X160157164Y-64780771D01*
X160279133Y-64880867D01*
X160359449Y-64978733D01*
X160379229Y-65002835D01*
X160453608Y-65141987D01*
X160467627Y-65188201D01*
X160499410Y-65292977D01*
X160511000Y-65410655D01*
X160511000Y-66489345D01*
X160499410Y-66607023D01*
X160486251Y-66650401D01*
X160453608Y-66758013D01*
X160379229Y-66897165D01*
X160279133Y-67019133D01*
X160157165Y-67119229D01*
X160018013Y-67193608D01*
X159967682Y-67208875D01*
X159867023Y-67239410D01*
X159710000Y-67254875D01*
X159552978Y-67239410D01*
X159452319Y-67208875D01*
X159401988Y-67193608D01*
X159262836Y-67119229D01*
X159140868Y-67019133D01*
X159040772Y-66897165D01*
X158966393Y-66758013D01*
X158933750Y-66650401D01*
X158920591Y-66607023D01*
X158909001Y-66489345D01*
X158909000Y-65410656D01*
X158920590Y-65292978D01*
X158966392Y-65141989D01*
X158966392Y-65141988D01*
X159040771Y-65002836D01*
X159060552Y-64978733D01*
X159140867Y-64880867D01*
X159262835Y-64780771D01*
X159337980Y-64740605D01*
X159401987Y-64706392D01*
X159452318Y-64691125D01*
X159552977Y-64660590D01*
X159710000Y-64645125D01*
X159867022Y-64660590D01*
G37*
G36*
X157327022Y-64660590D02*
G01*
X157427681Y-64691125D01*
X157478012Y-64706392D01*
X157542019Y-64740605D01*
X157617164Y-64780771D01*
X157739133Y-64880867D01*
X157819449Y-64978733D01*
X157839229Y-65002835D01*
X157913608Y-65141987D01*
X157927627Y-65188201D01*
X157959410Y-65292977D01*
X157971000Y-65410655D01*
X157971000Y-66489345D01*
X157959410Y-66607023D01*
X157946251Y-66650401D01*
X157913608Y-66758013D01*
X157839229Y-66897165D01*
X157739133Y-67019133D01*
X157617165Y-67119229D01*
X157478013Y-67193608D01*
X157427682Y-67208875D01*
X157327023Y-67239410D01*
X157170000Y-67254875D01*
X157012978Y-67239410D01*
X156912319Y-67208875D01*
X156861988Y-67193608D01*
X156722836Y-67119229D01*
X156600868Y-67019133D01*
X156500772Y-66897165D01*
X156426393Y-66758013D01*
X156393750Y-66650401D01*
X156380591Y-66607023D01*
X156369001Y-66489345D01*
X156369000Y-65410656D01*
X156380590Y-65292978D01*
X156426392Y-65141989D01*
X156426392Y-65141988D01*
X156500771Y-65002836D01*
X156520552Y-64978733D01*
X156600867Y-64880867D01*
X156722835Y-64780771D01*
X156797980Y-64740605D01*
X156861987Y-64706392D01*
X156912318Y-64691125D01*
X157012977Y-64660590D01*
X157170000Y-64645125D01*
X157327022Y-64660590D01*
G37*
G36*
X155431000Y-67251000D02*
G01*
X153829000Y-67251000D01*
X153829000Y-64649000D01*
X155431000Y-64649000D01*
X155431000Y-67251000D01*
G37*
G36*
X141105000Y-64457007D02*
G01*
X141107402Y-64481393D01*
X141114515Y-64504842D01*
X141126066Y-64526453D01*
X141141611Y-64545395D01*
X141160553Y-64560940D01*
X141182164Y-64572491D01*
X141205613Y-64579604D01*
X141229999Y-64582006D01*
X141254385Y-64579604D01*
X141277834Y-64572491D01*
X141299445Y-64560940D01*
X141318387Y-64545395D01*
X141333932Y-64526453D01*
X141345483Y-64504842D01*
X141352596Y-64481393D01*
X141387232Y-64307267D01*
X141473996Y-64097799D01*
X141473997Y-64097797D01*
X141599960Y-63909280D01*
X141760280Y-63748960D01*
X141948797Y-63622997D01*
X142158266Y-63536232D01*
X142269451Y-63514116D01*
X142380635Y-63492000D01*
X142607365Y-63492000D01*
X142718549Y-63514116D01*
X142829734Y-63536232D01*
X143039203Y-63622997D01*
X143227720Y-63748960D01*
X143388040Y-63909280D01*
X143514003Y-64097797D01*
X143600768Y-64307266D01*
X143645000Y-64529636D01*
X143645000Y-64756364D01*
X143600768Y-64978734D01*
X143539416Y-65126850D01*
X143533146Y-65141989D01*
X143514003Y-65188203D01*
X143388040Y-65376720D01*
X143227720Y-65537040D01*
X143039203Y-65663003D01*
X142829734Y-65749768D01*
X142718549Y-65771884D01*
X142607365Y-65794000D01*
X142380635Y-65794000D01*
X142269451Y-65771884D01*
X142158266Y-65749768D01*
X141948797Y-65663003D01*
X141760280Y-65537040D01*
X141599960Y-65376720D01*
X141473997Y-65188203D01*
X141454855Y-65141989D01*
X141448584Y-65126850D01*
X141387232Y-64978734D01*
X141352596Y-64804607D01*
X141345483Y-64781158D01*
X141333932Y-64759547D01*
X141318387Y-64740605D01*
X141299445Y-64725060D01*
X141277834Y-64713509D01*
X141254385Y-64706396D01*
X141229999Y-64703994D01*
X141205613Y-64706396D01*
X141182164Y-64713509D01*
X141160553Y-64725060D01*
X141141611Y-64740605D01*
X141126066Y-64759547D01*
X141114515Y-64781158D01*
X141107402Y-64804607D01*
X141105000Y-64828993D01*
X141105000Y-65794000D01*
X138803000Y-65794000D01*
X138803000Y-63492000D01*
X141105000Y-63492000D01*
X141105000Y-64457007D01*
G37*
G36*
X126627000Y-64457007D02*
G01*
X126629402Y-64481393D01*
X126636515Y-64504842D01*
X126648066Y-64526453D01*
X126663611Y-64545395D01*
X126682553Y-64560940D01*
X126704164Y-64572491D01*
X126727613Y-64579604D01*
X126751999Y-64582006D01*
X126776385Y-64579604D01*
X126799834Y-64572491D01*
X126821445Y-64560940D01*
X126840387Y-64545395D01*
X126855932Y-64526453D01*
X126867483Y-64504842D01*
X126874596Y-64481393D01*
X126909232Y-64307267D01*
X126995996Y-64097799D01*
X126995997Y-64097797D01*
X127121960Y-63909280D01*
X127282280Y-63748960D01*
X127470797Y-63622997D01*
X127680266Y-63536232D01*
X127791451Y-63514116D01*
X127902635Y-63492000D01*
X128129365Y-63492000D01*
X128240549Y-63514116D01*
X128351734Y-63536232D01*
X128561203Y-63622997D01*
X128749720Y-63748960D01*
X128910040Y-63909280D01*
X129036003Y-64097797D01*
X129036004Y-64097799D01*
X129122768Y-64307267D01*
X129163403Y-64511552D01*
X129170516Y-64535001D01*
X129182067Y-64556612D01*
X129197612Y-64575554D01*
X129216554Y-64591099D01*
X129238165Y-64602650D01*
X129261614Y-64609763D01*
X129286000Y-64612165D01*
X129310386Y-64609763D01*
X129333835Y-64602650D01*
X129355446Y-64591099D01*
X129374388Y-64575554D01*
X129389933Y-64556612D01*
X129401484Y-64535001D01*
X129408597Y-64511552D01*
X129449232Y-64307267D01*
X129535996Y-64097799D01*
X129535997Y-64097797D01*
X129661960Y-63909280D01*
X129822280Y-63748960D01*
X130010797Y-63622997D01*
X130220266Y-63536232D01*
X130331451Y-63514116D01*
X130442635Y-63492000D01*
X130669365Y-63492000D01*
X130780549Y-63514116D01*
X130891734Y-63536232D01*
X131101203Y-63622997D01*
X131289720Y-63748960D01*
X131450040Y-63909280D01*
X131576003Y-64097797D01*
X131576004Y-64097799D01*
X131662768Y-64307267D01*
X131703403Y-64511552D01*
X131710516Y-64535001D01*
X131722067Y-64556612D01*
X131737612Y-64575554D01*
X131756554Y-64591099D01*
X131778165Y-64602650D01*
X131801614Y-64609763D01*
X131826000Y-64612165D01*
X131850386Y-64609763D01*
X131873835Y-64602650D01*
X131895446Y-64591099D01*
X131914388Y-64575554D01*
X131929933Y-64556612D01*
X131941484Y-64535001D01*
X131948597Y-64511552D01*
X131989232Y-64307267D01*
X132075996Y-64097799D01*
X132075997Y-64097797D01*
X132201960Y-63909280D01*
X132362280Y-63748960D01*
X132550797Y-63622997D01*
X132760266Y-63536232D01*
X132871451Y-63514116D01*
X132982635Y-63492000D01*
X133209365Y-63492000D01*
X133320549Y-63514116D01*
X133431734Y-63536232D01*
X133641203Y-63622997D01*
X133829720Y-63748960D01*
X133990040Y-63909280D01*
X134116003Y-64097797D01*
X134116004Y-64097799D01*
X134202768Y-64307267D01*
X134243403Y-64511552D01*
X134250516Y-64535001D01*
X134262067Y-64556612D01*
X134277612Y-64575554D01*
X134296554Y-64591099D01*
X134318165Y-64602650D01*
X134341614Y-64609763D01*
X134366000Y-64612165D01*
X134390386Y-64609763D01*
X134413835Y-64602650D01*
X134435446Y-64591099D01*
X134454388Y-64575554D01*
X134469933Y-64556612D01*
X134481484Y-64535001D01*
X134488597Y-64511552D01*
X134529232Y-64307267D01*
X134615996Y-64097799D01*
X134615997Y-64097797D01*
X134741960Y-63909280D01*
X134902280Y-63748960D01*
X135090797Y-63622997D01*
X135300266Y-63536232D01*
X135411451Y-63514116D01*
X135522635Y-63492000D01*
X135749365Y-63492000D01*
X135860549Y-63514116D01*
X135971734Y-63536232D01*
X136181203Y-63622997D01*
X136369720Y-63748960D01*
X136530040Y-63909280D01*
X136656003Y-64097797D01*
X136742768Y-64307266D01*
X136787000Y-64529636D01*
X136787000Y-64756364D01*
X136742768Y-64978734D01*
X136681416Y-65126850D01*
X136675146Y-65141989D01*
X136656003Y-65188203D01*
X136530040Y-65376720D01*
X136369720Y-65537040D01*
X136181203Y-65663003D01*
X135971734Y-65749768D01*
X135860549Y-65771884D01*
X135749365Y-65794000D01*
X135522635Y-65794000D01*
X135411451Y-65771884D01*
X135300266Y-65749768D01*
X135090797Y-65663003D01*
X134902280Y-65537040D01*
X134741960Y-65376720D01*
X134615997Y-65188203D01*
X134596855Y-65141989D01*
X134590584Y-65126850D01*
X134529232Y-64978734D01*
X134488597Y-64774448D01*
X134481484Y-64750999D01*
X134469933Y-64729388D01*
X134454388Y-64710446D01*
X134435446Y-64694901D01*
X134413835Y-64683350D01*
X134390386Y-64676237D01*
X134366000Y-64673835D01*
X134341614Y-64676237D01*
X134318165Y-64683350D01*
X134296554Y-64694901D01*
X134277612Y-64710446D01*
X134262067Y-64729388D01*
X134250516Y-64750999D01*
X134243403Y-64774448D01*
X134202768Y-64978734D01*
X134141416Y-65126850D01*
X134135146Y-65141989D01*
X134116003Y-65188203D01*
X133990040Y-65376720D01*
X133829720Y-65537040D01*
X133641203Y-65663003D01*
X133431734Y-65749768D01*
X133320549Y-65771884D01*
X133209365Y-65794000D01*
X132982635Y-65794000D01*
X132871451Y-65771884D01*
X132760266Y-65749768D01*
X132550797Y-65663003D01*
X132362280Y-65537040D01*
X132201960Y-65376720D01*
X132075997Y-65188203D01*
X132056855Y-65141989D01*
X132050584Y-65126850D01*
X131989232Y-64978734D01*
X131948597Y-64774448D01*
X131941484Y-64750999D01*
X131929933Y-64729388D01*
X131914388Y-64710446D01*
X131895446Y-64694901D01*
X131873835Y-64683350D01*
X131850386Y-64676237D01*
X131826000Y-64673835D01*
X131801614Y-64676237D01*
X131778165Y-64683350D01*
X131756554Y-64694901D01*
X131737612Y-64710446D01*
X131722067Y-64729388D01*
X131710516Y-64750999D01*
X131703403Y-64774448D01*
X131662768Y-64978734D01*
X131601416Y-65126850D01*
X131595146Y-65141989D01*
X131576003Y-65188203D01*
X131450040Y-65376720D01*
X131289720Y-65537040D01*
X131101203Y-65663003D01*
X130891734Y-65749768D01*
X130780549Y-65771884D01*
X130669365Y-65794000D01*
X130442635Y-65794000D01*
X130331451Y-65771884D01*
X130220266Y-65749768D01*
X130010797Y-65663003D01*
X129822280Y-65537040D01*
X129661960Y-65376720D01*
X129535997Y-65188203D01*
X129516855Y-65141989D01*
X129510584Y-65126850D01*
X129449232Y-64978734D01*
X129408597Y-64774448D01*
X129401484Y-64750999D01*
X129389933Y-64729388D01*
X129374388Y-64710446D01*
X129355446Y-64694901D01*
X129333835Y-64683350D01*
X129310386Y-64676237D01*
X129286000Y-64673835D01*
X129261614Y-64676237D01*
X129238165Y-64683350D01*
X129216554Y-64694901D01*
X129197612Y-64710446D01*
X129182067Y-64729388D01*
X129170516Y-64750999D01*
X129163403Y-64774448D01*
X129122768Y-64978734D01*
X129061416Y-65126850D01*
X129055146Y-65141989D01*
X129036003Y-65188203D01*
X128910040Y-65376720D01*
X128749720Y-65537040D01*
X128561203Y-65663003D01*
X128351734Y-65749768D01*
X128240549Y-65771884D01*
X128129365Y-65794000D01*
X127902635Y-65794000D01*
X127791451Y-65771884D01*
X127680266Y-65749768D01*
X127470797Y-65663003D01*
X127282280Y-65537040D01*
X127121960Y-65376720D01*
X126995997Y-65188203D01*
X126976855Y-65141989D01*
X126970584Y-65126850D01*
X126909232Y-64978734D01*
X126874596Y-64804607D01*
X126867483Y-64781158D01*
X126855932Y-64759547D01*
X126840387Y-64740605D01*
X126821445Y-64725060D01*
X126799834Y-64713509D01*
X126776385Y-64706396D01*
X126751999Y-64703994D01*
X126727613Y-64706396D01*
X126704164Y-64713509D01*
X126682553Y-64725060D01*
X126663611Y-64740605D01*
X126648066Y-64759547D01*
X126636515Y-64781158D01*
X126629402Y-64804607D01*
X126627000Y-64828993D01*
X126627000Y-65794000D01*
X124325000Y-65794000D01*
X124325000Y-63492000D01*
X126627000Y-63492000D01*
X126627000Y-64457007D01*
G37*
M02*
