G04 #@! TF.GenerationSoftware,KiCad,Pcbnew,(5.1.5)-3*
G04 #@! TF.CreationDate,2020-10-20T09:52:33-06:00*
G04 #@! TF.ProjectId,ComputationalPrototype,436f6d70-7574-4617-9469-6f6e616c5072,rev?*
G04 #@! TF.SameCoordinates,Original*
G04 #@! TF.FileFunction,Soldermask,Top*
G04 #@! TF.FilePolarity,Negative*
%FSLAX46Y46*%
G04 Gerber Fmt 4.6, Leading zero omitted, Abs format (unit mm)*
G04 Created by KiCad (PCBNEW (5.1.5)-3) date 2020-10-20 09:52:33*
%MOMM*%
%LPD*%
G04 APERTURE LIST*
%ADD10C,0.100000*%
G04 APERTURE END LIST*
D10*
G36*
X166988674Y-122773465D02*
G01*
X167026367Y-122784899D01*
X167061103Y-122803466D01*
X167091548Y-122828452D01*
X167116534Y-122858897D01*
X167135101Y-122893633D01*
X167146535Y-122931326D01*
X167151000Y-122976661D01*
X167151000Y-124063339D01*
X167146535Y-124108674D01*
X167135101Y-124146367D01*
X167116534Y-124181103D01*
X167091548Y-124211548D01*
X167061103Y-124236534D01*
X167026367Y-124255101D01*
X166988674Y-124266535D01*
X166943339Y-124271000D01*
X166106661Y-124271000D01*
X166061326Y-124266535D01*
X166023633Y-124255101D01*
X165988897Y-124236534D01*
X165958452Y-124211548D01*
X165933466Y-124181103D01*
X165914899Y-124146367D01*
X165903465Y-124108674D01*
X165899000Y-124063339D01*
X165899000Y-122976661D01*
X165903465Y-122931326D01*
X165914899Y-122893633D01*
X165933466Y-122858897D01*
X165958452Y-122828452D01*
X165988897Y-122803466D01*
X166023633Y-122784899D01*
X166061326Y-122773465D01*
X166106661Y-122769000D01*
X166943339Y-122769000D01*
X166988674Y-122773465D01*
G37*
G36*
X164938674Y-122773465D02*
G01*
X164976367Y-122784899D01*
X165011103Y-122803466D01*
X165041548Y-122828452D01*
X165066534Y-122858897D01*
X165085101Y-122893633D01*
X165096535Y-122931326D01*
X165101000Y-122976661D01*
X165101000Y-124063339D01*
X165096535Y-124108674D01*
X165085101Y-124146367D01*
X165066534Y-124181103D01*
X165041548Y-124211548D01*
X165011103Y-124236534D01*
X164976367Y-124255101D01*
X164938674Y-124266535D01*
X164893339Y-124271000D01*
X164056661Y-124271000D01*
X164011326Y-124266535D01*
X163973633Y-124255101D01*
X163938897Y-124236534D01*
X163908452Y-124211548D01*
X163883466Y-124181103D01*
X163864899Y-124146367D01*
X163853465Y-124108674D01*
X163849000Y-124063339D01*
X163849000Y-122976661D01*
X163853465Y-122931326D01*
X163864899Y-122893633D01*
X163883466Y-122858897D01*
X163908452Y-122828452D01*
X163938897Y-122803466D01*
X163973633Y-122784899D01*
X164011326Y-122773465D01*
X164056661Y-122769000D01*
X164893339Y-122769000D01*
X164938674Y-122773465D01*
G37*
G36*
X155806564Y-122009389D02*
G01*
X155979697Y-122081103D01*
X155997835Y-122088616D01*
X156169973Y-122203635D01*
X156316365Y-122350027D01*
X156397207Y-122471015D01*
X156431385Y-122522167D01*
X156510611Y-122713436D01*
X156551000Y-122916484D01*
X156551000Y-123123516D01*
X156510611Y-123326564D01*
X156431385Y-123517833D01*
X156431384Y-123517835D01*
X156316365Y-123689973D01*
X156169973Y-123836365D01*
X155997835Y-123951384D01*
X155997834Y-123951385D01*
X155997833Y-123951385D01*
X155806564Y-124030611D01*
X155603516Y-124071000D01*
X155396484Y-124071000D01*
X155193436Y-124030611D01*
X155002167Y-123951385D01*
X155002166Y-123951385D01*
X155002165Y-123951384D01*
X154830027Y-123836365D01*
X154683635Y-123689973D01*
X154568616Y-123517835D01*
X154568615Y-123517833D01*
X154489389Y-123326564D01*
X154449000Y-123123516D01*
X154449000Y-122916484D01*
X154489389Y-122713436D01*
X154568615Y-122522167D01*
X154602794Y-122471015D01*
X154683635Y-122350027D01*
X154830027Y-122203635D01*
X155002165Y-122088616D01*
X155020303Y-122081103D01*
X155193436Y-122009389D01*
X155396484Y-121969000D01*
X155603516Y-121969000D01*
X155806564Y-122009389D01*
G37*
G36*
X139056564Y-122009389D02*
G01*
X139229697Y-122081103D01*
X139247835Y-122088616D01*
X139419973Y-122203635D01*
X139566365Y-122350027D01*
X139647207Y-122471015D01*
X139681385Y-122522167D01*
X139760611Y-122713436D01*
X139801000Y-122916484D01*
X139801000Y-123123516D01*
X139760611Y-123326564D01*
X139681385Y-123517833D01*
X139681384Y-123517835D01*
X139566365Y-123689973D01*
X139419973Y-123836365D01*
X139247835Y-123951384D01*
X139247834Y-123951385D01*
X139247833Y-123951385D01*
X139056564Y-124030611D01*
X138853516Y-124071000D01*
X138646484Y-124071000D01*
X138443436Y-124030611D01*
X138252167Y-123951385D01*
X138252166Y-123951385D01*
X138252165Y-123951384D01*
X138080027Y-123836365D01*
X137933635Y-123689973D01*
X137818616Y-123517835D01*
X137818615Y-123517833D01*
X137739389Y-123326564D01*
X137699000Y-123123516D01*
X137699000Y-122916484D01*
X137739389Y-122713436D01*
X137818615Y-122522167D01*
X137852794Y-122471015D01*
X137933635Y-122350027D01*
X138080027Y-122203635D01*
X138252165Y-122088616D01*
X138270303Y-122081103D01*
X138443436Y-122009389D01*
X138646484Y-121969000D01*
X138853516Y-121969000D01*
X139056564Y-122009389D01*
G37*
G36*
X145556564Y-122009389D02*
G01*
X145729697Y-122081103D01*
X145747835Y-122088616D01*
X145919973Y-122203635D01*
X146066365Y-122350027D01*
X146147207Y-122471015D01*
X146181385Y-122522167D01*
X146260611Y-122713436D01*
X146301000Y-122916484D01*
X146301000Y-123123516D01*
X146260611Y-123326564D01*
X146181385Y-123517833D01*
X146181384Y-123517835D01*
X146066365Y-123689973D01*
X145919973Y-123836365D01*
X145747835Y-123951384D01*
X145747834Y-123951385D01*
X145747833Y-123951385D01*
X145556564Y-124030611D01*
X145353516Y-124071000D01*
X145146484Y-124071000D01*
X144943436Y-124030611D01*
X144752167Y-123951385D01*
X144752166Y-123951385D01*
X144752165Y-123951384D01*
X144580027Y-123836365D01*
X144433635Y-123689973D01*
X144318616Y-123517835D01*
X144318615Y-123517833D01*
X144239389Y-123326564D01*
X144199000Y-123123516D01*
X144199000Y-122916484D01*
X144239389Y-122713436D01*
X144318615Y-122522167D01*
X144352794Y-122471015D01*
X144433635Y-122350027D01*
X144580027Y-122203635D01*
X144752165Y-122088616D01*
X144770303Y-122081103D01*
X144943436Y-122009389D01*
X145146484Y-121969000D01*
X145353516Y-121969000D01*
X145556564Y-122009389D01*
G37*
G36*
X149306564Y-122009389D02*
G01*
X149479697Y-122081103D01*
X149497835Y-122088616D01*
X149669973Y-122203635D01*
X149816365Y-122350027D01*
X149897207Y-122471015D01*
X149931385Y-122522167D01*
X150010611Y-122713436D01*
X150051000Y-122916484D01*
X150051000Y-123123516D01*
X150010611Y-123326564D01*
X149931385Y-123517833D01*
X149931384Y-123517835D01*
X149816365Y-123689973D01*
X149669973Y-123836365D01*
X149497835Y-123951384D01*
X149497834Y-123951385D01*
X149497833Y-123951385D01*
X149306564Y-124030611D01*
X149103516Y-124071000D01*
X148896484Y-124071000D01*
X148693436Y-124030611D01*
X148502167Y-123951385D01*
X148502166Y-123951385D01*
X148502165Y-123951384D01*
X148330027Y-123836365D01*
X148183635Y-123689973D01*
X148068616Y-123517835D01*
X148068615Y-123517833D01*
X147989389Y-123326564D01*
X147949000Y-123123516D01*
X147949000Y-122916484D01*
X147989389Y-122713436D01*
X148068615Y-122522167D01*
X148102794Y-122471015D01*
X148183635Y-122350027D01*
X148330027Y-122203635D01*
X148502165Y-122088616D01*
X148520303Y-122081103D01*
X148693436Y-122009389D01*
X148896484Y-121969000D01*
X149103516Y-121969000D01*
X149306564Y-122009389D01*
G37*
G36*
X132618228Y-120991703D02*
G01*
X132773100Y-121055853D01*
X132912481Y-121148985D01*
X133031015Y-121267519D01*
X133124147Y-121406900D01*
X133188297Y-121561772D01*
X133221000Y-121726184D01*
X133221000Y-121893816D01*
X133188297Y-122058228D01*
X133124147Y-122213100D01*
X133031015Y-122352481D01*
X132912481Y-122471015D01*
X132773100Y-122564147D01*
X132618228Y-122628297D01*
X132453816Y-122661000D01*
X132286184Y-122661000D01*
X132121772Y-122628297D01*
X131966900Y-122564147D01*
X131827519Y-122471015D01*
X131708985Y-122352481D01*
X131615853Y-122213100D01*
X131551703Y-122058228D01*
X131519000Y-121893816D01*
X131519000Y-121726184D01*
X131551703Y-121561772D01*
X131615853Y-121406900D01*
X131708985Y-121267519D01*
X131827519Y-121148985D01*
X131966900Y-121055853D01*
X132121772Y-120991703D01*
X132286184Y-120959000D01*
X132453816Y-120959000D01*
X132618228Y-120991703D01*
G37*
G36*
X124998228Y-120991703D02*
G01*
X125153100Y-121055853D01*
X125292481Y-121148985D01*
X125411015Y-121267519D01*
X125504147Y-121406900D01*
X125568297Y-121561772D01*
X125601000Y-121726184D01*
X125601000Y-121893816D01*
X125568297Y-122058228D01*
X125504147Y-122213100D01*
X125411015Y-122352481D01*
X125292481Y-122471015D01*
X125153100Y-122564147D01*
X124998228Y-122628297D01*
X124833816Y-122661000D01*
X124666184Y-122661000D01*
X124501772Y-122628297D01*
X124346900Y-122564147D01*
X124207519Y-122471015D01*
X124088985Y-122352481D01*
X123995853Y-122213100D01*
X123931703Y-122058228D01*
X123899000Y-121893816D01*
X123899000Y-121726184D01*
X123931703Y-121561772D01*
X123995853Y-121406900D01*
X124088985Y-121267519D01*
X124207519Y-121148985D01*
X124346900Y-121055853D01*
X124501772Y-120991703D01*
X124666184Y-120959000D01*
X124833816Y-120959000D01*
X124998228Y-120991703D01*
G37*
G36*
X164838674Y-120923465D02*
G01*
X164876367Y-120934899D01*
X164911103Y-120953466D01*
X164941548Y-120978452D01*
X164966534Y-121008897D01*
X164985101Y-121043633D01*
X164996535Y-121081326D01*
X165001000Y-121126661D01*
X165001000Y-121963339D01*
X164996535Y-122008674D01*
X164985101Y-122046367D01*
X164966534Y-122081103D01*
X164941548Y-122111548D01*
X164911103Y-122136534D01*
X164876367Y-122155101D01*
X164838674Y-122166535D01*
X164793339Y-122171000D01*
X163706661Y-122171000D01*
X163661326Y-122166535D01*
X163623633Y-122155101D01*
X163588897Y-122136534D01*
X163558452Y-122111548D01*
X163533466Y-122081103D01*
X163514899Y-122046367D01*
X163503465Y-122008674D01*
X163499000Y-121963339D01*
X163499000Y-121126661D01*
X163503465Y-121081326D01*
X163514899Y-121043633D01*
X163533466Y-121008897D01*
X163558452Y-120978452D01*
X163588897Y-120953466D01*
X163623633Y-120934899D01*
X163661326Y-120923465D01*
X163706661Y-120919000D01*
X164793339Y-120919000D01*
X164838674Y-120923465D01*
G37*
G36*
X167088674Y-120923465D02*
G01*
X167126367Y-120934899D01*
X167161103Y-120953466D01*
X167191548Y-120978452D01*
X167216534Y-121008897D01*
X167235101Y-121043633D01*
X167246535Y-121081326D01*
X167251000Y-121126661D01*
X167251000Y-121963339D01*
X167246535Y-122008674D01*
X167235101Y-122046367D01*
X167216534Y-122081103D01*
X167191548Y-122111548D01*
X167161103Y-122136534D01*
X167126367Y-122155101D01*
X167088674Y-122166535D01*
X167043339Y-122171000D01*
X165956661Y-122171000D01*
X165911326Y-122166535D01*
X165873633Y-122155101D01*
X165838897Y-122136534D01*
X165808452Y-122111548D01*
X165783466Y-122081103D01*
X165764899Y-122046367D01*
X165753465Y-122008674D01*
X165749000Y-121963339D01*
X165749000Y-121126661D01*
X165753465Y-121081326D01*
X165764899Y-121043633D01*
X165783466Y-121008897D01*
X165808452Y-120978452D01*
X165838897Y-120953466D01*
X165873633Y-120934899D01*
X165911326Y-120923465D01*
X165956661Y-120919000D01*
X167043339Y-120919000D01*
X167088674Y-120923465D01*
G37*
G36*
X169338674Y-120923465D02*
G01*
X169376367Y-120934899D01*
X169411103Y-120953466D01*
X169441548Y-120978452D01*
X169466534Y-121008897D01*
X169485101Y-121043633D01*
X169496535Y-121081326D01*
X169501000Y-121126661D01*
X169501000Y-121963339D01*
X169496535Y-122008674D01*
X169485101Y-122046367D01*
X169466534Y-122081103D01*
X169441548Y-122111548D01*
X169411103Y-122136534D01*
X169376367Y-122155101D01*
X169338674Y-122166535D01*
X169293339Y-122171000D01*
X168206661Y-122171000D01*
X168161326Y-122166535D01*
X168123633Y-122155101D01*
X168088897Y-122136534D01*
X168058452Y-122111548D01*
X168033466Y-122081103D01*
X168014899Y-122046367D01*
X168003465Y-122008674D01*
X167999000Y-121963339D01*
X167999000Y-121126661D01*
X168003465Y-121081326D01*
X168014899Y-121043633D01*
X168033466Y-121008897D01*
X168058452Y-120978452D01*
X168088897Y-120953466D01*
X168123633Y-120934899D01*
X168161326Y-120923465D01*
X168206661Y-120919000D01*
X169293339Y-120919000D01*
X169338674Y-120923465D01*
G37*
G36*
X162588674Y-120923465D02*
G01*
X162626367Y-120934899D01*
X162661103Y-120953466D01*
X162691548Y-120978452D01*
X162716534Y-121008897D01*
X162735101Y-121043633D01*
X162746535Y-121081326D01*
X162751000Y-121126661D01*
X162751000Y-121963339D01*
X162746535Y-122008674D01*
X162735101Y-122046367D01*
X162716534Y-122081103D01*
X162691548Y-122111548D01*
X162661103Y-122136534D01*
X162626367Y-122155101D01*
X162588674Y-122166535D01*
X162543339Y-122171000D01*
X161456661Y-122171000D01*
X161411326Y-122166535D01*
X161373633Y-122155101D01*
X161338897Y-122136534D01*
X161308452Y-122111548D01*
X161283466Y-122081103D01*
X161264899Y-122046367D01*
X161253465Y-122008674D01*
X161249000Y-121963339D01*
X161249000Y-121126661D01*
X161253465Y-121081326D01*
X161264899Y-121043633D01*
X161283466Y-121008897D01*
X161308452Y-120978452D01*
X161338897Y-120953466D01*
X161373633Y-120934899D01*
X161411326Y-120923465D01*
X161456661Y-120919000D01*
X162543339Y-120919000D01*
X162588674Y-120923465D01*
G37*
G36*
X160338674Y-120923465D02*
G01*
X160376367Y-120934899D01*
X160411103Y-120953466D01*
X160441548Y-120978452D01*
X160466534Y-121008897D01*
X160485101Y-121043633D01*
X160496535Y-121081326D01*
X160501000Y-121126661D01*
X160501000Y-121963339D01*
X160496535Y-122008674D01*
X160485101Y-122046367D01*
X160466534Y-122081103D01*
X160441548Y-122111548D01*
X160411103Y-122136534D01*
X160376367Y-122155101D01*
X160338674Y-122166535D01*
X160293339Y-122171000D01*
X159206661Y-122171000D01*
X159161326Y-122166535D01*
X159123633Y-122155101D01*
X159088897Y-122136534D01*
X159058452Y-122111548D01*
X159033466Y-122081103D01*
X159014899Y-122046367D01*
X159003465Y-122008674D01*
X158999000Y-121963339D01*
X158999000Y-121126661D01*
X159003465Y-121081326D01*
X159014899Y-121043633D01*
X159033466Y-121008897D01*
X159058452Y-120978452D01*
X159088897Y-120953466D01*
X159123633Y-120934899D01*
X159161326Y-120923465D01*
X159206661Y-120919000D01*
X160293339Y-120919000D01*
X160338674Y-120923465D01*
G37*
G36*
X162588674Y-118873465D02*
G01*
X162626367Y-118884899D01*
X162661103Y-118903466D01*
X162691548Y-118928452D01*
X162716534Y-118958897D01*
X162735101Y-118993633D01*
X162746535Y-119031326D01*
X162751000Y-119076661D01*
X162751000Y-119913339D01*
X162746535Y-119958674D01*
X162735101Y-119996367D01*
X162716534Y-120031103D01*
X162691548Y-120061548D01*
X162661103Y-120086534D01*
X162626367Y-120105101D01*
X162588674Y-120116535D01*
X162543339Y-120121000D01*
X161456661Y-120121000D01*
X161411326Y-120116535D01*
X161373633Y-120105101D01*
X161338897Y-120086534D01*
X161308452Y-120061548D01*
X161283466Y-120031103D01*
X161264899Y-119996367D01*
X161253465Y-119958674D01*
X161249000Y-119913339D01*
X161249000Y-119076661D01*
X161253465Y-119031326D01*
X161264899Y-118993633D01*
X161283466Y-118958897D01*
X161308452Y-118928452D01*
X161338897Y-118903466D01*
X161373633Y-118884899D01*
X161411326Y-118873465D01*
X161456661Y-118869000D01*
X162543339Y-118869000D01*
X162588674Y-118873465D01*
G37*
G36*
X164838674Y-118873465D02*
G01*
X164876367Y-118884899D01*
X164911103Y-118903466D01*
X164941548Y-118928452D01*
X164966534Y-118958897D01*
X164985101Y-118993633D01*
X164996535Y-119031326D01*
X165001000Y-119076661D01*
X165001000Y-119913339D01*
X164996535Y-119958674D01*
X164985101Y-119996367D01*
X164966534Y-120031103D01*
X164941548Y-120061548D01*
X164911103Y-120086534D01*
X164876367Y-120105101D01*
X164838674Y-120116535D01*
X164793339Y-120121000D01*
X163706661Y-120121000D01*
X163661326Y-120116535D01*
X163623633Y-120105101D01*
X163588897Y-120086534D01*
X163558452Y-120061548D01*
X163533466Y-120031103D01*
X163514899Y-119996367D01*
X163503465Y-119958674D01*
X163499000Y-119913339D01*
X163499000Y-119076661D01*
X163503465Y-119031326D01*
X163514899Y-118993633D01*
X163533466Y-118958897D01*
X163558452Y-118928452D01*
X163588897Y-118903466D01*
X163623633Y-118884899D01*
X163661326Y-118873465D01*
X163706661Y-118869000D01*
X164793339Y-118869000D01*
X164838674Y-118873465D01*
G37*
G36*
X167088674Y-118873465D02*
G01*
X167126367Y-118884899D01*
X167161103Y-118903466D01*
X167191548Y-118928452D01*
X167216534Y-118958897D01*
X167235101Y-118993633D01*
X167246535Y-119031326D01*
X167251000Y-119076661D01*
X167251000Y-119913339D01*
X167246535Y-119958674D01*
X167235101Y-119996367D01*
X167216534Y-120031103D01*
X167191548Y-120061548D01*
X167161103Y-120086534D01*
X167126367Y-120105101D01*
X167088674Y-120116535D01*
X167043339Y-120121000D01*
X165956661Y-120121000D01*
X165911326Y-120116535D01*
X165873633Y-120105101D01*
X165838897Y-120086534D01*
X165808452Y-120061548D01*
X165783466Y-120031103D01*
X165764899Y-119996367D01*
X165753465Y-119958674D01*
X165749000Y-119913339D01*
X165749000Y-119076661D01*
X165753465Y-119031326D01*
X165764899Y-118993633D01*
X165783466Y-118958897D01*
X165808452Y-118928452D01*
X165838897Y-118903466D01*
X165873633Y-118884899D01*
X165911326Y-118873465D01*
X165956661Y-118869000D01*
X167043339Y-118869000D01*
X167088674Y-118873465D01*
G37*
G36*
X169338674Y-118873465D02*
G01*
X169376367Y-118884899D01*
X169411103Y-118903466D01*
X169441548Y-118928452D01*
X169466534Y-118958897D01*
X169485101Y-118993633D01*
X169496535Y-119031326D01*
X169501000Y-119076661D01*
X169501000Y-119913339D01*
X169496535Y-119958674D01*
X169485101Y-119996367D01*
X169466534Y-120031103D01*
X169441548Y-120061548D01*
X169411103Y-120086534D01*
X169376367Y-120105101D01*
X169338674Y-120116535D01*
X169293339Y-120121000D01*
X168206661Y-120121000D01*
X168161326Y-120116535D01*
X168123633Y-120105101D01*
X168088897Y-120086534D01*
X168058452Y-120061548D01*
X168033466Y-120031103D01*
X168014899Y-119996367D01*
X168003465Y-119958674D01*
X167999000Y-119913339D01*
X167999000Y-119076661D01*
X168003465Y-119031326D01*
X168014899Y-118993633D01*
X168033466Y-118958897D01*
X168058452Y-118928452D01*
X168088897Y-118903466D01*
X168123633Y-118884899D01*
X168161326Y-118873465D01*
X168206661Y-118869000D01*
X169293339Y-118869000D01*
X169338674Y-118873465D01*
G37*
G36*
X160338674Y-118873465D02*
G01*
X160376367Y-118884899D01*
X160411103Y-118903466D01*
X160441548Y-118928452D01*
X160466534Y-118958897D01*
X160485101Y-118993633D01*
X160496535Y-119031326D01*
X160501000Y-119076661D01*
X160501000Y-119913339D01*
X160496535Y-119958674D01*
X160485101Y-119996367D01*
X160466534Y-120031103D01*
X160441548Y-120061548D01*
X160411103Y-120086534D01*
X160376367Y-120105101D01*
X160338674Y-120116535D01*
X160293339Y-120121000D01*
X159206661Y-120121000D01*
X159161326Y-120116535D01*
X159123633Y-120105101D01*
X159088897Y-120086534D01*
X159058452Y-120061548D01*
X159033466Y-120031103D01*
X159014899Y-119996367D01*
X159003465Y-119958674D01*
X158999000Y-119913339D01*
X158999000Y-119076661D01*
X159003465Y-119031326D01*
X159014899Y-118993633D01*
X159033466Y-118958897D01*
X159058452Y-118928452D01*
X159088897Y-118903466D01*
X159123633Y-118884899D01*
X159161326Y-118873465D01*
X159206661Y-118869000D01*
X160293339Y-118869000D01*
X160338674Y-118873465D01*
G37*
G36*
X125601000Y-120121000D02*
G01*
X123899000Y-120121000D01*
X123899000Y-118419000D01*
X125601000Y-118419000D01*
X125601000Y-120121000D01*
G37*
G36*
X132618228Y-118451703D02*
G01*
X132773100Y-118515853D01*
X132912481Y-118608985D01*
X133031015Y-118727519D01*
X133124147Y-118866900D01*
X133188297Y-119021772D01*
X133221000Y-119186184D01*
X133221000Y-119353816D01*
X133188297Y-119518228D01*
X133124147Y-119673100D01*
X133031015Y-119812481D01*
X132912481Y-119931015D01*
X132773100Y-120024147D01*
X132618228Y-120088297D01*
X132453816Y-120121000D01*
X132286184Y-120121000D01*
X132121772Y-120088297D01*
X131966900Y-120024147D01*
X131827519Y-119931015D01*
X131708985Y-119812481D01*
X131615853Y-119673100D01*
X131551703Y-119518228D01*
X131519000Y-119353816D01*
X131519000Y-119186184D01*
X131551703Y-119021772D01*
X131615853Y-118866900D01*
X131708985Y-118727519D01*
X131827519Y-118608985D01*
X131966900Y-118515853D01*
X132121772Y-118451703D01*
X132286184Y-118419000D01*
X132453816Y-118419000D01*
X132618228Y-118451703D01*
G37*
G36*
X139056564Y-117509389D02*
G01*
X139247833Y-117588615D01*
X139247835Y-117588616D01*
X139419973Y-117703635D01*
X139566365Y-117850027D01*
X139672370Y-118008674D01*
X139681385Y-118022167D01*
X139760611Y-118213436D01*
X139801000Y-118416484D01*
X139801000Y-118623516D01*
X139760611Y-118826564D01*
X139691409Y-118993633D01*
X139681384Y-119017835D01*
X139566365Y-119189973D01*
X139419973Y-119336365D01*
X139247835Y-119451384D01*
X139247834Y-119451385D01*
X139247833Y-119451385D01*
X139056564Y-119530611D01*
X138853516Y-119571000D01*
X138646484Y-119571000D01*
X138443436Y-119530611D01*
X138252167Y-119451385D01*
X138252166Y-119451385D01*
X138252165Y-119451384D01*
X138080027Y-119336365D01*
X137933635Y-119189973D01*
X137818616Y-119017835D01*
X137808591Y-118993633D01*
X137739389Y-118826564D01*
X137699000Y-118623516D01*
X137699000Y-118416484D01*
X137739389Y-118213436D01*
X137818615Y-118022167D01*
X137827631Y-118008674D01*
X137933635Y-117850027D01*
X138080027Y-117703635D01*
X138252165Y-117588616D01*
X138252167Y-117588615D01*
X138443436Y-117509389D01*
X138646484Y-117469000D01*
X138853516Y-117469000D01*
X139056564Y-117509389D01*
G37*
G36*
X145556564Y-117509389D02*
G01*
X145747833Y-117588615D01*
X145747835Y-117588616D01*
X145919973Y-117703635D01*
X146066365Y-117850027D01*
X146172370Y-118008674D01*
X146181385Y-118022167D01*
X146260611Y-118213436D01*
X146301000Y-118416484D01*
X146301000Y-118623516D01*
X146260611Y-118826564D01*
X146191409Y-118993633D01*
X146181384Y-119017835D01*
X146066365Y-119189973D01*
X145919973Y-119336365D01*
X145747835Y-119451384D01*
X145747834Y-119451385D01*
X145747833Y-119451385D01*
X145556564Y-119530611D01*
X145353516Y-119571000D01*
X145146484Y-119571000D01*
X144943436Y-119530611D01*
X144752167Y-119451385D01*
X144752166Y-119451385D01*
X144752165Y-119451384D01*
X144580027Y-119336365D01*
X144433635Y-119189973D01*
X144318616Y-119017835D01*
X144308591Y-118993633D01*
X144239389Y-118826564D01*
X144199000Y-118623516D01*
X144199000Y-118416484D01*
X144239389Y-118213436D01*
X144318615Y-118022167D01*
X144327631Y-118008674D01*
X144433635Y-117850027D01*
X144580027Y-117703635D01*
X144752165Y-117588616D01*
X144752167Y-117588615D01*
X144943436Y-117509389D01*
X145146484Y-117469000D01*
X145353516Y-117469000D01*
X145556564Y-117509389D01*
G37*
G36*
X155806564Y-117509389D02*
G01*
X155997833Y-117588615D01*
X155997835Y-117588616D01*
X156169973Y-117703635D01*
X156316365Y-117850027D01*
X156422370Y-118008674D01*
X156431385Y-118022167D01*
X156510611Y-118213436D01*
X156551000Y-118416484D01*
X156551000Y-118623516D01*
X156510611Y-118826564D01*
X156441409Y-118993633D01*
X156431384Y-119017835D01*
X156316365Y-119189973D01*
X156169973Y-119336365D01*
X155997835Y-119451384D01*
X155997834Y-119451385D01*
X155997833Y-119451385D01*
X155806564Y-119530611D01*
X155603516Y-119571000D01*
X155396484Y-119571000D01*
X155193436Y-119530611D01*
X155002167Y-119451385D01*
X155002166Y-119451385D01*
X155002165Y-119451384D01*
X154830027Y-119336365D01*
X154683635Y-119189973D01*
X154568616Y-119017835D01*
X154558591Y-118993633D01*
X154489389Y-118826564D01*
X154449000Y-118623516D01*
X154449000Y-118416484D01*
X154489389Y-118213436D01*
X154568615Y-118022167D01*
X154577631Y-118008674D01*
X154683635Y-117850027D01*
X154830027Y-117703635D01*
X155002165Y-117588616D01*
X155002167Y-117588615D01*
X155193436Y-117509389D01*
X155396484Y-117469000D01*
X155603516Y-117469000D01*
X155806564Y-117509389D01*
G37*
G36*
X149306564Y-117509389D02*
G01*
X149497833Y-117588615D01*
X149497835Y-117588616D01*
X149669973Y-117703635D01*
X149816365Y-117850027D01*
X149922370Y-118008674D01*
X149931385Y-118022167D01*
X150010611Y-118213436D01*
X150051000Y-118416484D01*
X150051000Y-118623516D01*
X150010611Y-118826564D01*
X149941409Y-118993633D01*
X149931384Y-119017835D01*
X149816365Y-119189973D01*
X149669973Y-119336365D01*
X149497835Y-119451384D01*
X149497834Y-119451385D01*
X149497833Y-119451385D01*
X149306564Y-119530611D01*
X149103516Y-119571000D01*
X148896484Y-119571000D01*
X148693436Y-119530611D01*
X148502167Y-119451385D01*
X148502166Y-119451385D01*
X148502165Y-119451384D01*
X148330027Y-119336365D01*
X148183635Y-119189973D01*
X148068616Y-119017835D01*
X148058591Y-118993633D01*
X147989389Y-118826564D01*
X147949000Y-118623516D01*
X147949000Y-118416484D01*
X147989389Y-118213436D01*
X148068615Y-118022167D01*
X148077631Y-118008674D01*
X148183635Y-117850027D01*
X148330027Y-117703635D01*
X148502165Y-117588616D01*
X148502167Y-117588615D01*
X148693436Y-117509389D01*
X148896484Y-117469000D01*
X149103516Y-117469000D01*
X149306564Y-117509389D01*
G37*
G36*
X160338674Y-116923465D02*
G01*
X160376367Y-116934899D01*
X160411103Y-116953466D01*
X160441548Y-116978452D01*
X160466534Y-117008897D01*
X160485101Y-117043633D01*
X160496535Y-117081326D01*
X160501000Y-117126661D01*
X160501000Y-117963339D01*
X160496535Y-118008674D01*
X160485101Y-118046367D01*
X160466534Y-118081103D01*
X160441548Y-118111548D01*
X160411103Y-118136534D01*
X160376367Y-118155101D01*
X160338674Y-118166535D01*
X160293339Y-118171000D01*
X159206661Y-118171000D01*
X159161326Y-118166535D01*
X159123633Y-118155101D01*
X159088897Y-118136534D01*
X159058452Y-118111548D01*
X159033466Y-118081103D01*
X159014899Y-118046367D01*
X159003465Y-118008674D01*
X158999000Y-117963339D01*
X158999000Y-117126661D01*
X159003465Y-117081326D01*
X159014899Y-117043633D01*
X159033466Y-117008897D01*
X159058452Y-116978452D01*
X159088897Y-116953466D01*
X159123633Y-116934899D01*
X159161326Y-116923465D01*
X159206661Y-116919000D01*
X160293339Y-116919000D01*
X160338674Y-116923465D01*
G37*
G36*
X165113220Y-115633869D02*
G01*
X165262812Y-115663624D01*
X165426784Y-115731544D01*
X165574354Y-115830147D01*
X165699853Y-115955646D01*
X165798456Y-116103216D01*
X165866376Y-116267188D01*
X165901000Y-116441259D01*
X165901000Y-116618741D01*
X165866376Y-116792812D01*
X165798456Y-116956784D01*
X165699853Y-117104354D01*
X165574354Y-117229853D01*
X165426784Y-117328456D01*
X165262812Y-117396376D01*
X165113512Y-117426073D01*
X165088742Y-117431000D01*
X164911258Y-117431000D01*
X164886488Y-117426073D01*
X164737188Y-117396376D01*
X164573216Y-117328456D01*
X164425646Y-117229853D01*
X164300147Y-117104354D01*
X164201544Y-116956784D01*
X164133624Y-116792812D01*
X164099000Y-116618741D01*
X164099000Y-116441259D01*
X164133624Y-116267188D01*
X164201544Y-116103216D01*
X164300147Y-115955646D01*
X164425646Y-115830147D01*
X164573216Y-115731544D01*
X164737188Y-115663624D01*
X164886780Y-115633869D01*
X164911258Y-115629000D01*
X165088742Y-115629000D01*
X165113220Y-115633869D01*
G37*
G36*
X167653220Y-115633869D02*
G01*
X167802812Y-115663624D01*
X167966784Y-115731544D01*
X168114354Y-115830147D01*
X168239853Y-115955646D01*
X168338456Y-116103216D01*
X168406376Y-116267188D01*
X168441000Y-116441259D01*
X168441000Y-116618741D01*
X168406376Y-116792812D01*
X168338456Y-116956784D01*
X168239853Y-117104354D01*
X168114354Y-117229853D01*
X167966784Y-117328456D01*
X167802812Y-117396376D01*
X167653512Y-117426073D01*
X167628742Y-117431000D01*
X167451258Y-117431000D01*
X167426488Y-117426073D01*
X167277188Y-117396376D01*
X167113216Y-117328456D01*
X166965646Y-117229853D01*
X166840147Y-117104354D01*
X166741544Y-116956784D01*
X166673624Y-116792812D01*
X166639000Y-116618741D01*
X166639000Y-116441259D01*
X166673624Y-116267188D01*
X166741544Y-116103216D01*
X166840147Y-115955646D01*
X166965646Y-115830147D01*
X167113216Y-115731544D01*
X167277188Y-115663624D01*
X167426780Y-115633869D01*
X167451258Y-115629000D01*
X167628742Y-115629000D01*
X167653220Y-115633869D01*
G37*
G36*
X121238674Y-115592465D02*
G01*
X121276367Y-115603899D01*
X121311103Y-115622466D01*
X121341548Y-115647452D01*
X121366534Y-115677897D01*
X121385101Y-115712633D01*
X121396535Y-115750326D01*
X121401000Y-115795661D01*
X121401000Y-116632339D01*
X121396535Y-116677674D01*
X121385101Y-116715367D01*
X121366534Y-116750103D01*
X121341548Y-116780548D01*
X121311103Y-116805534D01*
X121276367Y-116824101D01*
X121238674Y-116835535D01*
X121193339Y-116840000D01*
X120106661Y-116840000D01*
X120061326Y-116835535D01*
X120023633Y-116824101D01*
X119988897Y-116805534D01*
X119958452Y-116780548D01*
X119933466Y-116750103D01*
X119914899Y-116715367D01*
X119903465Y-116677674D01*
X119899000Y-116632339D01*
X119899000Y-115795661D01*
X119903465Y-115750326D01*
X119914899Y-115712633D01*
X119933466Y-115677897D01*
X119958452Y-115647452D01*
X119988897Y-115622466D01*
X120023633Y-115603899D01*
X120061326Y-115592465D01*
X120106661Y-115588000D01*
X121193339Y-115588000D01*
X121238674Y-115592465D01*
G37*
G36*
X116443674Y-115592465D02*
G01*
X116481367Y-115603899D01*
X116516103Y-115622466D01*
X116546548Y-115647452D01*
X116571534Y-115677897D01*
X116590101Y-115712633D01*
X116601535Y-115750326D01*
X116606000Y-115795661D01*
X116606000Y-116632339D01*
X116601535Y-116677674D01*
X116590101Y-116715367D01*
X116571534Y-116750103D01*
X116546548Y-116780548D01*
X116516103Y-116805534D01*
X116481367Y-116824101D01*
X116443674Y-116835535D01*
X116398339Y-116840000D01*
X115311661Y-116840000D01*
X115266326Y-116835535D01*
X115228633Y-116824101D01*
X115193897Y-116805534D01*
X115163452Y-116780548D01*
X115138466Y-116750103D01*
X115119899Y-116715367D01*
X115108465Y-116677674D01*
X115104000Y-116632339D01*
X115104000Y-115795661D01*
X115108465Y-115750326D01*
X115119899Y-115712633D01*
X115138466Y-115677897D01*
X115163452Y-115647452D01*
X115193897Y-115622466D01*
X115228633Y-115603899D01*
X115266326Y-115592465D01*
X115311661Y-115588000D01*
X116398339Y-115588000D01*
X116443674Y-115592465D01*
G37*
G36*
X160338674Y-114873465D02*
G01*
X160376367Y-114884899D01*
X160411103Y-114903466D01*
X160441548Y-114928452D01*
X160466534Y-114958897D01*
X160485101Y-114993633D01*
X160496535Y-115031326D01*
X160501000Y-115076661D01*
X160501000Y-115913339D01*
X160496535Y-115958674D01*
X160485101Y-115996367D01*
X160466534Y-116031103D01*
X160441548Y-116061548D01*
X160411103Y-116086534D01*
X160376367Y-116105101D01*
X160338674Y-116116535D01*
X160293339Y-116121000D01*
X159206661Y-116121000D01*
X159161326Y-116116535D01*
X159123633Y-116105101D01*
X159088897Y-116086534D01*
X159058452Y-116061548D01*
X159033466Y-116031103D01*
X159014899Y-115996367D01*
X159003465Y-115958674D01*
X158999000Y-115913339D01*
X158999000Y-115076661D01*
X159003465Y-115031326D01*
X159014899Y-114993633D01*
X159033466Y-114958897D01*
X159058452Y-114928452D01*
X159088897Y-114903466D01*
X159123633Y-114884899D01*
X159161326Y-114873465D01*
X159206661Y-114869000D01*
X160293339Y-114869000D01*
X160338674Y-114873465D01*
G37*
G36*
X125076000Y-115271000D02*
G01*
X123224000Y-115271000D01*
X123224000Y-106269000D01*
X125076000Y-106269000D01*
X125076000Y-115271000D01*
G37*
G36*
X132276000Y-115271000D02*
G01*
X130424000Y-115271000D01*
X130424000Y-106269000D01*
X132276000Y-106269000D01*
X132276000Y-115271000D01*
G37*
G36*
X167653512Y-113093927D02*
G01*
X167802812Y-113123624D01*
X167966784Y-113191544D01*
X168114354Y-113290147D01*
X168239853Y-113415646D01*
X168338456Y-113563216D01*
X168406376Y-113727188D01*
X168441000Y-113901259D01*
X168441000Y-114078741D01*
X168406376Y-114252812D01*
X168338456Y-114416784D01*
X168239853Y-114564354D01*
X168114354Y-114689853D01*
X167966784Y-114788456D01*
X167802812Y-114856376D01*
X167653512Y-114886073D01*
X167628742Y-114891000D01*
X167451258Y-114891000D01*
X167426488Y-114886073D01*
X167277188Y-114856376D01*
X167113216Y-114788456D01*
X166965646Y-114689853D01*
X166840147Y-114564354D01*
X166741544Y-114416784D01*
X166673624Y-114252812D01*
X166639000Y-114078741D01*
X166639000Y-113901259D01*
X166673624Y-113727188D01*
X166741544Y-113563216D01*
X166840147Y-113415646D01*
X166965646Y-113290147D01*
X167113216Y-113191544D01*
X167277188Y-113123624D01*
X167426488Y-113093927D01*
X167451258Y-113089000D01*
X167628742Y-113089000D01*
X167653512Y-113093927D01*
G37*
G36*
X165113512Y-113093927D02*
G01*
X165262812Y-113123624D01*
X165426784Y-113191544D01*
X165574354Y-113290147D01*
X165699853Y-113415646D01*
X165798456Y-113563216D01*
X165866376Y-113727188D01*
X165901000Y-113901259D01*
X165901000Y-114078741D01*
X165866376Y-114252812D01*
X165798456Y-114416784D01*
X165699853Y-114564354D01*
X165574354Y-114689853D01*
X165426784Y-114788456D01*
X165262812Y-114856376D01*
X165113512Y-114886073D01*
X165088742Y-114891000D01*
X164911258Y-114891000D01*
X164886488Y-114886073D01*
X164737188Y-114856376D01*
X164573216Y-114788456D01*
X164425646Y-114689853D01*
X164300147Y-114564354D01*
X164201544Y-114416784D01*
X164133624Y-114252812D01*
X164099000Y-114078741D01*
X164099000Y-113901259D01*
X164133624Y-113727188D01*
X164201544Y-113563216D01*
X164300147Y-113415646D01*
X164425646Y-113290147D01*
X164573216Y-113191544D01*
X164737188Y-113123624D01*
X164886488Y-113093927D01*
X164911258Y-113089000D01*
X165088742Y-113089000D01*
X165113512Y-113093927D01*
G37*
G36*
X121238674Y-113542465D02*
G01*
X121276367Y-113553899D01*
X121311103Y-113572466D01*
X121341548Y-113597452D01*
X121366534Y-113627897D01*
X121385101Y-113662633D01*
X121396535Y-113700326D01*
X121401000Y-113745661D01*
X121401000Y-114582339D01*
X121396535Y-114627674D01*
X121385101Y-114665367D01*
X121366534Y-114700103D01*
X121341548Y-114730548D01*
X121311103Y-114755534D01*
X121276367Y-114774101D01*
X121238674Y-114785535D01*
X121193339Y-114790000D01*
X120106661Y-114790000D01*
X120061326Y-114785535D01*
X120023633Y-114774101D01*
X119988897Y-114755534D01*
X119958452Y-114730548D01*
X119933466Y-114700103D01*
X119914899Y-114665367D01*
X119903465Y-114627674D01*
X119899000Y-114582339D01*
X119899000Y-113745661D01*
X119903465Y-113700326D01*
X119914899Y-113662633D01*
X119933466Y-113627897D01*
X119958452Y-113597452D01*
X119988897Y-113572466D01*
X120023633Y-113553899D01*
X120061326Y-113542465D01*
X120106661Y-113538000D01*
X121193339Y-113538000D01*
X121238674Y-113542465D01*
G37*
G36*
X116443674Y-113542465D02*
G01*
X116481367Y-113553899D01*
X116516103Y-113572466D01*
X116546548Y-113597452D01*
X116571534Y-113627897D01*
X116590101Y-113662633D01*
X116601535Y-113700326D01*
X116606000Y-113745661D01*
X116606000Y-114582339D01*
X116601535Y-114627674D01*
X116590101Y-114665367D01*
X116571534Y-114700103D01*
X116546548Y-114730548D01*
X116516103Y-114755534D01*
X116481367Y-114774101D01*
X116443674Y-114785535D01*
X116398339Y-114790000D01*
X115311661Y-114790000D01*
X115266326Y-114785535D01*
X115228633Y-114774101D01*
X115193897Y-114755534D01*
X115163452Y-114730548D01*
X115138466Y-114700103D01*
X115119899Y-114665367D01*
X115108465Y-114627674D01*
X115104000Y-114582339D01*
X115104000Y-113745661D01*
X115108465Y-113700326D01*
X115119899Y-113662633D01*
X115138466Y-113627897D01*
X115163452Y-113597452D01*
X115193897Y-113572466D01*
X115228633Y-113553899D01*
X115266326Y-113542465D01*
X115311661Y-113538000D01*
X116398339Y-113538000D01*
X116443674Y-113542465D01*
G37*
G36*
X156551000Y-113521000D02*
G01*
X154549000Y-113521000D01*
X154549000Y-111019000D01*
X156551000Y-111019000D01*
X156551000Y-113521000D01*
G37*
G36*
X152451000Y-113521000D02*
G01*
X150449000Y-113521000D01*
X150449000Y-111019000D01*
X152451000Y-111019000D01*
X152451000Y-113521000D01*
G37*
G36*
X121556000Y-112904500D02*
G01*
X119654000Y-112904500D01*
X119654000Y-111002500D01*
X121556000Y-111002500D01*
X121556000Y-112904500D01*
G37*
G36*
X116806000Y-112904500D02*
G01*
X114904000Y-112904500D01*
X114904000Y-111002500D01*
X116806000Y-111002500D01*
X116806000Y-112904500D01*
G37*
G36*
X167653512Y-110553927D02*
G01*
X167802812Y-110583624D01*
X167966784Y-110651544D01*
X168114354Y-110750147D01*
X168239853Y-110875646D01*
X168338456Y-111023216D01*
X168406376Y-111187188D01*
X168441000Y-111361259D01*
X168441000Y-111538741D01*
X168406376Y-111712812D01*
X168338456Y-111876784D01*
X168239853Y-112024354D01*
X168114354Y-112149853D01*
X167966784Y-112248456D01*
X167802812Y-112316376D01*
X167653512Y-112346073D01*
X167628742Y-112351000D01*
X167451258Y-112351000D01*
X167426488Y-112346073D01*
X167277188Y-112316376D01*
X167113216Y-112248456D01*
X166965646Y-112149853D01*
X166840147Y-112024354D01*
X166741544Y-111876784D01*
X166673624Y-111712812D01*
X166639000Y-111538741D01*
X166639000Y-111361259D01*
X166673624Y-111187188D01*
X166741544Y-111023216D01*
X166840147Y-110875646D01*
X166965646Y-110750147D01*
X167113216Y-110651544D01*
X167277188Y-110583624D01*
X167426488Y-110553927D01*
X167451258Y-110549000D01*
X167628742Y-110549000D01*
X167653512Y-110553927D01*
G37*
G36*
X165113512Y-110553927D02*
G01*
X165262812Y-110583624D01*
X165426784Y-110651544D01*
X165574354Y-110750147D01*
X165699853Y-110875646D01*
X165798456Y-111023216D01*
X165866376Y-111187188D01*
X165901000Y-111361259D01*
X165901000Y-111538741D01*
X165866376Y-111712812D01*
X165798456Y-111876784D01*
X165699853Y-112024354D01*
X165574354Y-112149853D01*
X165426784Y-112248456D01*
X165262812Y-112316376D01*
X165113512Y-112346073D01*
X165088742Y-112351000D01*
X164911258Y-112351000D01*
X164886488Y-112346073D01*
X164737188Y-112316376D01*
X164573216Y-112248456D01*
X164425646Y-112149853D01*
X164300147Y-112024354D01*
X164201544Y-111876784D01*
X164133624Y-111712812D01*
X164099000Y-111538741D01*
X164099000Y-111361259D01*
X164133624Y-111187188D01*
X164201544Y-111023216D01*
X164300147Y-110875646D01*
X164425646Y-110750147D01*
X164573216Y-110651544D01*
X164737188Y-110583624D01*
X164886488Y-110553927D01*
X164911258Y-110549000D01*
X165088742Y-110549000D01*
X165113512Y-110553927D01*
G37*
G36*
X145876000Y-111871000D02*
G01*
X139624000Y-111871000D01*
X139624000Y-110169000D01*
X145876000Y-110169000D01*
X145876000Y-111871000D01*
G37*
G36*
X120882395Y-108499046D02*
G01*
X121055466Y-108570734D01*
X121055467Y-108570735D01*
X121211227Y-108674810D01*
X121343690Y-108807273D01*
X121363564Y-108837017D01*
X121447766Y-108963034D01*
X121519454Y-109136105D01*
X121556000Y-109319833D01*
X121556000Y-109507167D01*
X121519454Y-109690895D01*
X121447766Y-109863966D01*
X121423500Y-109900282D01*
X121343690Y-110019727D01*
X121211227Y-110152190D01*
X121186069Y-110169000D01*
X121055466Y-110256266D01*
X120882395Y-110327954D01*
X120698667Y-110364500D01*
X120511333Y-110364500D01*
X120327605Y-110327954D01*
X120154534Y-110256266D01*
X120023931Y-110169000D01*
X119998773Y-110152190D01*
X119866310Y-110019727D01*
X119786500Y-109900282D01*
X119762234Y-109863966D01*
X119690546Y-109690895D01*
X119654000Y-109507167D01*
X119654000Y-109319833D01*
X119690546Y-109136105D01*
X119762234Y-108963034D01*
X119846436Y-108837017D01*
X119866310Y-108807273D01*
X119998773Y-108674810D01*
X120154533Y-108570735D01*
X120154534Y-108570734D01*
X120327605Y-108499046D01*
X120511333Y-108462500D01*
X120698667Y-108462500D01*
X120882395Y-108499046D01*
G37*
G36*
X116132395Y-108499046D02*
G01*
X116305466Y-108570734D01*
X116305467Y-108570735D01*
X116461227Y-108674810D01*
X116593690Y-108807273D01*
X116613564Y-108837017D01*
X116697766Y-108963034D01*
X116769454Y-109136105D01*
X116806000Y-109319833D01*
X116806000Y-109507167D01*
X116769454Y-109690895D01*
X116697766Y-109863966D01*
X116673500Y-109900282D01*
X116593690Y-110019727D01*
X116461227Y-110152190D01*
X116436069Y-110169000D01*
X116305466Y-110256266D01*
X116132395Y-110327954D01*
X115948667Y-110364500D01*
X115761333Y-110364500D01*
X115577605Y-110327954D01*
X115404534Y-110256266D01*
X115273931Y-110169000D01*
X115248773Y-110152190D01*
X115116310Y-110019727D01*
X115036500Y-109900282D01*
X115012234Y-109863966D01*
X114940546Y-109690895D01*
X114904000Y-109507167D01*
X114904000Y-109319833D01*
X114940546Y-109136105D01*
X115012234Y-108963034D01*
X115096436Y-108837017D01*
X115116310Y-108807273D01*
X115248773Y-108674810D01*
X115404533Y-108570735D01*
X115404534Y-108570734D01*
X115577605Y-108499046D01*
X115761333Y-108462500D01*
X115948667Y-108462500D01*
X116132395Y-108499046D01*
G37*
G36*
X152088674Y-108673465D02*
G01*
X152126367Y-108684899D01*
X152161103Y-108703466D01*
X152191548Y-108728452D01*
X152216534Y-108758897D01*
X152235101Y-108793633D01*
X152246535Y-108831326D01*
X152251000Y-108876661D01*
X152251000Y-109713339D01*
X152246535Y-109758674D01*
X152235101Y-109796367D01*
X152216534Y-109831103D01*
X152191548Y-109861548D01*
X152161103Y-109886534D01*
X152126367Y-109905101D01*
X152088674Y-109916535D01*
X152043339Y-109921000D01*
X150956661Y-109921000D01*
X150911326Y-109916535D01*
X150873633Y-109905101D01*
X150838897Y-109886534D01*
X150808452Y-109861548D01*
X150783466Y-109831103D01*
X150764899Y-109796367D01*
X150753465Y-109758674D01*
X150749000Y-109713339D01*
X150749000Y-108876661D01*
X150753465Y-108831326D01*
X150764899Y-108793633D01*
X150783466Y-108758897D01*
X150808452Y-108728452D01*
X150838897Y-108703466D01*
X150873633Y-108684899D01*
X150911326Y-108673465D01*
X150956661Y-108669000D01*
X152043339Y-108669000D01*
X152088674Y-108673465D01*
G37*
G36*
X156088674Y-108673465D02*
G01*
X156126367Y-108684899D01*
X156161103Y-108703466D01*
X156191548Y-108728452D01*
X156216534Y-108758897D01*
X156235101Y-108793633D01*
X156246535Y-108831326D01*
X156251000Y-108876661D01*
X156251000Y-109713339D01*
X156246535Y-109758674D01*
X156235101Y-109796367D01*
X156216534Y-109831103D01*
X156191548Y-109861548D01*
X156161103Y-109886534D01*
X156126367Y-109905101D01*
X156088674Y-109916535D01*
X156043339Y-109921000D01*
X154956661Y-109921000D01*
X154911326Y-109916535D01*
X154873633Y-109905101D01*
X154838897Y-109886534D01*
X154808452Y-109861548D01*
X154783466Y-109831103D01*
X154764899Y-109796367D01*
X154753465Y-109758674D01*
X154749000Y-109713339D01*
X154749000Y-108876661D01*
X154753465Y-108831326D01*
X154764899Y-108793633D01*
X154783466Y-108758897D01*
X154808452Y-108728452D01*
X154838897Y-108703466D01*
X154873633Y-108684899D01*
X154911326Y-108673465D01*
X154956661Y-108669000D01*
X156043339Y-108669000D01*
X156088674Y-108673465D01*
G37*
G36*
X147851000Y-109896000D02*
G01*
X146149000Y-109896000D01*
X146149000Y-103644000D01*
X147851000Y-103644000D01*
X147851000Y-109896000D01*
G37*
G36*
X139351000Y-109896000D02*
G01*
X137649000Y-109896000D01*
X137649000Y-103644000D01*
X139351000Y-103644000D01*
X139351000Y-109896000D01*
G37*
G36*
X167653512Y-108013927D02*
G01*
X167802812Y-108043624D01*
X167966784Y-108111544D01*
X168114354Y-108210147D01*
X168239853Y-108335646D01*
X168338456Y-108483216D01*
X168406376Y-108647188D01*
X168431003Y-108771000D01*
X168438219Y-108807275D01*
X168441000Y-108821259D01*
X168441000Y-108998741D01*
X168406376Y-109172812D01*
X168338456Y-109336784D01*
X168239853Y-109484354D01*
X168114354Y-109609853D01*
X167966784Y-109708456D01*
X167802812Y-109776376D01*
X167653512Y-109806073D01*
X167628742Y-109811000D01*
X167451258Y-109811000D01*
X167426488Y-109806073D01*
X167277188Y-109776376D01*
X167113216Y-109708456D01*
X166965646Y-109609853D01*
X166840147Y-109484354D01*
X166741544Y-109336784D01*
X166673624Y-109172812D01*
X166639000Y-108998741D01*
X166639000Y-108821259D01*
X166641782Y-108807275D01*
X166648997Y-108771000D01*
X166673624Y-108647188D01*
X166741544Y-108483216D01*
X166840147Y-108335646D01*
X166965646Y-108210147D01*
X167113216Y-108111544D01*
X167277188Y-108043624D01*
X167426488Y-108013927D01*
X167451258Y-108009000D01*
X167628742Y-108009000D01*
X167653512Y-108013927D01*
G37*
G36*
X165113512Y-108013927D02*
G01*
X165262812Y-108043624D01*
X165426784Y-108111544D01*
X165574354Y-108210147D01*
X165699853Y-108335646D01*
X165798456Y-108483216D01*
X165866376Y-108647188D01*
X165891003Y-108771000D01*
X165898219Y-108807275D01*
X165901000Y-108821259D01*
X165901000Y-108998741D01*
X165866376Y-109172812D01*
X165798456Y-109336784D01*
X165699853Y-109484354D01*
X165574354Y-109609853D01*
X165426784Y-109708456D01*
X165262812Y-109776376D01*
X165113512Y-109806073D01*
X165088742Y-109811000D01*
X164911258Y-109811000D01*
X164886488Y-109806073D01*
X164737188Y-109776376D01*
X164573216Y-109708456D01*
X164425646Y-109609853D01*
X164300147Y-109484354D01*
X164201544Y-109336784D01*
X164133624Y-109172812D01*
X164099000Y-108998741D01*
X164099000Y-108821259D01*
X164101782Y-108807275D01*
X164108997Y-108771000D01*
X164133624Y-108647188D01*
X164201544Y-108483216D01*
X164300147Y-108335646D01*
X164425646Y-108210147D01*
X164573216Y-108111544D01*
X164737188Y-108043624D01*
X164886488Y-108013927D01*
X164911258Y-108009000D01*
X165088742Y-108009000D01*
X165113512Y-108013927D01*
G37*
G36*
X156088674Y-106623465D02*
G01*
X156126367Y-106634899D01*
X156161103Y-106653466D01*
X156191548Y-106678452D01*
X156216534Y-106708897D01*
X156235101Y-106743633D01*
X156246535Y-106781326D01*
X156251000Y-106826661D01*
X156251000Y-107663339D01*
X156246535Y-107708674D01*
X156235101Y-107746367D01*
X156216534Y-107781103D01*
X156191548Y-107811548D01*
X156161103Y-107836534D01*
X156126367Y-107855101D01*
X156088674Y-107866535D01*
X156043339Y-107871000D01*
X154956661Y-107871000D01*
X154911326Y-107866535D01*
X154873633Y-107855101D01*
X154838897Y-107836534D01*
X154808452Y-107811548D01*
X154783466Y-107781103D01*
X154764899Y-107746367D01*
X154753465Y-107708674D01*
X154749000Y-107663339D01*
X154749000Y-106826661D01*
X154753465Y-106781326D01*
X154764899Y-106743633D01*
X154783466Y-106708897D01*
X154808452Y-106678452D01*
X154838897Y-106653466D01*
X154873633Y-106634899D01*
X154911326Y-106623465D01*
X154956661Y-106619000D01*
X156043339Y-106619000D01*
X156088674Y-106623465D01*
G37*
G36*
X152088674Y-106623465D02*
G01*
X152126367Y-106634899D01*
X152161103Y-106653466D01*
X152191548Y-106678452D01*
X152216534Y-106708897D01*
X152235101Y-106743633D01*
X152246535Y-106781326D01*
X152251000Y-106826661D01*
X152251000Y-107663339D01*
X152246535Y-107708674D01*
X152235101Y-107746367D01*
X152216534Y-107781103D01*
X152191548Y-107811548D01*
X152161103Y-107836534D01*
X152126367Y-107855101D01*
X152088674Y-107866535D01*
X152043339Y-107871000D01*
X150956661Y-107871000D01*
X150911326Y-107866535D01*
X150873633Y-107855101D01*
X150838897Y-107836534D01*
X150808452Y-107811548D01*
X150783466Y-107781103D01*
X150764899Y-107746367D01*
X150753465Y-107708674D01*
X150749000Y-107663339D01*
X150749000Y-106826661D01*
X150753465Y-106781326D01*
X150764899Y-106743633D01*
X150783466Y-106708897D01*
X150808452Y-106678452D01*
X150838897Y-106653466D01*
X150873633Y-106634899D01*
X150911326Y-106623465D01*
X150956661Y-106619000D01*
X152043339Y-106619000D01*
X152088674Y-106623465D01*
G37*
G36*
X167653512Y-105473927D02*
G01*
X167802812Y-105503624D01*
X167966784Y-105571544D01*
X168114354Y-105670147D01*
X168239853Y-105795646D01*
X168338456Y-105943216D01*
X168406376Y-106107188D01*
X168441000Y-106281259D01*
X168441000Y-106458741D01*
X168406376Y-106632812D01*
X168338456Y-106796784D01*
X168239853Y-106944354D01*
X168114354Y-107069853D01*
X167966784Y-107168456D01*
X167802812Y-107236376D01*
X167653512Y-107266073D01*
X167628742Y-107271000D01*
X167451258Y-107271000D01*
X167426488Y-107266073D01*
X167277188Y-107236376D01*
X167113216Y-107168456D01*
X166965646Y-107069853D01*
X166840147Y-106944354D01*
X166741544Y-106796784D01*
X166673624Y-106632812D01*
X166639000Y-106458741D01*
X166639000Y-106281259D01*
X166673624Y-106107188D01*
X166741544Y-105943216D01*
X166840147Y-105795646D01*
X166965646Y-105670147D01*
X167113216Y-105571544D01*
X167277188Y-105503624D01*
X167426488Y-105473927D01*
X167451258Y-105469000D01*
X167628742Y-105469000D01*
X167653512Y-105473927D01*
G37*
G36*
X165113512Y-105473927D02*
G01*
X165262812Y-105503624D01*
X165426784Y-105571544D01*
X165574354Y-105670147D01*
X165699853Y-105795646D01*
X165798456Y-105943216D01*
X165866376Y-106107188D01*
X165901000Y-106281259D01*
X165901000Y-106458741D01*
X165866376Y-106632812D01*
X165798456Y-106796784D01*
X165699853Y-106944354D01*
X165574354Y-107069853D01*
X165426784Y-107168456D01*
X165262812Y-107236376D01*
X165113512Y-107266073D01*
X165088742Y-107271000D01*
X164911258Y-107271000D01*
X164886488Y-107266073D01*
X164737188Y-107236376D01*
X164573216Y-107168456D01*
X164425646Y-107069853D01*
X164300147Y-106944354D01*
X164201544Y-106796784D01*
X164133624Y-106632812D01*
X164099000Y-106458741D01*
X164099000Y-106281259D01*
X164133624Y-106107188D01*
X164201544Y-105943216D01*
X164300147Y-105795646D01*
X164425646Y-105670147D01*
X164573216Y-105571544D01*
X164737188Y-105503624D01*
X164886488Y-105473927D01*
X164911258Y-105469000D01*
X165088742Y-105469000D01*
X165113512Y-105473927D01*
G37*
G36*
X117013500Y-105663386D02*
G01*
X117014102Y-105675638D01*
X117016649Y-105701500D01*
X117014102Y-105727362D01*
X117013500Y-105739614D01*
X117013500Y-105812906D01*
X117004543Y-105829664D01*
X117000415Y-105841201D01*
X116974632Y-105926193D01*
X116966854Y-105951836D01*
X116906406Y-106064925D01*
X116825054Y-106164054D01*
X116725925Y-106245406D01*
X116612836Y-106305854D01*
X116580904Y-106315540D01*
X116490118Y-106343080D01*
X116426355Y-106349360D01*
X116394474Y-106352500D01*
X115630526Y-106352500D01*
X115598645Y-106349360D01*
X115534882Y-106343080D01*
X115444096Y-106315540D01*
X115412164Y-106305854D01*
X115299075Y-106245406D01*
X115199946Y-106164054D01*
X115118594Y-106064925D01*
X115058146Y-105951836D01*
X115050368Y-105926193D01*
X115024587Y-105841208D01*
X115015213Y-105818575D01*
X115011500Y-105813018D01*
X115011500Y-105739614D01*
X115010898Y-105727362D01*
X115008351Y-105701500D01*
X115010898Y-105675638D01*
X115011500Y-105663386D01*
X115011500Y-104450500D01*
X117013500Y-104450500D01*
X117013500Y-105663386D01*
G37*
G36*
X118938848Y-98955320D02*
G01*
X118938850Y-98955321D01*
X118938851Y-98955321D01*
X119080074Y-99013817D01*
X119080077Y-99013819D01*
X119207169Y-99098739D01*
X119315261Y-99206831D01*
X119393787Y-99324354D01*
X119400183Y-99333926D01*
X119448201Y-99449853D01*
X119458680Y-99475152D01*
X119488500Y-99625069D01*
X119488500Y-99777931D01*
X119462748Y-99907399D01*
X119458679Y-99927851D01*
X119400183Y-100069074D01*
X119400181Y-100069077D01*
X119315261Y-100196169D01*
X119207169Y-100304261D01*
X119122440Y-100360875D01*
X119080074Y-100389183D01*
X119029772Y-100410019D01*
X119008164Y-100421568D01*
X118989222Y-100437114D01*
X118973677Y-100456056D01*
X118962126Y-100477666D01*
X118955013Y-100501115D01*
X118952611Y-100525501D01*
X118955013Y-100549887D01*
X118962126Y-100573336D01*
X118973677Y-100594947D01*
X118989223Y-100613889D01*
X119008165Y-100629434D01*
X119029775Y-100640985D01*
X119053224Y-100648098D01*
X119077610Y-100650500D01*
X119438500Y-100650500D01*
X119438500Y-103752500D01*
X119077610Y-103752500D01*
X119053224Y-103754902D01*
X119029775Y-103762015D01*
X119008164Y-103773566D01*
X118989222Y-103789111D01*
X118973677Y-103808053D01*
X118962126Y-103829664D01*
X118955013Y-103853113D01*
X118952611Y-103877499D01*
X118955013Y-103901885D01*
X118962126Y-103925334D01*
X118973677Y-103946945D01*
X118989222Y-103965887D01*
X119008164Y-103981432D01*
X119029772Y-103992981D01*
X119080074Y-104013817D01*
X119080075Y-104013818D01*
X119207169Y-104098739D01*
X119315261Y-104206831D01*
X119348637Y-104256782D01*
X119400183Y-104333926D01*
X119448469Y-104450500D01*
X119458680Y-104475152D01*
X119488500Y-104625069D01*
X119488500Y-104777929D01*
X119458679Y-104927851D01*
X119400183Y-105069074D01*
X119400181Y-105069077D01*
X119315261Y-105196169D01*
X119207169Y-105304261D01*
X119156564Y-105338074D01*
X119080074Y-105389183D01*
X118938851Y-105447679D01*
X118938850Y-105447679D01*
X118938848Y-105447680D01*
X118788931Y-105477500D01*
X118636069Y-105477500D01*
X118486152Y-105447680D01*
X118486150Y-105447679D01*
X118486149Y-105447679D01*
X118344926Y-105389183D01*
X118268436Y-105338074D01*
X118217831Y-105304261D01*
X118109739Y-105196169D01*
X118024819Y-105069077D01*
X118024817Y-105069074D01*
X117966321Y-104927851D01*
X117936500Y-104777929D01*
X117936500Y-104625069D01*
X117966320Y-104475152D01*
X117976531Y-104450500D01*
X118024817Y-104333926D01*
X118076363Y-104256782D01*
X118109739Y-104206831D01*
X118217831Y-104098739D01*
X118344925Y-104013818D01*
X118344926Y-104013817D01*
X118395228Y-103992981D01*
X118416836Y-103981432D01*
X118435778Y-103965886D01*
X118451323Y-103946944D01*
X118462874Y-103925334D01*
X118469987Y-103901885D01*
X118472389Y-103877499D01*
X118469987Y-103853113D01*
X118462874Y-103829664D01*
X118451323Y-103808053D01*
X118435777Y-103789111D01*
X118416835Y-103773566D01*
X118395225Y-103762015D01*
X118371776Y-103754902D01*
X118347390Y-103752500D01*
X117986500Y-103752500D01*
X117986500Y-100650500D01*
X118347390Y-100650500D01*
X118371776Y-100648098D01*
X118395225Y-100640985D01*
X118416836Y-100629434D01*
X118435778Y-100613889D01*
X118451323Y-100594947D01*
X118462874Y-100573336D01*
X118469987Y-100549887D01*
X118472389Y-100525501D01*
X118469987Y-100501115D01*
X118462874Y-100477666D01*
X118451323Y-100456055D01*
X118435778Y-100437113D01*
X118416836Y-100421568D01*
X118395228Y-100410019D01*
X118344926Y-100389183D01*
X118302560Y-100360875D01*
X118217831Y-100304261D01*
X118109739Y-100196169D01*
X118024819Y-100069077D01*
X118024817Y-100069074D01*
X117966321Y-99927851D01*
X117962253Y-99907399D01*
X117936500Y-99777931D01*
X117936500Y-99625069D01*
X117966320Y-99475152D01*
X117976799Y-99449853D01*
X118024817Y-99333926D01*
X118031213Y-99324354D01*
X118109739Y-99206831D01*
X118217831Y-99098739D01*
X118344923Y-99013819D01*
X118344926Y-99013817D01*
X118486149Y-98955321D01*
X118486150Y-98955321D01*
X118486152Y-98955320D01*
X118636069Y-98925500D01*
X118788931Y-98925500D01*
X118938848Y-98955320D01*
G37*
G36*
X127188674Y-103273465D02*
G01*
X127226367Y-103284899D01*
X127261103Y-103303466D01*
X127291548Y-103328452D01*
X127316534Y-103358897D01*
X127335101Y-103393633D01*
X127346535Y-103431326D01*
X127351000Y-103476661D01*
X127351000Y-104563339D01*
X127346535Y-104608674D01*
X127335101Y-104646367D01*
X127316534Y-104681103D01*
X127291548Y-104711548D01*
X127261103Y-104736534D01*
X127226367Y-104755101D01*
X127188674Y-104766535D01*
X127143339Y-104771000D01*
X126306661Y-104771000D01*
X126261326Y-104766535D01*
X126223633Y-104755101D01*
X126188897Y-104736534D01*
X126158452Y-104711548D01*
X126133466Y-104681103D01*
X126114899Y-104646367D01*
X126103465Y-104608674D01*
X126099000Y-104563339D01*
X126099000Y-103476661D01*
X126103465Y-103431326D01*
X126114899Y-103393633D01*
X126133466Y-103358897D01*
X126158452Y-103328452D01*
X126188897Y-103303466D01*
X126223633Y-103284899D01*
X126261326Y-103273465D01*
X126306661Y-103269000D01*
X127143339Y-103269000D01*
X127188674Y-103273465D01*
G37*
G36*
X129238674Y-103273465D02*
G01*
X129276367Y-103284899D01*
X129311103Y-103303466D01*
X129341548Y-103328452D01*
X129366534Y-103358897D01*
X129385101Y-103393633D01*
X129396535Y-103431326D01*
X129401000Y-103476661D01*
X129401000Y-104563339D01*
X129396535Y-104608674D01*
X129385101Y-104646367D01*
X129366534Y-104681103D01*
X129341548Y-104711548D01*
X129311103Y-104736534D01*
X129276367Y-104755101D01*
X129238674Y-104766535D01*
X129193339Y-104771000D01*
X128356661Y-104771000D01*
X128311326Y-104766535D01*
X128273633Y-104755101D01*
X128238897Y-104736534D01*
X128208452Y-104711548D01*
X128183466Y-104681103D01*
X128164899Y-104646367D01*
X128153465Y-104608674D01*
X128149000Y-104563339D01*
X128149000Y-103476661D01*
X128153465Y-103431326D01*
X128164899Y-103393633D01*
X128183466Y-103358897D01*
X128208452Y-103328452D01*
X128238897Y-103303466D01*
X128273633Y-103284899D01*
X128311326Y-103273465D01*
X128356661Y-103269000D01*
X129193339Y-103269000D01*
X129238674Y-103273465D01*
G37*
G36*
X167653512Y-102933927D02*
G01*
X167802812Y-102963624D01*
X167966784Y-103031544D01*
X168114354Y-103130147D01*
X168239853Y-103255646D01*
X168338456Y-103403216D01*
X168406376Y-103567188D01*
X168441000Y-103741259D01*
X168441000Y-103918741D01*
X168406376Y-104092812D01*
X168338456Y-104256784D01*
X168239853Y-104404354D01*
X168114354Y-104529853D01*
X167966784Y-104628456D01*
X167802812Y-104696376D01*
X167658247Y-104725131D01*
X167628742Y-104731000D01*
X167451258Y-104731000D01*
X167421753Y-104725131D01*
X167277188Y-104696376D01*
X167113216Y-104628456D01*
X166965646Y-104529853D01*
X166840147Y-104404354D01*
X166741544Y-104256784D01*
X166673624Y-104092812D01*
X166639000Y-103918741D01*
X166639000Y-103741259D01*
X166673624Y-103567188D01*
X166741544Y-103403216D01*
X166840147Y-103255646D01*
X166965646Y-103130147D01*
X167113216Y-103031544D01*
X167277188Y-102963624D01*
X167426488Y-102933927D01*
X167451258Y-102929000D01*
X167628742Y-102929000D01*
X167653512Y-102933927D01*
G37*
G36*
X165113512Y-102933927D02*
G01*
X165262812Y-102963624D01*
X165426784Y-103031544D01*
X165574354Y-103130147D01*
X165699853Y-103255646D01*
X165798456Y-103403216D01*
X165866376Y-103567188D01*
X165901000Y-103741259D01*
X165901000Y-103918741D01*
X165866376Y-104092812D01*
X165798456Y-104256784D01*
X165699853Y-104404354D01*
X165574354Y-104529853D01*
X165426784Y-104628456D01*
X165262812Y-104696376D01*
X165118247Y-104725131D01*
X165088742Y-104731000D01*
X164911258Y-104731000D01*
X164881753Y-104725131D01*
X164737188Y-104696376D01*
X164573216Y-104628456D01*
X164425646Y-104529853D01*
X164300147Y-104404354D01*
X164201544Y-104256784D01*
X164133624Y-104092812D01*
X164099000Y-103918741D01*
X164099000Y-103741259D01*
X164133624Y-103567188D01*
X164201544Y-103403216D01*
X164300147Y-103255646D01*
X164425646Y-103130147D01*
X164573216Y-103031544D01*
X164737188Y-102963624D01*
X164886488Y-102933927D01*
X164911258Y-102929000D01*
X165088742Y-102929000D01*
X165113512Y-102933927D01*
G37*
G36*
X117013500Y-104002500D02*
G01*
X115011500Y-104002500D01*
X115011500Y-102400500D01*
X117013500Y-102400500D01*
X117013500Y-104002500D01*
G37*
G36*
X145876000Y-103371000D02*
G01*
X139624000Y-103371000D01*
X139624000Y-101669000D01*
X145876000Y-101669000D01*
X145876000Y-103371000D01*
G37*
G36*
X167653512Y-100393927D02*
G01*
X167802812Y-100423624D01*
X167966784Y-100491544D01*
X168114354Y-100590147D01*
X168239853Y-100715646D01*
X168338456Y-100863216D01*
X168406376Y-101027188D01*
X168431301Y-101152500D01*
X168441000Y-101201258D01*
X168441000Y-101378742D01*
X168438064Y-101393500D01*
X168406376Y-101552812D01*
X168338456Y-101716784D01*
X168239853Y-101864354D01*
X168114354Y-101989853D01*
X167966784Y-102088456D01*
X167802812Y-102156376D01*
X167653512Y-102186073D01*
X167628742Y-102191000D01*
X167451258Y-102191000D01*
X167426488Y-102186073D01*
X167277188Y-102156376D01*
X167113216Y-102088456D01*
X166965646Y-101989853D01*
X166840147Y-101864354D01*
X166741544Y-101716784D01*
X166673624Y-101552812D01*
X166641936Y-101393500D01*
X166639000Y-101378742D01*
X166639000Y-101201258D01*
X166648699Y-101152500D01*
X166673624Y-101027188D01*
X166741544Y-100863216D01*
X166840147Y-100715646D01*
X166965646Y-100590147D01*
X167113216Y-100491544D01*
X167277188Y-100423624D01*
X167426488Y-100393927D01*
X167451258Y-100389000D01*
X167628742Y-100389000D01*
X167653512Y-100393927D01*
G37*
G36*
X165113512Y-100393927D02*
G01*
X165262812Y-100423624D01*
X165426784Y-100491544D01*
X165574354Y-100590147D01*
X165699853Y-100715646D01*
X165798456Y-100863216D01*
X165866376Y-101027188D01*
X165891301Y-101152500D01*
X165901000Y-101201258D01*
X165901000Y-101378742D01*
X165898064Y-101393500D01*
X165866376Y-101552812D01*
X165798456Y-101716784D01*
X165699853Y-101864354D01*
X165574354Y-101989853D01*
X165426784Y-102088456D01*
X165262812Y-102156376D01*
X165113512Y-102186073D01*
X165088742Y-102191000D01*
X164911258Y-102191000D01*
X164886488Y-102186073D01*
X164737188Y-102156376D01*
X164573216Y-102088456D01*
X164425646Y-101989853D01*
X164300147Y-101864354D01*
X164201544Y-101716784D01*
X164133624Y-101552812D01*
X164101936Y-101393500D01*
X164099000Y-101378742D01*
X164099000Y-101201258D01*
X164108699Y-101152500D01*
X164133624Y-101027188D01*
X164201544Y-100863216D01*
X164300147Y-100715646D01*
X164425646Y-100590147D01*
X164573216Y-100491544D01*
X164737188Y-100423624D01*
X164886488Y-100393927D01*
X164911258Y-100389000D01*
X165088742Y-100389000D01*
X165113512Y-100393927D01*
G37*
G36*
X117013500Y-102002500D02*
G01*
X115011500Y-102002500D01*
X115011500Y-100400500D01*
X117013500Y-100400500D01*
X117013500Y-102002500D01*
G37*
G36*
X123359674Y-99895965D02*
G01*
X123397367Y-99907399D01*
X123432103Y-99925966D01*
X123462548Y-99950952D01*
X123487534Y-99981397D01*
X123506101Y-100016133D01*
X123517535Y-100053826D01*
X123522000Y-100099161D01*
X123522000Y-101185839D01*
X123517535Y-101231174D01*
X123506101Y-101268867D01*
X123487534Y-101303603D01*
X123462548Y-101334048D01*
X123432103Y-101359034D01*
X123397367Y-101377601D01*
X123359674Y-101389035D01*
X123314339Y-101393500D01*
X122477661Y-101393500D01*
X122432326Y-101389035D01*
X122394633Y-101377601D01*
X122359897Y-101359034D01*
X122329452Y-101334048D01*
X122304466Y-101303603D01*
X122285899Y-101268867D01*
X122274465Y-101231174D01*
X122270000Y-101185839D01*
X122270000Y-100099161D01*
X122274465Y-100053826D01*
X122285899Y-100016133D01*
X122304466Y-99981397D01*
X122329452Y-99950952D01*
X122359897Y-99925966D01*
X122394633Y-99907399D01*
X122432326Y-99895965D01*
X122477661Y-99891500D01*
X123314339Y-99891500D01*
X123359674Y-99895965D01*
G37*
G36*
X125409674Y-99895965D02*
G01*
X125447367Y-99907399D01*
X125482103Y-99925966D01*
X125512548Y-99950952D01*
X125537534Y-99981397D01*
X125556101Y-100016133D01*
X125567535Y-100053826D01*
X125572000Y-100099161D01*
X125572000Y-101185839D01*
X125567535Y-101231174D01*
X125556101Y-101268867D01*
X125537534Y-101303603D01*
X125512548Y-101334048D01*
X125482103Y-101359034D01*
X125447367Y-101377601D01*
X125409674Y-101389035D01*
X125364339Y-101393500D01*
X124527661Y-101393500D01*
X124482326Y-101389035D01*
X124444633Y-101377601D01*
X124409897Y-101359034D01*
X124379452Y-101334048D01*
X124354466Y-101303603D01*
X124335899Y-101268867D01*
X124324465Y-101231174D01*
X124320000Y-101185839D01*
X124320000Y-100099161D01*
X124324465Y-100053826D01*
X124335899Y-100016133D01*
X124354466Y-99981397D01*
X124379452Y-99950952D01*
X124409897Y-99925966D01*
X124444633Y-99907399D01*
X124482326Y-99895965D01*
X124527661Y-99891500D01*
X125364339Y-99891500D01*
X125409674Y-99895965D01*
G37*
G36*
X143838674Y-99173465D02*
G01*
X143876367Y-99184899D01*
X143911103Y-99203466D01*
X143941548Y-99228452D01*
X143966534Y-99258897D01*
X143985101Y-99293633D01*
X143996535Y-99331326D01*
X144001000Y-99376661D01*
X144001000Y-100213339D01*
X143996535Y-100258674D01*
X143985101Y-100296367D01*
X143966534Y-100331103D01*
X143941548Y-100361548D01*
X143911103Y-100386534D01*
X143876367Y-100405101D01*
X143838674Y-100416535D01*
X143793339Y-100421000D01*
X142706661Y-100421000D01*
X142661326Y-100416535D01*
X142623633Y-100405101D01*
X142588897Y-100386534D01*
X142558452Y-100361548D01*
X142533466Y-100331103D01*
X142514899Y-100296367D01*
X142503465Y-100258674D01*
X142499000Y-100213339D01*
X142499000Y-99376661D01*
X142503465Y-99331326D01*
X142514899Y-99293633D01*
X142533466Y-99258897D01*
X142558452Y-99228452D01*
X142588897Y-99203466D01*
X142623633Y-99184899D01*
X142661326Y-99173465D01*
X142706661Y-99169000D01*
X143793339Y-99169000D01*
X143838674Y-99173465D01*
G37*
G36*
X116426355Y-98053640D02*
G01*
X116490118Y-98059920D01*
X116580904Y-98087460D01*
X116612836Y-98097146D01*
X116725925Y-98157594D01*
X116825054Y-98238946D01*
X116906406Y-98338075D01*
X116966854Y-98451164D01*
X116966855Y-98451168D01*
X117000413Y-98561792D01*
X117009787Y-98584425D01*
X117013500Y-98589982D01*
X117013500Y-98663386D01*
X117014102Y-98675638D01*
X117016649Y-98701500D01*
X117014102Y-98727362D01*
X117013500Y-98739614D01*
X117013500Y-99952500D01*
X115011500Y-99952500D01*
X115011500Y-98739614D01*
X115010898Y-98727362D01*
X115008351Y-98701500D01*
X115010898Y-98675638D01*
X115011500Y-98663386D01*
X115011500Y-98590094D01*
X115020457Y-98573336D01*
X115024585Y-98561799D01*
X115058145Y-98451168D01*
X115058146Y-98451164D01*
X115118594Y-98338075D01*
X115199946Y-98238946D01*
X115299075Y-98157594D01*
X115412164Y-98097146D01*
X115444096Y-98087460D01*
X115534882Y-98059920D01*
X115598645Y-98053640D01*
X115630526Y-98050500D01*
X116394474Y-98050500D01*
X116426355Y-98053640D01*
G37*
G36*
X167653512Y-97853927D02*
G01*
X167802812Y-97883624D01*
X167966784Y-97951544D01*
X168114354Y-98050147D01*
X168239853Y-98175646D01*
X168338456Y-98323216D01*
X168406376Y-98487188D01*
X168441000Y-98661259D01*
X168441000Y-98838741D01*
X168406376Y-99012812D01*
X168338456Y-99176784D01*
X168239853Y-99324354D01*
X168114354Y-99449853D01*
X167966784Y-99548456D01*
X167802812Y-99616376D01*
X167653512Y-99646073D01*
X167628742Y-99651000D01*
X167451258Y-99651000D01*
X167426488Y-99646073D01*
X167277188Y-99616376D01*
X167113216Y-99548456D01*
X166965646Y-99449853D01*
X166840147Y-99324354D01*
X166741544Y-99176784D01*
X166673624Y-99012812D01*
X166639000Y-98838741D01*
X166639000Y-98661259D01*
X166673624Y-98487188D01*
X166741544Y-98323216D01*
X166840147Y-98175646D01*
X166965646Y-98050147D01*
X167113216Y-97951544D01*
X167277188Y-97883624D01*
X167426488Y-97853927D01*
X167451258Y-97849000D01*
X167628742Y-97849000D01*
X167653512Y-97853927D01*
G37*
G36*
X165113512Y-97853927D02*
G01*
X165262812Y-97883624D01*
X165426784Y-97951544D01*
X165574354Y-98050147D01*
X165699853Y-98175646D01*
X165798456Y-98323216D01*
X165866376Y-98487188D01*
X165901000Y-98661259D01*
X165901000Y-98838741D01*
X165866376Y-99012812D01*
X165798456Y-99176784D01*
X165699853Y-99324354D01*
X165574354Y-99449853D01*
X165426784Y-99548456D01*
X165262812Y-99616376D01*
X165113512Y-99646073D01*
X165088742Y-99651000D01*
X164911258Y-99651000D01*
X164886488Y-99646073D01*
X164737188Y-99616376D01*
X164573216Y-99548456D01*
X164425646Y-99449853D01*
X164300147Y-99324354D01*
X164201544Y-99176784D01*
X164133624Y-99012812D01*
X164099000Y-98838741D01*
X164099000Y-98661259D01*
X164133624Y-98487188D01*
X164201544Y-98323216D01*
X164300147Y-98175646D01*
X164425646Y-98050147D01*
X164573216Y-97951544D01*
X164737188Y-97883624D01*
X164886488Y-97853927D01*
X164911258Y-97849000D01*
X165088742Y-97849000D01*
X165113512Y-97853927D01*
G37*
G36*
X125409674Y-97645965D02*
G01*
X125447367Y-97657399D01*
X125482103Y-97675966D01*
X125512548Y-97700952D01*
X125537534Y-97731397D01*
X125556101Y-97766133D01*
X125567535Y-97803826D01*
X125572000Y-97849161D01*
X125572000Y-98935839D01*
X125567535Y-98981174D01*
X125556101Y-99018867D01*
X125537534Y-99053603D01*
X125512548Y-99084048D01*
X125482103Y-99109034D01*
X125447367Y-99127601D01*
X125409674Y-99139035D01*
X125364339Y-99143500D01*
X124527661Y-99143500D01*
X124482326Y-99139035D01*
X124444633Y-99127601D01*
X124409897Y-99109034D01*
X124379452Y-99084048D01*
X124354466Y-99053603D01*
X124335899Y-99018867D01*
X124324465Y-98981174D01*
X124320000Y-98935839D01*
X124320000Y-97849161D01*
X124324465Y-97803826D01*
X124335899Y-97766133D01*
X124354466Y-97731397D01*
X124379452Y-97700952D01*
X124409897Y-97675966D01*
X124444633Y-97657399D01*
X124482326Y-97645965D01*
X124527661Y-97641500D01*
X125364339Y-97641500D01*
X125409674Y-97645965D01*
G37*
G36*
X123359674Y-97645965D02*
G01*
X123397367Y-97657399D01*
X123432103Y-97675966D01*
X123462548Y-97700952D01*
X123487534Y-97731397D01*
X123506101Y-97766133D01*
X123517535Y-97803826D01*
X123522000Y-97849161D01*
X123522000Y-98935839D01*
X123517535Y-98981174D01*
X123506101Y-99018867D01*
X123487534Y-99053603D01*
X123462548Y-99084048D01*
X123432103Y-99109034D01*
X123397367Y-99127601D01*
X123359674Y-99139035D01*
X123314339Y-99143500D01*
X122477661Y-99143500D01*
X122432326Y-99139035D01*
X122394633Y-99127601D01*
X122359897Y-99109034D01*
X122329452Y-99084048D01*
X122304466Y-99053603D01*
X122285899Y-99018867D01*
X122274465Y-98981174D01*
X122270000Y-98935839D01*
X122270000Y-97849161D01*
X122274465Y-97803826D01*
X122285899Y-97766133D01*
X122304466Y-97731397D01*
X122329452Y-97700952D01*
X122359897Y-97675966D01*
X122394633Y-97657399D01*
X122432326Y-97645965D01*
X122477661Y-97641500D01*
X123314339Y-97641500D01*
X123359674Y-97645965D01*
G37*
G36*
X143838674Y-97123465D02*
G01*
X143876367Y-97134899D01*
X143911103Y-97153466D01*
X143941548Y-97178452D01*
X143966534Y-97208897D01*
X143985101Y-97243633D01*
X143996535Y-97281326D01*
X144001000Y-97326661D01*
X144001000Y-98163339D01*
X143996535Y-98208674D01*
X143985101Y-98246367D01*
X143966534Y-98281103D01*
X143941548Y-98311548D01*
X143911103Y-98336534D01*
X143876367Y-98355101D01*
X143838674Y-98366535D01*
X143793339Y-98371000D01*
X142706661Y-98371000D01*
X142661326Y-98366535D01*
X142623633Y-98355101D01*
X142588897Y-98336534D01*
X142558452Y-98311548D01*
X142533466Y-98281103D01*
X142514899Y-98246367D01*
X142503465Y-98208674D01*
X142499000Y-98163339D01*
X142499000Y-97326661D01*
X142503465Y-97281326D01*
X142514899Y-97243633D01*
X142533466Y-97208897D01*
X142558452Y-97178452D01*
X142588897Y-97153466D01*
X142623633Y-97134899D01*
X142661326Y-97123465D01*
X142706661Y-97119000D01*
X143793339Y-97119000D01*
X143838674Y-97123465D01*
G37*
G36*
X165113512Y-95313927D02*
G01*
X165262812Y-95343624D01*
X165426784Y-95411544D01*
X165574354Y-95510147D01*
X165699853Y-95635646D01*
X165798456Y-95783216D01*
X165866376Y-95947188D01*
X165901000Y-96121259D01*
X165901000Y-96298741D01*
X165866376Y-96472812D01*
X165798456Y-96636784D01*
X165699853Y-96784354D01*
X165574354Y-96909853D01*
X165426784Y-97008456D01*
X165262812Y-97076376D01*
X165113512Y-97106073D01*
X165088742Y-97111000D01*
X164911258Y-97111000D01*
X164886488Y-97106073D01*
X164737188Y-97076376D01*
X164573216Y-97008456D01*
X164425646Y-96909853D01*
X164300147Y-96784354D01*
X164201544Y-96636784D01*
X164133624Y-96472812D01*
X164099000Y-96298741D01*
X164099000Y-96121259D01*
X164133624Y-95947188D01*
X164201544Y-95783216D01*
X164300147Y-95635646D01*
X164425646Y-95510147D01*
X164573216Y-95411544D01*
X164737188Y-95343624D01*
X164886488Y-95313927D01*
X164911258Y-95309000D01*
X165088742Y-95309000D01*
X165113512Y-95313927D01*
G37*
G36*
X167653512Y-95313927D02*
G01*
X167802812Y-95343624D01*
X167966784Y-95411544D01*
X168114354Y-95510147D01*
X168239853Y-95635646D01*
X168338456Y-95783216D01*
X168406376Y-95947188D01*
X168441000Y-96121259D01*
X168441000Y-96298741D01*
X168406376Y-96472812D01*
X168338456Y-96636784D01*
X168239853Y-96784354D01*
X168114354Y-96909853D01*
X167966784Y-97008456D01*
X167802812Y-97076376D01*
X167653512Y-97106073D01*
X167628742Y-97111000D01*
X167451258Y-97111000D01*
X167426488Y-97106073D01*
X167277188Y-97076376D01*
X167113216Y-97008456D01*
X166965646Y-96909853D01*
X166840147Y-96784354D01*
X166741544Y-96636784D01*
X166673624Y-96472812D01*
X166639000Y-96298741D01*
X166639000Y-96121259D01*
X166673624Y-95947188D01*
X166741544Y-95783216D01*
X166840147Y-95635646D01*
X166965646Y-95510147D01*
X167113216Y-95411544D01*
X167277188Y-95343624D01*
X167426488Y-95313927D01*
X167451258Y-95309000D01*
X167628742Y-95309000D01*
X167653512Y-95313927D01*
G37*
G36*
X162751000Y-96681000D02*
G01*
X161149000Y-96681000D01*
X161149000Y-95979000D01*
X162751000Y-95979000D01*
X162751000Y-96681000D01*
G37*
G36*
X157351000Y-96681000D02*
G01*
X155749000Y-96681000D01*
X155749000Y-95979000D01*
X157351000Y-95979000D01*
X157351000Y-96681000D01*
G37*
G36*
X149363512Y-94203927D02*
G01*
X149512812Y-94233624D01*
X149676784Y-94301544D01*
X149824354Y-94400147D01*
X149949853Y-94525646D01*
X150048456Y-94673216D01*
X150116376Y-94837188D01*
X150151000Y-95011259D01*
X150151000Y-95188741D01*
X150116376Y-95362812D01*
X150048456Y-95526784D01*
X149949853Y-95674354D01*
X149824354Y-95799853D01*
X149676784Y-95898456D01*
X149512812Y-95966376D01*
X149363512Y-95996073D01*
X149338742Y-96001000D01*
X149161258Y-96001000D01*
X149136488Y-95996073D01*
X148987188Y-95966376D01*
X148823216Y-95898456D01*
X148675646Y-95799853D01*
X148550147Y-95674354D01*
X148451544Y-95526784D01*
X148383624Y-95362812D01*
X148349000Y-95188741D01*
X148349000Y-95011259D01*
X148383624Y-94837188D01*
X148451544Y-94673216D01*
X148550147Y-94525646D01*
X148675646Y-94400147D01*
X148823216Y-94301544D01*
X148987188Y-94233624D01*
X149136488Y-94203927D01*
X149161258Y-94199000D01*
X149338742Y-94199000D01*
X149363512Y-94203927D01*
G37*
G36*
X151903512Y-94203927D02*
G01*
X152052812Y-94233624D01*
X152216784Y-94301544D01*
X152364354Y-94400147D01*
X152489853Y-94525646D01*
X152588456Y-94673216D01*
X152656376Y-94837188D01*
X152691000Y-95011259D01*
X152691000Y-95188741D01*
X152656376Y-95362812D01*
X152588456Y-95526784D01*
X152489853Y-95674354D01*
X152364354Y-95799853D01*
X152216784Y-95898456D01*
X152052812Y-95966376D01*
X151903512Y-95996073D01*
X151878742Y-96001000D01*
X151701258Y-96001000D01*
X151676488Y-95996073D01*
X151527188Y-95966376D01*
X151363216Y-95898456D01*
X151215646Y-95799853D01*
X151090147Y-95674354D01*
X150991544Y-95526784D01*
X150923624Y-95362812D01*
X150889000Y-95188741D01*
X150889000Y-95011259D01*
X150923624Y-94837188D01*
X150991544Y-94673216D01*
X151090147Y-94525646D01*
X151215646Y-94400147D01*
X151363216Y-94301544D01*
X151527188Y-94233624D01*
X151676488Y-94203927D01*
X151701258Y-94199000D01*
X151878742Y-94199000D01*
X151903512Y-94203927D01*
G37*
G36*
X157351000Y-95411000D02*
G01*
X155749000Y-95411000D01*
X155749000Y-94709000D01*
X157351000Y-94709000D01*
X157351000Y-95411000D01*
G37*
G36*
X162751000Y-95411000D02*
G01*
X161149000Y-95411000D01*
X161149000Y-94709000D01*
X162751000Y-94709000D01*
X162751000Y-95411000D01*
G37*
G36*
X145238674Y-93273465D02*
G01*
X145276367Y-93284899D01*
X145311103Y-93303466D01*
X145341548Y-93328452D01*
X145366534Y-93358897D01*
X145385101Y-93393633D01*
X145396535Y-93431326D01*
X145401000Y-93476661D01*
X145401000Y-94563339D01*
X145396535Y-94608674D01*
X145385101Y-94646367D01*
X145366534Y-94681103D01*
X145341548Y-94711548D01*
X145311103Y-94736534D01*
X145276367Y-94755101D01*
X145238674Y-94766535D01*
X145193339Y-94771000D01*
X144356661Y-94771000D01*
X144311326Y-94766535D01*
X144273633Y-94755101D01*
X144238897Y-94736534D01*
X144208452Y-94711548D01*
X144183466Y-94681103D01*
X144164899Y-94646367D01*
X144153465Y-94608674D01*
X144149000Y-94563339D01*
X144149000Y-93476661D01*
X144153465Y-93431326D01*
X144164899Y-93393633D01*
X144183466Y-93358897D01*
X144208452Y-93328452D01*
X144238897Y-93303466D01*
X144273633Y-93284899D01*
X144311326Y-93273465D01*
X144356661Y-93269000D01*
X145193339Y-93269000D01*
X145238674Y-93273465D01*
G37*
G36*
X143188674Y-93273465D02*
G01*
X143226367Y-93284899D01*
X143261103Y-93303466D01*
X143291548Y-93328452D01*
X143316534Y-93358897D01*
X143335101Y-93393633D01*
X143346535Y-93431326D01*
X143351000Y-93476661D01*
X143351000Y-94563339D01*
X143346535Y-94608674D01*
X143335101Y-94646367D01*
X143316534Y-94681103D01*
X143291548Y-94711548D01*
X143261103Y-94736534D01*
X143226367Y-94755101D01*
X143188674Y-94766535D01*
X143143339Y-94771000D01*
X142306661Y-94771000D01*
X142261326Y-94766535D01*
X142223633Y-94755101D01*
X142188897Y-94736534D01*
X142158452Y-94711548D01*
X142133466Y-94681103D01*
X142114899Y-94646367D01*
X142103465Y-94608674D01*
X142099000Y-94563339D01*
X142099000Y-93476661D01*
X142103465Y-93431326D01*
X142114899Y-93393633D01*
X142133466Y-93358897D01*
X142158452Y-93328452D01*
X142188897Y-93303466D01*
X142223633Y-93284899D01*
X142261326Y-93273465D01*
X142306661Y-93269000D01*
X143143339Y-93269000D01*
X143188674Y-93273465D01*
G37*
G36*
X167653512Y-92773927D02*
G01*
X167802812Y-92803624D01*
X167966784Y-92871544D01*
X168114354Y-92970147D01*
X168239853Y-93095646D01*
X168338456Y-93243216D01*
X168406376Y-93407188D01*
X168441000Y-93581259D01*
X168441000Y-93758741D01*
X168406376Y-93932812D01*
X168338456Y-94096784D01*
X168239853Y-94244354D01*
X168114354Y-94369853D01*
X167966784Y-94468456D01*
X167802812Y-94536376D01*
X167667256Y-94563339D01*
X167628742Y-94571000D01*
X167451258Y-94571000D01*
X167412744Y-94563339D01*
X167277188Y-94536376D01*
X167113216Y-94468456D01*
X166965646Y-94369853D01*
X166840147Y-94244354D01*
X166741544Y-94096784D01*
X166673624Y-93932812D01*
X166639000Y-93758741D01*
X166639000Y-93581259D01*
X166673624Y-93407188D01*
X166741544Y-93243216D01*
X166840147Y-93095646D01*
X166965646Y-92970147D01*
X167113216Y-92871544D01*
X167277188Y-92803624D01*
X167426488Y-92773927D01*
X167451258Y-92769000D01*
X167628742Y-92769000D01*
X167653512Y-92773927D01*
G37*
G36*
X165113512Y-92773927D02*
G01*
X165262812Y-92803624D01*
X165426784Y-92871544D01*
X165574354Y-92970147D01*
X165699853Y-93095646D01*
X165798456Y-93243216D01*
X165866376Y-93407188D01*
X165901000Y-93581259D01*
X165901000Y-93758741D01*
X165866376Y-93932812D01*
X165798456Y-94096784D01*
X165699853Y-94244354D01*
X165574354Y-94369853D01*
X165426784Y-94468456D01*
X165262812Y-94536376D01*
X165127256Y-94563339D01*
X165088742Y-94571000D01*
X164911258Y-94571000D01*
X164872744Y-94563339D01*
X164737188Y-94536376D01*
X164573216Y-94468456D01*
X164425646Y-94369853D01*
X164300147Y-94244354D01*
X164201544Y-94096784D01*
X164133624Y-93932812D01*
X164099000Y-93758741D01*
X164099000Y-93581259D01*
X164133624Y-93407188D01*
X164201544Y-93243216D01*
X164300147Y-93095646D01*
X164425646Y-92970147D01*
X164573216Y-92871544D01*
X164737188Y-92803624D01*
X164886488Y-92773927D01*
X164911258Y-92769000D01*
X165088742Y-92769000D01*
X165113512Y-92773927D01*
G37*
G36*
X157351000Y-94141000D02*
G01*
X155749000Y-94141000D01*
X155749000Y-93439000D01*
X157351000Y-93439000D01*
X157351000Y-94141000D01*
G37*
G36*
X162751000Y-94141000D02*
G01*
X161149000Y-94141000D01*
X161149000Y-93439000D01*
X162751000Y-93439000D01*
X162751000Y-94141000D01*
G37*
G36*
X151903512Y-91663927D02*
G01*
X152052812Y-91693624D01*
X152216784Y-91761544D01*
X152364354Y-91860147D01*
X152489853Y-91985646D01*
X152588456Y-92133216D01*
X152656376Y-92297188D01*
X152691000Y-92471259D01*
X152691000Y-92648741D01*
X152656376Y-92822812D01*
X152588456Y-92986784D01*
X152489853Y-93134354D01*
X152364354Y-93259853D01*
X152216784Y-93358456D01*
X152052812Y-93426376D01*
X151903512Y-93456073D01*
X151878742Y-93461000D01*
X151701258Y-93461000D01*
X151676488Y-93456073D01*
X151527188Y-93426376D01*
X151363216Y-93358456D01*
X151215646Y-93259853D01*
X151090147Y-93134354D01*
X150991544Y-92986784D01*
X150923624Y-92822812D01*
X150889000Y-92648741D01*
X150889000Y-92471259D01*
X150923624Y-92297188D01*
X150991544Y-92133216D01*
X151090147Y-91985646D01*
X151215646Y-91860147D01*
X151363216Y-91761544D01*
X151527188Y-91693624D01*
X151676488Y-91663927D01*
X151701258Y-91659000D01*
X151878742Y-91659000D01*
X151903512Y-91663927D01*
G37*
G36*
X149363512Y-91663927D02*
G01*
X149512812Y-91693624D01*
X149676784Y-91761544D01*
X149824354Y-91860147D01*
X149949853Y-91985646D01*
X150048456Y-92133216D01*
X150116376Y-92297188D01*
X150151000Y-92471259D01*
X150151000Y-92648741D01*
X150116376Y-92822812D01*
X150048456Y-92986784D01*
X149949853Y-93134354D01*
X149824354Y-93259853D01*
X149676784Y-93358456D01*
X149512812Y-93426376D01*
X149363512Y-93456073D01*
X149338742Y-93461000D01*
X149161258Y-93461000D01*
X149136488Y-93456073D01*
X148987188Y-93426376D01*
X148823216Y-93358456D01*
X148675646Y-93259853D01*
X148550147Y-93134354D01*
X148451544Y-92986784D01*
X148383624Y-92822812D01*
X148349000Y-92648741D01*
X148349000Y-92471259D01*
X148383624Y-92297188D01*
X148451544Y-92133216D01*
X148550147Y-91985646D01*
X148675646Y-91860147D01*
X148823216Y-91761544D01*
X148987188Y-91693624D01*
X149136488Y-91663927D01*
X149161258Y-91659000D01*
X149338742Y-91659000D01*
X149363512Y-91663927D01*
G37*
G36*
X162751000Y-92871000D02*
G01*
X161149000Y-92871000D01*
X161149000Y-92169000D01*
X162751000Y-92169000D01*
X162751000Y-92871000D01*
G37*
G36*
X157351000Y-92871000D02*
G01*
X155749000Y-92871000D01*
X155749000Y-92169000D01*
X157351000Y-92169000D01*
X157351000Y-92871000D01*
G37*
G36*
X165113512Y-90233927D02*
G01*
X165262812Y-90263624D01*
X165426784Y-90331544D01*
X165574354Y-90430147D01*
X165699853Y-90555646D01*
X165798456Y-90703216D01*
X165866376Y-90867188D01*
X165901000Y-91041259D01*
X165901000Y-91218741D01*
X165866376Y-91392812D01*
X165798456Y-91556784D01*
X165699853Y-91704354D01*
X165574354Y-91829853D01*
X165426784Y-91928456D01*
X165262812Y-91996376D01*
X165113512Y-92026073D01*
X165088742Y-92031000D01*
X164911258Y-92031000D01*
X164886488Y-92026073D01*
X164737188Y-91996376D01*
X164573216Y-91928456D01*
X164425646Y-91829853D01*
X164300147Y-91704354D01*
X164201544Y-91556784D01*
X164133624Y-91392812D01*
X164099000Y-91218741D01*
X164099000Y-91041259D01*
X164133624Y-90867188D01*
X164201544Y-90703216D01*
X164300147Y-90555646D01*
X164425646Y-90430147D01*
X164573216Y-90331544D01*
X164737188Y-90263624D01*
X164886488Y-90233927D01*
X164911258Y-90229000D01*
X165088742Y-90229000D01*
X165113512Y-90233927D01*
G37*
G36*
X167653512Y-90233927D02*
G01*
X167802812Y-90263624D01*
X167966784Y-90331544D01*
X168114354Y-90430147D01*
X168239853Y-90555646D01*
X168338456Y-90703216D01*
X168406376Y-90867188D01*
X168441000Y-91041259D01*
X168441000Y-91218741D01*
X168406376Y-91392812D01*
X168338456Y-91556784D01*
X168239853Y-91704354D01*
X168114354Y-91829853D01*
X167966784Y-91928456D01*
X167802812Y-91996376D01*
X167653512Y-92026073D01*
X167628742Y-92031000D01*
X167451258Y-92031000D01*
X167426488Y-92026073D01*
X167277188Y-91996376D01*
X167113216Y-91928456D01*
X166965646Y-91829853D01*
X166840147Y-91704354D01*
X166741544Y-91556784D01*
X166673624Y-91392812D01*
X166639000Y-91218741D01*
X166639000Y-91041259D01*
X166673624Y-90867188D01*
X166741544Y-90703216D01*
X166840147Y-90555646D01*
X166965646Y-90430147D01*
X167113216Y-90331544D01*
X167277188Y-90263624D01*
X167426488Y-90233927D01*
X167451258Y-90229000D01*
X167628742Y-90229000D01*
X167653512Y-90233927D01*
G37*
G36*
X157351000Y-91601000D02*
G01*
X155749000Y-91601000D01*
X155749000Y-90899000D01*
X157351000Y-90899000D01*
X157351000Y-91601000D01*
G37*
G36*
X162751000Y-91601000D02*
G01*
X161149000Y-91601000D01*
X161149000Y-90899000D01*
X162751000Y-90899000D01*
X162751000Y-91601000D01*
G37*
G36*
X142737395Y-89105546D02*
G01*
X142910466Y-89177234D01*
X142910467Y-89177235D01*
X143066227Y-89281310D01*
X143198690Y-89413773D01*
X143227156Y-89456376D01*
X143302766Y-89569534D01*
X143374454Y-89742605D01*
X143411000Y-89926333D01*
X143411000Y-90113667D01*
X143374454Y-90297395D01*
X143302766Y-90470466D01*
X143302765Y-90470467D01*
X143198690Y-90626227D01*
X143066227Y-90758690D01*
X142987818Y-90811081D01*
X142910466Y-90862766D01*
X142737395Y-90934454D01*
X142553667Y-90971000D01*
X142366333Y-90971000D01*
X142182605Y-90934454D01*
X142009534Y-90862766D01*
X141932182Y-90811081D01*
X141853773Y-90758690D01*
X141721310Y-90626227D01*
X141617235Y-90470467D01*
X141617234Y-90470466D01*
X141545546Y-90297395D01*
X141509000Y-90113667D01*
X141509000Y-89926333D01*
X141545546Y-89742605D01*
X141617234Y-89569534D01*
X141692844Y-89456376D01*
X141721310Y-89413773D01*
X141853773Y-89281310D01*
X142009533Y-89177235D01*
X142009534Y-89177234D01*
X142182605Y-89105546D01*
X142366333Y-89069000D01*
X142553667Y-89069000D01*
X142737395Y-89105546D01*
G37*
G36*
X145951000Y-90971000D02*
G01*
X144049000Y-90971000D01*
X144049000Y-89069000D01*
X145951000Y-89069000D01*
X145951000Y-90971000D01*
G37*
G36*
X151903512Y-89123927D02*
G01*
X152052812Y-89153624D01*
X152216784Y-89221544D01*
X152364354Y-89320147D01*
X152489853Y-89445646D01*
X152588456Y-89593216D01*
X152656376Y-89757188D01*
X152691000Y-89931259D01*
X152691000Y-90108741D01*
X152656376Y-90282812D01*
X152588456Y-90446784D01*
X152489853Y-90594354D01*
X152364354Y-90719853D01*
X152216784Y-90818456D01*
X152052812Y-90886376D01*
X151903512Y-90916073D01*
X151878742Y-90921000D01*
X151701258Y-90921000D01*
X151676488Y-90916073D01*
X151527188Y-90886376D01*
X151363216Y-90818456D01*
X151215646Y-90719853D01*
X151090147Y-90594354D01*
X150991544Y-90446784D01*
X150923624Y-90282812D01*
X150889000Y-90108741D01*
X150889000Y-89931259D01*
X150923624Y-89757188D01*
X150991544Y-89593216D01*
X151090147Y-89445646D01*
X151215646Y-89320147D01*
X151363216Y-89221544D01*
X151527188Y-89153624D01*
X151676488Y-89123927D01*
X151701258Y-89119000D01*
X151878742Y-89119000D01*
X151903512Y-89123927D01*
G37*
G36*
X150151000Y-90921000D02*
G01*
X148349000Y-90921000D01*
X148349000Y-89119000D01*
X150151000Y-89119000D01*
X150151000Y-90921000D01*
G37*
G36*
X162751000Y-90331000D02*
G01*
X161149000Y-90331000D01*
X161149000Y-89629000D01*
X162751000Y-89629000D01*
X162751000Y-90331000D01*
G37*
G36*
X157351000Y-90331000D02*
G01*
X155749000Y-90331000D01*
X155749000Y-89629000D01*
X157351000Y-89629000D01*
X157351000Y-90331000D01*
G37*
G36*
X167653512Y-87693927D02*
G01*
X167802812Y-87723624D01*
X167966784Y-87791544D01*
X168114354Y-87890147D01*
X168239853Y-88015646D01*
X168338456Y-88163216D01*
X168406376Y-88327188D01*
X168441000Y-88501259D01*
X168441000Y-88678741D01*
X168406376Y-88852812D01*
X168338456Y-89016784D01*
X168239853Y-89164354D01*
X168114354Y-89289853D01*
X167966784Y-89388456D01*
X167802812Y-89456376D01*
X167653512Y-89486073D01*
X167628742Y-89491000D01*
X167451258Y-89491000D01*
X167426488Y-89486073D01*
X167277188Y-89456376D01*
X167113216Y-89388456D01*
X166965646Y-89289853D01*
X166840147Y-89164354D01*
X166741544Y-89016784D01*
X166673624Y-88852812D01*
X166639000Y-88678741D01*
X166639000Y-88501259D01*
X166673624Y-88327188D01*
X166741544Y-88163216D01*
X166840147Y-88015646D01*
X166965646Y-87890147D01*
X167113216Y-87791544D01*
X167277188Y-87723624D01*
X167426488Y-87693927D01*
X167451258Y-87689000D01*
X167628742Y-87689000D01*
X167653512Y-87693927D01*
G37*
G36*
X165113512Y-87693927D02*
G01*
X165262812Y-87723624D01*
X165426784Y-87791544D01*
X165574354Y-87890147D01*
X165699853Y-88015646D01*
X165798456Y-88163216D01*
X165866376Y-88327188D01*
X165901000Y-88501259D01*
X165901000Y-88678741D01*
X165866376Y-88852812D01*
X165798456Y-89016784D01*
X165699853Y-89164354D01*
X165574354Y-89289853D01*
X165426784Y-89388456D01*
X165262812Y-89456376D01*
X165113512Y-89486073D01*
X165088742Y-89491000D01*
X164911258Y-89491000D01*
X164886488Y-89486073D01*
X164737188Y-89456376D01*
X164573216Y-89388456D01*
X164425646Y-89289853D01*
X164300147Y-89164354D01*
X164201544Y-89016784D01*
X164133624Y-88852812D01*
X164099000Y-88678741D01*
X164099000Y-88501259D01*
X164133624Y-88327188D01*
X164201544Y-88163216D01*
X164300147Y-88015646D01*
X164425646Y-87890147D01*
X164573216Y-87791544D01*
X164737188Y-87723624D01*
X164886488Y-87693927D01*
X164911258Y-87689000D01*
X165088742Y-87689000D01*
X165113512Y-87693927D01*
G37*
G36*
X127316890Y-88210017D02*
G01*
X127435364Y-88259091D01*
X127541988Y-88330335D01*
X127632665Y-88421012D01*
X127703909Y-88527636D01*
X127752983Y-88646110D01*
X127778000Y-88771882D01*
X127778000Y-88900118D01*
X127752983Y-89025890D01*
X127703909Y-89144364D01*
X127632665Y-89250988D01*
X127541988Y-89341665D01*
X127435364Y-89412909D01*
X127435363Y-89412910D01*
X127435362Y-89412910D01*
X127316890Y-89461983D01*
X127191119Y-89487000D01*
X127062881Y-89487000D01*
X126937110Y-89461983D01*
X126818638Y-89412910D01*
X126818637Y-89412910D01*
X126818636Y-89412909D01*
X126712012Y-89341665D01*
X126621335Y-89250988D01*
X126550091Y-89144364D01*
X126501017Y-89025890D01*
X126476000Y-88900118D01*
X126476000Y-88771882D01*
X126501017Y-88646110D01*
X126550091Y-88527636D01*
X126621335Y-88421012D01*
X126712012Y-88330335D01*
X126818636Y-88259091D01*
X126937110Y-88210017D01*
X127062881Y-88185000D01*
X127191119Y-88185000D01*
X127316890Y-88210017D01*
G37*
G36*
X162751000Y-89061000D02*
G01*
X161149000Y-89061000D01*
X161149000Y-88359000D01*
X162751000Y-88359000D01*
X162751000Y-89061000D01*
G37*
G36*
X157351000Y-89061000D02*
G01*
X155749000Y-89061000D01*
X155749000Y-88359000D01*
X157351000Y-88359000D01*
X157351000Y-89061000D01*
G37*
G36*
X165113512Y-85153927D02*
G01*
X165262812Y-85183624D01*
X165426784Y-85251544D01*
X165574354Y-85350147D01*
X165699853Y-85475646D01*
X165798456Y-85623216D01*
X165866376Y-85787188D01*
X165901000Y-85961259D01*
X165901000Y-86138741D01*
X165866376Y-86312812D01*
X165798456Y-86476784D01*
X165699853Y-86624354D01*
X165574354Y-86749853D01*
X165426784Y-86848456D01*
X165262812Y-86916376D01*
X165113512Y-86946073D01*
X165088742Y-86951000D01*
X164911258Y-86951000D01*
X164886488Y-86946073D01*
X164737188Y-86916376D01*
X164573216Y-86848456D01*
X164425646Y-86749853D01*
X164300147Y-86624354D01*
X164201544Y-86476784D01*
X164133624Y-86312812D01*
X164099000Y-86138741D01*
X164099000Y-85961259D01*
X164133624Y-85787188D01*
X164201544Y-85623216D01*
X164300147Y-85475646D01*
X164425646Y-85350147D01*
X164573216Y-85251544D01*
X164737188Y-85183624D01*
X164886488Y-85153927D01*
X164911258Y-85149000D01*
X165088742Y-85149000D01*
X165113512Y-85153927D01*
G37*
G36*
X167653512Y-85153927D02*
G01*
X167802812Y-85183624D01*
X167966784Y-85251544D01*
X168114354Y-85350147D01*
X168239853Y-85475646D01*
X168338456Y-85623216D01*
X168406376Y-85787188D01*
X168441000Y-85961259D01*
X168441000Y-86138741D01*
X168406376Y-86312812D01*
X168338456Y-86476784D01*
X168239853Y-86624354D01*
X168114354Y-86749853D01*
X167966784Y-86848456D01*
X167802812Y-86916376D01*
X167653512Y-86946073D01*
X167628742Y-86951000D01*
X167451258Y-86951000D01*
X167426488Y-86946073D01*
X167277188Y-86916376D01*
X167113216Y-86848456D01*
X166965646Y-86749853D01*
X166840147Y-86624354D01*
X166741544Y-86476784D01*
X166673624Y-86312812D01*
X166639000Y-86138741D01*
X166639000Y-85961259D01*
X166673624Y-85787188D01*
X166741544Y-85623216D01*
X166840147Y-85475646D01*
X166965646Y-85350147D01*
X167113216Y-85251544D01*
X167277188Y-85183624D01*
X167426488Y-85153927D01*
X167451258Y-85149000D01*
X167628742Y-85149000D01*
X167653512Y-85153927D01*
G37*
G36*
X161801000Y-86301000D02*
G01*
X159999000Y-86301000D01*
X159999000Y-85549000D01*
X161801000Y-85549000D01*
X161801000Y-86301000D01*
G37*
G36*
X154501000Y-86301000D02*
G01*
X152699000Y-86301000D01*
X152699000Y-85549000D01*
X154501000Y-85549000D01*
X154501000Y-86301000D01*
G37*
G36*
X148702915Y-84043334D02*
G01*
X148811491Y-84076271D01*
X148811494Y-84076272D01*
X148847600Y-84095571D01*
X148911556Y-84129756D01*
X148999264Y-84201736D01*
X149071244Y-84289443D01*
X149105429Y-84353399D01*
X149124728Y-84389505D01*
X149124729Y-84389508D01*
X149157666Y-84498084D01*
X149166000Y-84582702D01*
X149166000Y-85089297D01*
X149157666Y-85173916D01*
X149125252Y-85280767D01*
X149124728Y-85282495D01*
X149114761Y-85301141D01*
X149071244Y-85382557D01*
X148999264Y-85470264D01*
X148911557Y-85542244D01*
X148847601Y-85576429D01*
X148811495Y-85595728D01*
X148811492Y-85595729D01*
X148702916Y-85628666D01*
X148590000Y-85639787D01*
X148477085Y-85628666D01*
X148368509Y-85595729D01*
X148368506Y-85595728D01*
X148332400Y-85576429D01*
X148268444Y-85542244D01*
X148180737Y-85470264D01*
X148108757Y-85382557D01*
X148065239Y-85301141D01*
X148051625Y-85280766D01*
X148034298Y-85263439D01*
X148013924Y-85249826D01*
X147991285Y-85240448D01*
X147967252Y-85235668D01*
X147942748Y-85235668D01*
X147918715Y-85240448D01*
X147896076Y-85249826D01*
X147875701Y-85263440D01*
X147858374Y-85280767D01*
X147844761Y-85301141D01*
X147801244Y-85382557D01*
X147729264Y-85470264D01*
X147641557Y-85542244D01*
X147577601Y-85576429D01*
X147541495Y-85595728D01*
X147541492Y-85595729D01*
X147432916Y-85628666D01*
X147320000Y-85639787D01*
X147207085Y-85628666D01*
X147098509Y-85595729D01*
X147098506Y-85595728D01*
X147062400Y-85576429D01*
X146998444Y-85542244D01*
X146910737Y-85470264D01*
X146847622Y-85393359D01*
X146830297Y-85376034D01*
X146809923Y-85362420D01*
X146787284Y-85353043D01*
X146763250Y-85348263D01*
X146738746Y-85348263D01*
X146714713Y-85353044D01*
X146692074Y-85362421D01*
X146671700Y-85376035D01*
X146654373Y-85393362D01*
X146640759Y-85413736D01*
X146631382Y-85436375D01*
X146626000Y-85472660D01*
X146626000Y-85637000D01*
X145474000Y-85637000D01*
X145474000Y-84035000D01*
X146626000Y-84035000D01*
X146626000Y-84199341D01*
X146628402Y-84223727D01*
X146635515Y-84247176D01*
X146647066Y-84268787D01*
X146662611Y-84287729D01*
X146681553Y-84303274D01*
X146703164Y-84314825D01*
X146726613Y-84321938D01*
X146750999Y-84324340D01*
X146775385Y-84321938D01*
X146798834Y-84314825D01*
X146820445Y-84303274D01*
X146839387Y-84287729D01*
X146847608Y-84278657D01*
X146910736Y-84201736D01*
X146998443Y-84129756D01*
X147062399Y-84095571D01*
X147098505Y-84076272D01*
X147098508Y-84076271D01*
X147207084Y-84043334D01*
X147320000Y-84032213D01*
X147432915Y-84043334D01*
X147541491Y-84076271D01*
X147541494Y-84076272D01*
X147577600Y-84095571D01*
X147641556Y-84129756D01*
X147729264Y-84201736D01*
X147801244Y-84289443D01*
X147844761Y-84370859D01*
X147858375Y-84391234D01*
X147875702Y-84408561D01*
X147896076Y-84422174D01*
X147918715Y-84431552D01*
X147942748Y-84436332D01*
X147967252Y-84436332D01*
X147991285Y-84431552D01*
X148013924Y-84422174D01*
X148034299Y-84408560D01*
X148051626Y-84391233D01*
X148065239Y-84370860D01*
X148108756Y-84289444D01*
X148180736Y-84201736D01*
X148268443Y-84129756D01*
X148332399Y-84095571D01*
X148368505Y-84076272D01*
X148368508Y-84076271D01*
X148477084Y-84043334D01*
X148590000Y-84032213D01*
X148702915Y-84043334D01*
G37*
G36*
X135578000Y-85637000D02*
G01*
X133476000Y-85637000D01*
X133476000Y-84035000D01*
X135578000Y-84035000D01*
X135578000Y-85637000D01*
G37*
G36*
X120778000Y-85637000D02*
G01*
X118676000Y-85637000D01*
X118676000Y-84035000D01*
X120778000Y-84035000D01*
X120778000Y-85637000D01*
G37*
G36*
X154501000Y-85031000D02*
G01*
X152699000Y-85031000D01*
X152699000Y-84279000D01*
X154501000Y-84279000D01*
X154501000Y-85031000D01*
G37*
G36*
X161801000Y-85031000D02*
G01*
X159999000Y-85031000D01*
X159999000Y-84279000D01*
X161801000Y-84279000D01*
X161801000Y-85031000D01*
G37*
G36*
X139108674Y-83659465D02*
G01*
X139146367Y-83670899D01*
X139181103Y-83689466D01*
X139211548Y-83714452D01*
X139236534Y-83744897D01*
X139255101Y-83779633D01*
X139266535Y-83817326D01*
X139271000Y-83862661D01*
X139271000Y-84699339D01*
X139266535Y-84744674D01*
X139255101Y-84782367D01*
X139236534Y-84817103D01*
X139211548Y-84847548D01*
X139181103Y-84872534D01*
X139146367Y-84891101D01*
X139108674Y-84902535D01*
X139063339Y-84907000D01*
X137976661Y-84907000D01*
X137931326Y-84902535D01*
X137893633Y-84891101D01*
X137858897Y-84872534D01*
X137828452Y-84847548D01*
X137803466Y-84817103D01*
X137784899Y-84782367D01*
X137773465Y-84744674D01*
X137769000Y-84699339D01*
X137769000Y-83862661D01*
X137773465Y-83817326D01*
X137784899Y-83779633D01*
X137803466Y-83744897D01*
X137828452Y-83714452D01*
X137858897Y-83689466D01*
X137893633Y-83670899D01*
X137931326Y-83659465D01*
X137976661Y-83655000D01*
X139063339Y-83655000D01*
X139108674Y-83659465D01*
G37*
G36*
X141648674Y-83659465D02*
G01*
X141686367Y-83670899D01*
X141721103Y-83689466D01*
X141751548Y-83714452D01*
X141776534Y-83744897D01*
X141795101Y-83779633D01*
X141806535Y-83817326D01*
X141811000Y-83862661D01*
X141811000Y-84699339D01*
X141806535Y-84744674D01*
X141795101Y-84782367D01*
X141776534Y-84817103D01*
X141751548Y-84847548D01*
X141721103Y-84872534D01*
X141686367Y-84891101D01*
X141648674Y-84902535D01*
X141603339Y-84907000D01*
X140516661Y-84907000D01*
X140471326Y-84902535D01*
X140433633Y-84891101D01*
X140398897Y-84872534D01*
X140368452Y-84847548D01*
X140343466Y-84817103D01*
X140324899Y-84782367D01*
X140313465Y-84744674D01*
X140309000Y-84699339D01*
X140309000Y-83862661D01*
X140313465Y-83817326D01*
X140324899Y-83779633D01*
X140343466Y-83744897D01*
X140368452Y-83714452D01*
X140398897Y-83689466D01*
X140433633Y-83670899D01*
X140471326Y-83659465D01*
X140516661Y-83655000D01*
X141603339Y-83655000D01*
X141648674Y-83659465D01*
G37*
G36*
X167653512Y-82613927D02*
G01*
X167802812Y-82643624D01*
X167966784Y-82711544D01*
X168114354Y-82810147D01*
X168239853Y-82935646D01*
X168338456Y-83083216D01*
X168406376Y-83247188D01*
X168441000Y-83421259D01*
X168441000Y-83598741D01*
X168406376Y-83772812D01*
X168338456Y-83936784D01*
X168239853Y-84084354D01*
X168114354Y-84209853D01*
X167966784Y-84308456D01*
X167802812Y-84376376D01*
X167653512Y-84406073D01*
X167628742Y-84411000D01*
X167451258Y-84411000D01*
X167426488Y-84406073D01*
X167277188Y-84376376D01*
X167113216Y-84308456D01*
X166965646Y-84209853D01*
X166840147Y-84084354D01*
X166741544Y-83936784D01*
X166673624Y-83772812D01*
X166639000Y-83598741D01*
X166639000Y-83421259D01*
X166673624Y-83247188D01*
X166741544Y-83083216D01*
X166840147Y-82935646D01*
X166965646Y-82810147D01*
X167113216Y-82711544D01*
X167277188Y-82643624D01*
X167426488Y-82613927D01*
X167451258Y-82609000D01*
X167628742Y-82609000D01*
X167653512Y-82613927D01*
G37*
G36*
X165113512Y-82613927D02*
G01*
X165262812Y-82643624D01*
X165426784Y-82711544D01*
X165574354Y-82810147D01*
X165699853Y-82935646D01*
X165798456Y-83083216D01*
X165866376Y-83247188D01*
X165901000Y-83421259D01*
X165901000Y-83598741D01*
X165866376Y-83772812D01*
X165798456Y-83936784D01*
X165699853Y-84084354D01*
X165574354Y-84209853D01*
X165426784Y-84308456D01*
X165262812Y-84376376D01*
X165113512Y-84406073D01*
X165088742Y-84411000D01*
X164911258Y-84411000D01*
X164886488Y-84406073D01*
X164737188Y-84376376D01*
X164573216Y-84308456D01*
X164425646Y-84209853D01*
X164300147Y-84084354D01*
X164201544Y-83936784D01*
X164133624Y-83772812D01*
X164099000Y-83598741D01*
X164099000Y-83421259D01*
X164133624Y-83247188D01*
X164201544Y-83083216D01*
X164300147Y-82935646D01*
X164425646Y-82810147D01*
X164573216Y-82711544D01*
X164737188Y-82643624D01*
X164886488Y-82613927D01*
X164911258Y-82609000D01*
X165088742Y-82609000D01*
X165113512Y-82613927D01*
G37*
G36*
X161801000Y-83761000D02*
G01*
X159999000Y-83761000D01*
X159999000Y-83009000D01*
X161801000Y-83009000D01*
X161801000Y-83761000D01*
G37*
G36*
X154501000Y-83761000D02*
G01*
X152699000Y-83761000D01*
X152699000Y-83009000D01*
X154501000Y-83009000D01*
X154501000Y-83761000D01*
G37*
G36*
X139108674Y-81609465D02*
G01*
X139146367Y-81620899D01*
X139181103Y-81639466D01*
X139211548Y-81664452D01*
X139236534Y-81694897D01*
X139255101Y-81729633D01*
X139266535Y-81767326D01*
X139271000Y-81812661D01*
X139271000Y-82649339D01*
X139266535Y-82694674D01*
X139255101Y-82732367D01*
X139236534Y-82767103D01*
X139211548Y-82797548D01*
X139181103Y-82822534D01*
X139146367Y-82841101D01*
X139108674Y-82852535D01*
X139063339Y-82857000D01*
X137976661Y-82857000D01*
X137931326Y-82852535D01*
X137893633Y-82841101D01*
X137858897Y-82822534D01*
X137828452Y-82797548D01*
X137803466Y-82767103D01*
X137784899Y-82732367D01*
X137773465Y-82694674D01*
X137769000Y-82649339D01*
X137769000Y-81812661D01*
X137773465Y-81767326D01*
X137784899Y-81729633D01*
X137803466Y-81694897D01*
X137828452Y-81664452D01*
X137858897Y-81639466D01*
X137893633Y-81620899D01*
X137931326Y-81609465D01*
X137976661Y-81605000D01*
X139063339Y-81605000D01*
X139108674Y-81609465D01*
G37*
G36*
X141648674Y-81609465D02*
G01*
X141686367Y-81620899D01*
X141721103Y-81639466D01*
X141751548Y-81664452D01*
X141776534Y-81694897D01*
X141795101Y-81729633D01*
X141806535Y-81767326D01*
X141811000Y-81812661D01*
X141811000Y-82649339D01*
X141806535Y-82694674D01*
X141795101Y-82732367D01*
X141776534Y-82767103D01*
X141751548Y-82797548D01*
X141721103Y-82822534D01*
X141686367Y-82841101D01*
X141648674Y-82852535D01*
X141603339Y-82857000D01*
X140516661Y-82857000D01*
X140471326Y-82852535D01*
X140433633Y-82841101D01*
X140398897Y-82822534D01*
X140368452Y-82797548D01*
X140343466Y-82767103D01*
X140324899Y-82732367D01*
X140313465Y-82694674D01*
X140309000Y-82649339D01*
X140309000Y-81812661D01*
X140313465Y-81767326D01*
X140324899Y-81729633D01*
X140343466Y-81694897D01*
X140368452Y-81664452D01*
X140398897Y-81639466D01*
X140433633Y-81620899D01*
X140471326Y-81609465D01*
X140516661Y-81605000D01*
X141603339Y-81605000D01*
X141648674Y-81609465D01*
G37*
G36*
X161801000Y-82491000D02*
G01*
X159999000Y-82491000D01*
X159999000Y-81739000D01*
X161801000Y-81739000D01*
X161801000Y-82491000D01*
G37*
G36*
X154501000Y-82491000D02*
G01*
X152699000Y-82491000D01*
X152699000Y-81739000D01*
X154501000Y-81739000D01*
X154501000Y-82491000D01*
G37*
G36*
X167653512Y-80073927D02*
G01*
X167802812Y-80103624D01*
X167966784Y-80171544D01*
X168114354Y-80270147D01*
X168239853Y-80395646D01*
X168338456Y-80543216D01*
X168406376Y-80707188D01*
X168441000Y-80881259D01*
X168441000Y-81058741D01*
X168406376Y-81232812D01*
X168338456Y-81396784D01*
X168239853Y-81544354D01*
X168114354Y-81669853D01*
X167966784Y-81768456D01*
X167802812Y-81836376D01*
X167653512Y-81866073D01*
X167628742Y-81871000D01*
X167451258Y-81871000D01*
X167426488Y-81866073D01*
X167277188Y-81836376D01*
X167113216Y-81768456D01*
X166965646Y-81669853D01*
X166840147Y-81544354D01*
X166741544Y-81396784D01*
X166673624Y-81232812D01*
X166639000Y-81058741D01*
X166639000Y-80881259D01*
X166673624Y-80707188D01*
X166741544Y-80543216D01*
X166840147Y-80395646D01*
X166965646Y-80270147D01*
X167113216Y-80171544D01*
X167277188Y-80103624D01*
X167426488Y-80073927D01*
X167451258Y-80069000D01*
X167628742Y-80069000D01*
X167653512Y-80073927D01*
G37*
G36*
X165113512Y-80073927D02*
G01*
X165262812Y-80103624D01*
X165426784Y-80171544D01*
X165574354Y-80270147D01*
X165699853Y-80395646D01*
X165798456Y-80543216D01*
X165866376Y-80707188D01*
X165901000Y-80881259D01*
X165901000Y-81058741D01*
X165866376Y-81232812D01*
X165798456Y-81396784D01*
X165699853Y-81544354D01*
X165574354Y-81669853D01*
X165426784Y-81768456D01*
X165262812Y-81836376D01*
X165113512Y-81866073D01*
X165088742Y-81871000D01*
X164911258Y-81871000D01*
X164886488Y-81866073D01*
X164737188Y-81836376D01*
X164573216Y-81768456D01*
X164425646Y-81669853D01*
X164300147Y-81544354D01*
X164201544Y-81396784D01*
X164133624Y-81232812D01*
X164099000Y-81058741D01*
X164099000Y-80881259D01*
X164133624Y-80707188D01*
X164201544Y-80543216D01*
X164300147Y-80395646D01*
X164425646Y-80270147D01*
X164573216Y-80171544D01*
X164737188Y-80103624D01*
X164886488Y-80073927D01*
X164911258Y-80069000D01*
X165088742Y-80069000D01*
X165113512Y-80073927D01*
G37*
G36*
X127297899Y-79976832D02*
G01*
X127382520Y-79993664D01*
X127541942Y-80059699D01*
X127685418Y-80155566D01*
X127807434Y-80277582D01*
X127903301Y-80421058D01*
X127969336Y-80580480D01*
X128003000Y-80749721D01*
X128003000Y-80922279D01*
X127969336Y-81091520D01*
X127903301Y-81250942D01*
X127807434Y-81394418D01*
X127685418Y-81516434D01*
X127541942Y-81612301D01*
X127382520Y-81678336D01*
X127350435Y-81684718D01*
X127213280Y-81712000D01*
X127040720Y-81712000D01*
X126903565Y-81684718D01*
X126871480Y-81678336D01*
X126712058Y-81612301D01*
X126568582Y-81516434D01*
X126446566Y-81394418D01*
X126350699Y-81250942D01*
X126284664Y-81091520D01*
X126251000Y-80922279D01*
X126251000Y-80749721D01*
X126284664Y-80580480D01*
X126350699Y-80421058D01*
X126446566Y-80277582D01*
X126568582Y-80155566D01*
X126712058Y-80059699D01*
X126871480Y-79993664D01*
X126956101Y-79976832D01*
X127040720Y-79960000D01*
X127213280Y-79960000D01*
X127297899Y-79976832D01*
G37*
G36*
X165113512Y-77533927D02*
G01*
X165262812Y-77563624D01*
X165426784Y-77631544D01*
X165574354Y-77730147D01*
X165699853Y-77855646D01*
X165798456Y-78003216D01*
X165866376Y-78167188D01*
X165901000Y-78341259D01*
X165901000Y-78518741D01*
X165866376Y-78692812D01*
X165798456Y-78856784D01*
X165699853Y-79004354D01*
X165574354Y-79129853D01*
X165426784Y-79228456D01*
X165262812Y-79296376D01*
X165113512Y-79326073D01*
X165088742Y-79331000D01*
X164911258Y-79331000D01*
X164886488Y-79326073D01*
X164737188Y-79296376D01*
X164573216Y-79228456D01*
X164425646Y-79129853D01*
X164300147Y-79004354D01*
X164201544Y-78856784D01*
X164133624Y-78692812D01*
X164099000Y-78518741D01*
X164099000Y-78341259D01*
X164133624Y-78167188D01*
X164201544Y-78003216D01*
X164300147Y-77855646D01*
X164425646Y-77730147D01*
X164573216Y-77631544D01*
X164737188Y-77563624D01*
X164886488Y-77533927D01*
X164911258Y-77529000D01*
X165088742Y-77529000D01*
X165113512Y-77533927D01*
G37*
G36*
X167653512Y-77533927D02*
G01*
X167802812Y-77563624D01*
X167966784Y-77631544D01*
X168114354Y-77730147D01*
X168239853Y-77855646D01*
X168338456Y-78003216D01*
X168406376Y-78167188D01*
X168441000Y-78341259D01*
X168441000Y-78518741D01*
X168406376Y-78692812D01*
X168338456Y-78856784D01*
X168239853Y-79004354D01*
X168114354Y-79129853D01*
X167966784Y-79228456D01*
X167802812Y-79296376D01*
X167653512Y-79326073D01*
X167628742Y-79331000D01*
X167451258Y-79331000D01*
X167426488Y-79326073D01*
X167277188Y-79296376D01*
X167113216Y-79228456D01*
X166965646Y-79129853D01*
X166840147Y-79004354D01*
X166741544Y-78856784D01*
X166673624Y-78692812D01*
X166639000Y-78518741D01*
X166639000Y-78341259D01*
X166673624Y-78167188D01*
X166741544Y-78003216D01*
X166840147Y-77855646D01*
X166965646Y-77730147D01*
X167113216Y-77631544D01*
X167277188Y-77563624D01*
X167426488Y-77533927D01*
X167451258Y-77529000D01*
X167628742Y-77529000D01*
X167653512Y-77533927D01*
G37*
G36*
X154512674Y-76866465D02*
G01*
X154550367Y-76877899D01*
X154585103Y-76896466D01*
X154615548Y-76921452D01*
X154640534Y-76951897D01*
X154659101Y-76986633D01*
X154670535Y-77024326D01*
X154675000Y-77069661D01*
X154675000Y-77906339D01*
X154670535Y-77951674D01*
X154659101Y-77989367D01*
X154640534Y-78024103D01*
X154615548Y-78054548D01*
X154585103Y-78079534D01*
X154550367Y-78098101D01*
X154512674Y-78109535D01*
X154467339Y-78114000D01*
X153380661Y-78114000D01*
X153335326Y-78109535D01*
X153297633Y-78098101D01*
X153262897Y-78079534D01*
X153232452Y-78054548D01*
X153207466Y-78024103D01*
X153188899Y-77989367D01*
X153177465Y-77951674D01*
X153173000Y-77906339D01*
X153173000Y-77069661D01*
X153177465Y-77024326D01*
X153188899Y-76986633D01*
X153207466Y-76951897D01*
X153232452Y-76921452D01*
X153262897Y-76896466D01*
X153297633Y-76877899D01*
X153335326Y-76866465D01*
X153380661Y-76862000D01*
X154467339Y-76862000D01*
X154512674Y-76866465D01*
G37*
G36*
X157052674Y-76857465D02*
G01*
X157090367Y-76868899D01*
X157125103Y-76887466D01*
X157155548Y-76912452D01*
X157180534Y-76942897D01*
X157199101Y-76977633D01*
X157210535Y-77015326D01*
X157215000Y-77060661D01*
X157215000Y-77897339D01*
X157210535Y-77942674D01*
X157199101Y-77980367D01*
X157180534Y-78015103D01*
X157155548Y-78045548D01*
X157125103Y-78070534D01*
X157090367Y-78089101D01*
X157052674Y-78100535D01*
X157007339Y-78105000D01*
X155920661Y-78105000D01*
X155875326Y-78100535D01*
X155837633Y-78089101D01*
X155802897Y-78070534D01*
X155772452Y-78045548D01*
X155747466Y-78015103D01*
X155728899Y-77980367D01*
X155717465Y-77942674D01*
X155713000Y-77897339D01*
X155713000Y-77060661D01*
X155717465Y-77015326D01*
X155728899Y-76977633D01*
X155747466Y-76942897D01*
X155772452Y-76912452D01*
X155802897Y-76887466D01*
X155837633Y-76868899D01*
X155875326Y-76857465D01*
X155920661Y-76853000D01*
X157007339Y-76853000D01*
X157052674Y-76857465D01*
G37*
G36*
X149895000Y-77965500D02*
G01*
X147793000Y-77965500D01*
X147793000Y-75958500D01*
X149895000Y-75958500D01*
X149895000Y-77965500D01*
G37*
G36*
X158763000Y-77755000D02*
G01*
X158361000Y-77755000D01*
X158361000Y-77253000D01*
X158763000Y-77253000D01*
X158763000Y-77755000D01*
G37*
G36*
X160663000Y-77755000D02*
G01*
X160261000Y-77755000D01*
X160261000Y-77253000D01*
X160663000Y-77253000D01*
X160663000Y-77755000D01*
G37*
G36*
X159713000Y-77755000D02*
G01*
X159311000Y-77755000D01*
X159311000Y-77253000D01*
X159713000Y-77253000D01*
X159713000Y-77755000D01*
G37*
G36*
X120148000Y-77363000D02*
G01*
X118496000Y-77363000D01*
X118496000Y-76561000D01*
X120148000Y-76561000D01*
X120148000Y-77363000D01*
G37*
G36*
X125598000Y-77363000D02*
G01*
X123946000Y-77363000D01*
X123946000Y-76561000D01*
X125598000Y-76561000D01*
X125598000Y-77363000D01*
G37*
G36*
X138063000Y-77087000D02*
G01*
X137161000Y-77087000D01*
X137161000Y-75085000D01*
X138063000Y-75085000D01*
X138063000Y-77087000D01*
G37*
G36*
X167653512Y-74993927D02*
G01*
X167802812Y-75023624D01*
X167966784Y-75091544D01*
X168114354Y-75190147D01*
X168239853Y-75315646D01*
X168338456Y-75463216D01*
X168406376Y-75627188D01*
X168441000Y-75801259D01*
X168441000Y-75978741D01*
X168406376Y-76152812D01*
X168338456Y-76316784D01*
X168239853Y-76464354D01*
X168114354Y-76589853D01*
X167966784Y-76688456D01*
X167802812Y-76756376D01*
X167653512Y-76786073D01*
X167628742Y-76791000D01*
X167451258Y-76791000D01*
X167426488Y-76786073D01*
X167277188Y-76756376D01*
X167113216Y-76688456D01*
X166965646Y-76589853D01*
X166840147Y-76464354D01*
X166741544Y-76316784D01*
X166673624Y-76152812D01*
X166639000Y-75978741D01*
X166639000Y-75801259D01*
X166673624Y-75627188D01*
X166741544Y-75463216D01*
X166840147Y-75315646D01*
X166965646Y-75190147D01*
X167113216Y-75091544D01*
X167277188Y-75023624D01*
X167426488Y-74993927D01*
X167451258Y-74989000D01*
X167628742Y-74989000D01*
X167653512Y-74993927D01*
G37*
G36*
X165113512Y-74993927D02*
G01*
X165262812Y-75023624D01*
X165426784Y-75091544D01*
X165574354Y-75190147D01*
X165699853Y-75315646D01*
X165798456Y-75463216D01*
X165866376Y-75627188D01*
X165901000Y-75801259D01*
X165901000Y-75978741D01*
X165866376Y-76152812D01*
X165798456Y-76316784D01*
X165699853Y-76464354D01*
X165574354Y-76589853D01*
X165426784Y-76688456D01*
X165262812Y-76756376D01*
X165113512Y-76786073D01*
X165088742Y-76791000D01*
X164911258Y-76791000D01*
X164886488Y-76786073D01*
X164737188Y-76756376D01*
X164573216Y-76688456D01*
X164425646Y-76589853D01*
X164300147Y-76464354D01*
X164201544Y-76316784D01*
X164133624Y-76152812D01*
X164099000Y-75978741D01*
X164099000Y-75801259D01*
X164133624Y-75627188D01*
X164201544Y-75463216D01*
X164300147Y-75315646D01*
X164425646Y-75190147D01*
X164573216Y-75091544D01*
X164737188Y-75023624D01*
X164886488Y-74993927D01*
X164911258Y-74989000D01*
X165088742Y-74989000D01*
X165113512Y-74993927D01*
G37*
G36*
X120148000Y-76093000D02*
G01*
X118496000Y-76093000D01*
X118496000Y-75291000D01*
X120148000Y-75291000D01*
X120148000Y-76093000D01*
G37*
G36*
X125598000Y-76093000D02*
G01*
X123946000Y-76093000D01*
X123946000Y-75291000D01*
X125598000Y-75291000D01*
X125598000Y-76093000D01*
G37*
G36*
X154512674Y-74816465D02*
G01*
X154550367Y-74827899D01*
X154585103Y-74846466D01*
X154615548Y-74871452D01*
X154640534Y-74901897D01*
X154659101Y-74936633D01*
X154670535Y-74974326D01*
X154675000Y-75019661D01*
X154675000Y-75856339D01*
X154670535Y-75901674D01*
X154659101Y-75939367D01*
X154640534Y-75974103D01*
X154615548Y-76004548D01*
X154585103Y-76029534D01*
X154550367Y-76048101D01*
X154512674Y-76059535D01*
X154467339Y-76064000D01*
X153380661Y-76064000D01*
X153335326Y-76059535D01*
X153297633Y-76048101D01*
X153262897Y-76029534D01*
X153232452Y-76004548D01*
X153207466Y-75974103D01*
X153188899Y-75939367D01*
X153177465Y-75901674D01*
X153173000Y-75856339D01*
X153173000Y-75019661D01*
X153177465Y-74974326D01*
X153188899Y-74936633D01*
X153207466Y-74901897D01*
X153232452Y-74871452D01*
X153262897Y-74846466D01*
X153297633Y-74827899D01*
X153335326Y-74816465D01*
X153380661Y-74812000D01*
X154467339Y-74812000D01*
X154512674Y-74816465D01*
G37*
G36*
X157052674Y-74807465D02*
G01*
X157090367Y-74818899D01*
X157125103Y-74837466D01*
X157155548Y-74862452D01*
X157180534Y-74892897D01*
X157199101Y-74927633D01*
X157210535Y-74965326D01*
X157215000Y-75010661D01*
X157215000Y-75847339D01*
X157210535Y-75892674D01*
X157199101Y-75930367D01*
X157180534Y-75965103D01*
X157155548Y-75995548D01*
X157125103Y-76020534D01*
X157090367Y-76039101D01*
X157052674Y-76050535D01*
X157007339Y-76055000D01*
X155920661Y-76055000D01*
X155875326Y-76050535D01*
X155837633Y-76039101D01*
X155802897Y-76020534D01*
X155772452Y-75995548D01*
X155747466Y-75965103D01*
X155728899Y-75930367D01*
X155717465Y-75892674D01*
X155713000Y-75847339D01*
X155713000Y-75010661D01*
X155717465Y-74965326D01*
X155728899Y-74927633D01*
X155747466Y-74892897D01*
X155772452Y-74862452D01*
X155802897Y-74837466D01*
X155837633Y-74818899D01*
X155875326Y-74807465D01*
X155920661Y-74803000D01*
X157007339Y-74803000D01*
X157052674Y-74807465D01*
G37*
G36*
X158763000Y-75655000D02*
G01*
X158361000Y-75655000D01*
X158361000Y-75153000D01*
X158763000Y-75153000D01*
X158763000Y-75655000D01*
G37*
G36*
X159713000Y-75655000D02*
G01*
X159311000Y-75655000D01*
X159311000Y-75153000D01*
X159713000Y-75153000D01*
X159713000Y-75655000D01*
G37*
G36*
X160663000Y-75655000D02*
G01*
X160261000Y-75655000D01*
X160261000Y-75153000D01*
X160663000Y-75153000D01*
X160663000Y-75655000D01*
G37*
G36*
X148986484Y-73423000D02*
G01*
X149088220Y-73433020D01*
X149277381Y-73490401D01*
X149451712Y-73583583D01*
X149604515Y-73708985D01*
X149729917Y-73861788D01*
X149823099Y-74036119D01*
X149880480Y-74225280D01*
X149899855Y-74422000D01*
X149880480Y-74618720D01*
X149823225Y-74807465D01*
X149823098Y-74807883D01*
X149820897Y-74812000D01*
X149729917Y-74982212D01*
X149604515Y-75135015D01*
X149451712Y-75260417D01*
X149277381Y-75353599D01*
X149088220Y-75410980D01*
X148989936Y-75420660D01*
X148940795Y-75425500D01*
X148747205Y-75425500D01*
X148698064Y-75420660D01*
X148599780Y-75410980D01*
X148410619Y-75353599D01*
X148236288Y-75260417D01*
X148083485Y-75135015D01*
X147958083Y-74982212D01*
X147867103Y-74812000D01*
X147864902Y-74807883D01*
X147864775Y-74807465D01*
X147807520Y-74618720D01*
X147788145Y-74422000D01*
X147807520Y-74225280D01*
X147864901Y-74036119D01*
X147958083Y-73861788D01*
X148083485Y-73708985D01*
X148236288Y-73583583D01*
X148410619Y-73490401D01*
X148599780Y-73433020D01*
X148701516Y-73423000D01*
X148747205Y-73418500D01*
X148940795Y-73418500D01*
X148986484Y-73423000D01*
G37*
G36*
X117634000Y-75273000D02*
G01*
X116432000Y-75273000D01*
X116432000Y-74121000D01*
X117634000Y-74121000D01*
X117634000Y-75273000D01*
G37*
G36*
X125598000Y-74823000D02*
G01*
X123946000Y-74823000D01*
X123946000Y-74021000D01*
X125598000Y-74021000D01*
X125598000Y-74823000D01*
G37*
G36*
X120148000Y-74823000D02*
G01*
X118496000Y-74823000D01*
X118496000Y-74021000D01*
X120148000Y-74021000D01*
X120148000Y-74823000D01*
G37*
G36*
X161109674Y-72786465D02*
G01*
X161147367Y-72797899D01*
X161182103Y-72816466D01*
X161212548Y-72841452D01*
X161237534Y-72871897D01*
X161256101Y-72906633D01*
X161267535Y-72944326D01*
X161272000Y-72989661D01*
X161272000Y-74076339D01*
X161267535Y-74121674D01*
X161256101Y-74159367D01*
X161237534Y-74194103D01*
X161212548Y-74224548D01*
X161182103Y-74249534D01*
X161147367Y-74268101D01*
X161109674Y-74279535D01*
X161064339Y-74284000D01*
X160227661Y-74284000D01*
X160182326Y-74279535D01*
X160144633Y-74268101D01*
X160109897Y-74249534D01*
X160079452Y-74224548D01*
X160054466Y-74194103D01*
X160035899Y-74159367D01*
X160024465Y-74121674D01*
X160020000Y-74076339D01*
X160020000Y-72989661D01*
X160024465Y-72944326D01*
X160035899Y-72906633D01*
X160054466Y-72871897D01*
X160079452Y-72841452D01*
X160109897Y-72816466D01*
X160144633Y-72797899D01*
X160182326Y-72786465D01*
X160227661Y-72782000D01*
X161064339Y-72782000D01*
X161109674Y-72786465D01*
G37*
G36*
X156283674Y-72786465D02*
G01*
X156321367Y-72797899D01*
X156356103Y-72816466D01*
X156386548Y-72841452D01*
X156411534Y-72871897D01*
X156430101Y-72906633D01*
X156441535Y-72944326D01*
X156446000Y-72989661D01*
X156446000Y-74076339D01*
X156441535Y-74121674D01*
X156430101Y-74159367D01*
X156411534Y-74194103D01*
X156386548Y-74224548D01*
X156356103Y-74249534D01*
X156321367Y-74268101D01*
X156283674Y-74279535D01*
X156238339Y-74284000D01*
X155401661Y-74284000D01*
X155356326Y-74279535D01*
X155318633Y-74268101D01*
X155283897Y-74249534D01*
X155253452Y-74224548D01*
X155228466Y-74194103D01*
X155209899Y-74159367D01*
X155198465Y-74121674D01*
X155194000Y-74076339D01*
X155194000Y-72989661D01*
X155198465Y-72944326D01*
X155209899Y-72906633D01*
X155228466Y-72871897D01*
X155253452Y-72841452D01*
X155283897Y-72816466D01*
X155318633Y-72797899D01*
X155356326Y-72786465D01*
X155401661Y-72782000D01*
X156238339Y-72782000D01*
X156283674Y-72786465D01*
G37*
G36*
X163159674Y-72786465D02*
G01*
X163197367Y-72797899D01*
X163232103Y-72816466D01*
X163262548Y-72841452D01*
X163287534Y-72871897D01*
X163306101Y-72906633D01*
X163317535Y-72944326D01*
X163322000Y-72989661D01*
X163322000Y-74076339D01*
X163317535Y-74121674D01*
X163306101Y-74159367D01*
X163287534Y-74194103D01*
X163262548Y-74224548D01*
X163232103Y-74249534D01*
X163197367Y-74268101D01*
X163159674Y-74279535D01*
X163114339Y-74284000D01*
X162277661Y-74284000D01*
X162232326Y-74279535D01*
X162194633Y-74268101D01*
X162159897Y-74249534D01*
X162129452Y-74224548D01*
X162104466Y-74194103D01*
X162085899Y-74159367D01*
X162074465Y-74121674D01*
X162070000Y-74076339D01*
X162070000Y-72989661D01*
X162074465Y-72944326D01*
X162085899Y-72906633D01*
X162104466Y-72871897D01*
X162129452Y-72841452D01*
X162159897Y-72816466D01*
X162194633Y-72797899D01*
X162232326Y-72786465D01*
X162277661Y-72782000D01*
X163114339Y-72782000D01*
X163159674Y-72786465D01*
G37*
G36*
X158333674Y-72786465D02*
G01*
X158371367Y-72797899D01*
X158406103Y-72816466D01*
X158436548Y-72841452D01*
X158461534Y-72871897D01*
X158480101Y-72906633D01*
X158491535Y-72944326D01*
X158496000Y-72989661D01*
X158496000Y-74076339D01*
X158491535Y-74121674D01*
X158480101Y-74159367D01*
X158461534Y-74194103D01*
X158436548Y-74224548D01*
X158406103Y-74249534D01*
X158371367Y-74268101D01*
X158333674Y-74279535D01*
X158288339Y-74284000D01*
X157451661Y-74284000D01*
X157406326Y-74279535D01*
X157368633Y-74268101D01*
X157333897Y-74249534D01*
X157303452Y-74224548D01*
X157278466Y-74194103D01*
X157259899Y-74159367D01*
X157248465Y-74121674D01*
X157244000Y-74076339D01*
X157244000Y-72989661D01*
X157248465Y-72944326D01*
X157259899Y-72906633D01*
X157278466Y-72871897D01*
X157303452Y-72841452D01*
X157333897Y-72816466D01*
X157368633Y-72797899D01*
X157406326Y-72786465D01*
X157451661Y-72782000D01*
X158288339Y-72782000D01*
X158333674Y-72786465D01*
G37*
G36*
X165113512Y-72453927D02*
G01*
X165262812Y-72483624D01*
X165426784Y-72551544D01*
X165574354Y-72650147D01*
X165699853Y-72775646D01*
X165798456Y-72923216D01*
X165866376Y-73087188D01*
X165901000Y-73261259D01*
X165901000Y-73438741D01*
X165866376Y-73612812D01*
X165798456Y-73776784D01*
X165699853Y-73924354D01*
X165574354Y-74049853D01*
X165426784Y-74148456D01*
X165262812Y-74216376D01*
X165113512Y-74246073D01*
X165088742Y-74251000D01*
X164911258Y-74251000D01*
X164886488Y-74246073D01*
X164737188Y-74216376D01*
X164573216Y-74148456D01*
X164425646Y-74049853D01*
X164300147Y-73924354D01*
X164201544Y-73776784D01*
X164133624Y-73612812D01*
X164099000Y-73438741D01*
X164099000Y-73261259D01*
X164133624Y-73087188D01*
X164201544Y-72923216D01*
X164300147Y-72775646D01*
X164425646Y-72650147D01*
X164573216Y-72551544D01*
X164737188Y-72483624D01*
X164886488Y-72453927D01*
X164911258Y-72449000D01*
X165088742Y-72449000D01*
X165113512Y-72453927D01*
G37*
G36*
X167653512Y-72453927D02*
G01*
X167802812Y-72483624D01*
X167966784Y-72551544D01*
X168114354Y-72650147D01*
X168239853Y-72775646D01*
X168338456Y-72923216D01*
X168406376Y-73087188D01*
X168441000Y-73261259D01*
X168441000Y-73438741D01*
X168406376Y-73612812D01*
X168338456Y-73776784D01*
X168239853Y-73924354D01*
X168114354Y-74049853D01*
X167966784Y-74148456D01*
X167802812Y-74216376D01*
X167653512Y-74246073D01*
X167628742Y-74251000D01*
X167451258Y-74251000D01*
X167426488Y-74246073D01*
X167277188Y-74216376D01*
X167113216Y-74148456D01*
X166965646Y-74049853D01*
X166840147Y-73924354D01*
X166741544Y-73776784D01*
X166673624Y-73612812D01*
X166639000Y-73438741D01*
X166639000Y-73261259D01*
X166673624Y-73087188D01*
X166741544Y-72923216D01*
X166840147Y-72775646D01*
X166965646Y-72650147D01*
X167113216Y-72551544D01*
X167277188Y-72483624D01*
X167426488Y-72453927D01*
X167451258Y-72449000D01*
X167628742Y-72449000D01*
X167653512Y-72453927D01*
G37*
G36*
X137113000Y-74087000D02*
G01*
X136211000Y-74087000D01*
X136211000Y-72085000D01*
X137113000Y-72085000D01*
X137113000Y-74087000D01*
G37*
G36*
X139013000Y-74087000D02*
G01*
X138111000Y-74087000D01*
X138111000Y-72085000D01*
X139013000Y-72085000D01*
X139013000Y-74087000D01*
G37*
G36*
X132033674Y-72602965D02*
G01*
X132071367Y-72614399D01*
X132106103Y-72632966D01*
X132136548Y-72657952D01*
X132161534Y-72688397D01*
X132180101Y-72723133D01*
X132191535Y-72760826D01*
X132196000Y-72806161D01*
X132196000Y-73642839D01*
X132191535Y-73688174D01*
X132180101Y-73725867D01*
X132161534Y-73760603D01*
X132136548Y-73791048D01*
X132106103Y-73816034D01*
X132071367Y-73834601D01*
X132033674Y-73846035D01*
X131988339Y-73850500D01*
X130901661Y-73850500D01*
X130856326Y-73846035D01*
X130818633Y-73834601D01*
X130783897Y-73816034D01*
X130753452Y-73791048D01*
X130728466Y-73760603D01*
X130709899Y-73725867D01*
X130698465Y-73688174D01*
X130694000Y-73642839D01*
X130694000Y-72806161D01*
X130698465Y-72760826D01*
X130709899Y-72723133D01*
X130728466Y-72688397D01*
X130753452Y-72657952D01*
X130783897Y-72632966D01*
X130818633Y-72614399D01*
X130856326Y-72602965D01*
X130901661Y-72598500D01*
X131988339Y-72598500D01*
X132033674Y-72602965D01*
G37*
G36*
X129822174Y-72341965D02*
G01*
X129859867Y-72353399D01*
X129894603Y-72371966D01*
X129925048Y-72396952D01*
X129950034Y-72427397D01*
X129968601Y-72462133D01*
X129980035Y-72499826D01*
X129984500Y-72545161D01*
X129984500Y-73631839D01*
X129980035Y-73677174D01*
X129968601Y-73714867D01*
X129950034Y-73749603D01*
X129925048Y-73780048D01*
X129894603Y-73805034D01*
X129859867Y-73823601D01*
X129822174Y-73835035D01*
X129776839Y-73839500D01*
X128940161Y-73839500D01*
X128894826Y-73835035D01*
X128857133Y-73823601D01*
X128822397Y-73805034D01*
X128791952Y-73780048D01*
X128766966Y-73749603D01*
X128748399Y-73714867D01*
X128736965Y-73677174D01*
X128732500Y-73631839D01*
X128732500Y-72545161D01*
X128736965Y-72499826D01*
X128748399Y-72462133D01*
X128766966Y-72427397D01*
X128791952Y-72396952D01*
X128822397Y-72371966D01*
X128857133Y-72353399D01*
X128894826Y-72341965D01*
X128940161Y-72337500D01*
X129776839Y-72337500D01*
X129822174Y-72341965D01*
G37*
G36*
X127772174Y-72341965D02*
G01*
X127809867Y-72353399D01*
X127844603Y-72371966D01*
X127875048Y-72396952D01*
X127900034Y-72427397D01*
X127918601Y-72462133D01*
X127930035Y-72499826D01*
X127934500Y-72545161D01*
X127934500Y-73631839D01*
X127930035Y-73677174D01*
X127918601Y-73714867D01*
X127900034Y-73749603D01*
X127875048Y-73780048D01*
X127844603Y-73805034D01*
X127809867Y-73823601D01*
X127772174Y-73835035D01*
X127726839Y-73839500D01*
X126890161Y-73839500D01*
X126844826Y-73835035D01*
X126807133Y-73823601D01*
X126772397Y-73805034D01*
X126741952Y-73780048D01*
X126716966Y-73749603D01*
X126698399Y-73714867D01*
X126686965Y-73677174D01*
X126682500Y-73631839D01*
X126682500Y-72545161D01*
X126686965Y-72499826D01*
X126698399Y-72462133D01*
X126716966Y-72427397D01*
X126741952Y-72396952D01*
X126772397Y-72371966D01*
X126807133Y-72353399D01*
X126844826Y-72341965D01*
X126890161Y-72337500D01*
X127726839Y-72337500D01*
X127772174Y-72341965D01*
G37*
G36*
X125598000Y-73553000D02*
G01*
X123946000Y-73553000D01*
X123946000Y-72751000D01*
X125598000Y-72751000D01*
X125598000Y-73553000D01*
G37*
G36*
X120148000Y-73553000D02*
G01*
X118496000Y-73553000D01*
X118496000Y-72751000D01*
X120148000Y-72751000D01*
X120148000Y-73553000D01*
G37*
G36*
X117634000Y-73423000D02*
G01*
X116432000Y-73423000D01*
X116432000Y-72271000D01*
X117634000Y-72271000D01*
X117634000Y-73423000D01*
G37*
G36*
X148989936Y-70883340D02*
G01*
X149088220Y-70893020D01*
X149277381Y-70950401D01*
X149451712Y-71043583D01*
X149604515Y-71168985D01*
X149729917Y-71321788D01*
X149823099Y-71496119D01*
X149880480Y-71685280D01*
X149899855Y-71882000D01*
X149880480Y-72078720D01*
X149823099Y-72267881D01*
X149729917Y-72442212D01*
X149604515Y-72595015D01*
X149451712Y-72720417D01*
X149394495Y-72751000D01*
X149291297Y-72806161D01*
X149277381Y-72813599D01*
X149088220Y-72870980D01*
X148989936Y-72880660D01*
X148940795Y-72885500D01*
X148747205Y-72885500D01*
X148698064Y-72880660D01*
X148599780Y-72870980D01*
X148410619Y-72813599D01*
X148396704Y-72806161D01*
X148293505Y-72751000D01*
X148236288Y-72720417D01*
X148083485Y-72595015D01*
X147958083Y-72442212D01*
X147864901Y-72267881D01*
X147807520Y-72078720D01*
X147788145Y-71882000D01*
X147807520Y-71685280D01*
X147864901Y-71496119D01*
X147958083Y-71321788D01*
X148083485Y-71168985D01*
X148236288Y-71043583D01*
X148410619Y-70950401D01*
X148599780Y-70893020D01*
X148698064Y-70883340D01*
X148747205Y-70878500D01*
X148940795Y-70878500D01*
X148989936Y-70883340D01*
G37*
G36*
X160093674Y-70627465D02*
G01*
X160131367Y-70638899D01*
X160166103Y-70657466D01*
X160196548Y-70682452D01*
X160221534Y-70712897D01*
X160240101Y-70747633D01*
X160251535Y-70785326D01*
X160256000Y-70830661D01*
X160256000Y-71917339D01*
X160251535Y-71962674D01*
X160240101Y-72000367D01*
X160221534Y-72035103D01*
X160196548Y-72065548D01*
X160166103Y-72090534D01*
X160131367Y-72109101D01*
X160093674Y-72120535D01*
X160048339Y-72125000D01*
X159211661Y-72125000D01*
X159166326Y-72120535D01*
X159128633Y-72109101D01*
X159093897Y-72090534D01*
X159063452Y-72065548D01*
X159038466Y-72035103D01*
X159019899Y-72000367D01*
X159008465Y-71962674D01*
X159004000Y-71917339D01*
X159004000Y-70830661D01*
X159008465Y-70785326D01*
X159019899Y-70747633D01*
X159038466Y-70712897D01*
X159063452Y-70682452D01*
X159093897Y-70657466D01*
X159128633Y-70638899D01*
X159166326Y-70627465D01*
X159211661Y-70623000D01*
X160048339Y-70623000D01*
X160093674Y-70627465D01*
G37*
G36*
X162143674Y-70627465D02*
G01*
X162181367Y-70638899D01*
X162216103Y-70657466D01*
X162246548Y-70682452D01*
X162271534Y-70712897D01*
X162290101Y-70747633D01*
X162301535Y-70785326D01*
X162306000Y-70830661D01*
X162306000Y-71917339D01*
X162301535Y-71962674D01*
X162290101Y-72000367D01*
X162271534Y-72035103D01*
X162246548Y-72065548D01*
X162216103Y-72090534D01*
X162181367Y-72109101D01*
X162143674Y-72120535D01*
X162098339Y-72125000D01*
X161261661Y-72125000D01*
X161216326Y-72120535D01*
X161178633Y-72109101D01*
X161143897Y-72090534D01*
X161113452Y-72065548D01*
X161088466Y-72035103D01*
X161069899Y-72000367D01*
X161058465Y-71962674D01*
X161054000Y-71917339D01*
X161054000Y-70830661D01*
X161058465Y-70785326D01*
X161069899Y-70747633D01*
X161088466Y-70712897D01*
X161113452Y-70682452D01*
X161143897Y-70657466D01*
X161178633Y-70638899D01*
X161216326Y-70627465D01*
X161261661Y-70623000D01*
X162098339Y-70623000D01*
X162143674Y-70627465D01*
G37*
G36*
X132033674Y-70552965D02*
G01*
X132071367Y-70564399D01*
X132106103Y-70582966D01*
X132136548Y-70607952D01*
X132161534Y-70638397D01*
X132180101Y-70673133D01*
X132191535Y-70710826D01*
X132196000Y-70756161D01*
X132196000Y-71592839D01*
X132191535Y-71638174D01*
X132180101Y-71675867D01*
X132161534Y-71710603D01*
X132136548Y-71741048D01*
X132106103Y-71766034D01*
X132071367Y-71784601D01*
X132033674Y-71796035D01*
X131988339Y-71800500D01*
X130901661Y-71800500D01*
X130856326Y-71796035D01*
X130818633Y-71784601D01*
X130783897Y-71766034D01*
X130753452Y-71741048D01*
X130728466Y-71710603D01*
X130709899Y-71675867D01*
X130698465Y-71638174D01*
X130694000Y-71592839D01*
X130694000Y-70756161D01*
X130698465Y-70710826D01*
X130709899Y-70673133D01*
X130728466Y-70638397D01*
X130753452Y-70607952D01*
X130783897Y-70582966D01*
X130818633Y-70564399D01*
X130856326Y-70552965D01*
X130901661Y-70548500D01*
X131988339Y-70548500D01*
X132033674Y-70552965D01*
G37*
G36*
X127772174Y-70246465D02*
G01*
X127809867Y-70257899D01*
X127844603Y-70276466D01*
X127875048Y-70301452D01*
X127900034Y-70331897D01*
X127918601Y-70366633D01*
X127930035Y-70404326D01*
X127934500Y-70449661D01*
X127934500Y-71536339D01*
X127930035Y-71581674D01*
X127918601Y-71619367D01*
X127900034Y-71654103D01*
X127875048Y-71684548D01*
X127844603Y-71709534D01*
X127809867Y-71728101D01*
X127772174Y-71739535D01*
X127726839Y-71744000D01*
X126890161Y-71744000D01*
X126844826Y-71739535D01*
X126807133Y-71728101D01*
X126772397Y-71709534D01*
X126741952Y-71684548D01*
X126716966Y-71654103D01*
X126698399Y-71619367D01*
X126686965Y-71581674D01*
X126682500Y-71536339D01*
X126682500Y-70449661D01*
X126686965Y-70404326D01*
X126698399Y-70366633D01*
X126716966Y-70331897D01*
X126741952Y-70301452D01*
X126772397Y-70276466D01*
X126807133Y-70257899D01*
X126844826Y-70246465D01*
X126890161Y-70242000D01*
X127726839Y-70242000D01*
X127772174Y-70246465D01*
G37*
G36*
X129822174Y-70246465D02*
G01*
X129859867Y-70257899D01*
X129894603Y-70276466D01*
X129925048Y-70301452D01*
X129950034Y-70331897D01*
X129968601Y-70366633D01*
X129980035Y-70404326D01*
X129984500Y-70449661D01*
X129984500Y-71536339D01*
X129980035Y-71581674D01*
X129968601Y-71619367D01*
X129950034Y-71654103D01*
X129925048Y-71684548D01*
X129894603Y-71709534D01*
X129859867Y-71728101D01*
X129822174Y-71739535D01*
X129776839Y-71744000D01*
X128940161Y-71744000D01*
X128894826Y-71739535D01*
X128857133Y-71728101D01*
X128822397Y-71709534D01*
X128791952Y-71684548D01*
X128766966Y-71654103D01*
X128748399Y-71619367D01*
X128736965Y-71581674D01*
X128732500Y-71536339D01*
X128732500Y-70449661D01*
X128736965Y-70404326D01*
X128748399Y-70366633D01*
X128766966Y-70331897D01*
X128791952Y-70301452D01*
X128822397Y-70276466D01*
X128857133Y-70257899D01*
X128894826Y-70246465D01*
X128940161Y-70242000D01*
X129776839Y-70242000D01*
X129822174Y-70246465D01*
G37*
G36*
X165113512Y-69913927D02*
G01*
X165262812Y-69943624D01*
X165426784Y-70011544D01*
X165574354Y-70110147D01*
X165699853Y-70235646D01*
X165798456Y-70383216D01*
X165866376Y-70547188D01*
X165901000Y-70721259D01*
X165901000Y-70898741D01*
X165866376Y-71072812D01*
X165798456Y-71236784D01*
X165699853Y-71384354D01*
X165574354Y-71509853D01*
X165426784Y-71608456D01*
X165262812Y-71676376D01*
X165113512Y-71706073D01*
X165088742Y-71711000D01*
X164911258Y-71711000D01*
X164886488Y-71706073D01*
X164737188Y-71676376D01*
X164573216Y-71608456D01*
X164425646Y-71509853D01*
X164300147Y-71384354D01*
X164201544Y-71236784D01*
X164133624Y-71072812D01*
X164099000Y-70898741D01*
X164099000Y-70721259D01*
X164133624Y-70547188D01*
X164201544Y-70383216D01*
X164300147Y-70235646D01*
X164425646Y-70110147D01*
X164573216Y-70011544D01*
X164737188Y-69943624D01*
X164886488Y-69913927D01*
X164911258Y-69909000D01*
X165088742Y-69909000D01*
X165113512Y-69913927D01*
G37*
G36*
X167653512Y-69913927D02*
G01*
X167802812Y-69943624D01*
X167966784Y-70011544D01*
X168114354Y-70110147D01*
X168239853Y-70235646D01*
X168338456Y-70383216D01*
X168406376Y-70547188D01*
X168441000Y-70721259D01*
X168441000Y-70898741D01*
X168406376Y-71072812D01*
X168338456Y-71236784D01*
X168239853Y-71384354D01*
X168114354Y-71509853D01*
X167966784Y-71608456D01*
X167802812Y-71676376D01*
X167653512Y-71706073D01*
X167628742Y-71711000D01*
X167451258Y-71711000D01*
X167426488Y-71706073D01*
X167277188Y-71676376D01*
X167113216Y-71608456D01*
X166965646Y-71509853D01*
X166840147Y-71384354D01*
X166741544Y-71236784D01*
X166673624Y-71072812D01*
X166639000Y-70898741D01*
X166639000Y-70721259D01*
X166673624Y-70547188D01*
X166741544Y-70383216D01*
X166840147Y-70235646D01*
X166965646Y-70110147D01*
X167113216Y-70011544D01*
X167277188Y-69943624D01*
X167426488Y-69913927D01*
X167451258Y-69909000D01*
X167628742Y-69909000D01*
X167653512Y-69913927D01*
G37*
G36*
X125021674Y-70025465D02*
G01*
X125059367Y-70036899D01*
X125094103Y-70055466D01*
X125124548Y-70080452D01*
X125149534Y-70110897D01*
X125168101Y-70145633D01*
X125179535Y-70183326D01*
X125184000Y-70228661D01*
X125184000Y-71315339D01*
X125179535Y-71360674D01*
X125168101Y-71398367D01*
X125149534Y-71433103D01*
X125124548Y-71463548D01*
X125094103Y-71488534D01*
X125059367Y-71507101D01*
X125021674Y-71518535D01*
X124976339Y-71523000D01*
X124139661Y-71523000D01*
X124094326Y-71518535D01*
X124056633Y-71507101D01*
X124021897Y-71488534D01*
X123991452Y-71463548D01*
X123966466Y-71433103D01*
X123947899Y-71398367D01*
X123936465Y-71360674D01*
X123932000Y-71315339D01*
X123932000Y-70228661D01*
X123936465Y-70183326D01*
X123947899Y-70145633D01*
X123966466Y-70110897D01*
X123991452Y-70080452D01*
X124021897Y-70055466D01*
X124056633Y-70036899D01*
X124094326Y-70025465D01*
X124139661Y-70021000D01*
X124976339Y-70021000D01*
X125021674Y-70025465D01*
G37*
G36*
X122971674Y-70025465D02*
G01*
X123009367Y-70036899D01*
X123044103Y-70055466D01*
X123074548Y-70080452D01*
X123099534Y-70110897D01*
X123118101Y-70145633D01*
X123129535Y-70183326D01*
X123134000Y-70228661D01*
X123134000Y-71315339D01*
X123129535Y-71360674D01*
X123118101Y-71398367D01*
X123099534Y-71433103D01*
X123074548Y-71463548D01*
X123044103Y-71488534D01*
X123009367Y-71507101D01*
X122971674Y-71518535D01*
X122926339Y-71523000D01*
X122089661Y-71523000D01*
X122044326Y-71518535D01*
X122006633Y-71507101D01*
X121971897Y-71488534D01*
X121941452Y-71463548D01*
X121916466Y-71433103D01*
X121897899Y-71398367D01*
X121886465Y-71360674D01*
X121882000Y-71315339D01*
X121882000Y-70228661D01*
X121886465Y-70183326D01*
X121897899Y-70145633D01*
X121916466Y-70110897D01*
X121941452Y-70080452D01*
X121971897Y-70055466D01*
X122006633Y-70036899D01*
X122044326Y-70025465D01*
X122089661Y-70021000D01*
X122926339Y-70021000D01*
X122971674Y-70025465D01*
G37*
G36*
X139100674Y-69394465D02*
G01*
X139138367Y-69405899D01*
X139173103Y-69424466D01*
X139203548Y-69449452D01*
X139228534Y-69479897D01*
X139247101Y-69514633D01*
X139258535Y-69552326D01*
X139263000Y-69597661D01*
X139263000Y-70684339D01*
X139258535Y-70729674D01*
X139247101Y-70767367D01*
X139228534Y-70802103D01*
X139203548Y-70832548D01*
X139173103Y-70857534D01*
X139138367Y-70876101D01*
X139100674Y-70887535D01*
X139055339Y-70892000D01*
X138218661Y-70892000D01*
X138173326Y-70887535D01*
X138135633Y-70876101D01*
X138100897Y-70857534D01*
X138070452Y-70832548D01*
X138045466Y-70802103D01*
X138026899Y-70767367D01*
X138015465Y-70729674D01*
X138011000Y-70684339D01*
X138011000Y-69597661D01*
X138015465Y-69552326D01*
X138026899Y-69514633D01*
X138045466Y-69479897D01*
X138070452Y-69449452D01*
X138100897Y-69424466D01*
X138135633Y-69405899D01*
X138173326Y-69394465D01*
X138218661Y-69390000D01*
X139055339Y-69390000D01*
X139100674Y-69394465D01*
G37*
G36*
X137050674Y-69394465D02*
G01*
X137088367Y-69405899D01*
X137123103Y-69424466D01*
X137153548Y-69449452D01*
X137178534Y-69479897D01*
X137197101Y-69514633D01*
X137208535Y-69552326D01*
X137213000Y-69597661D01*
X137213000Y-70684339D01*
X137208535Y-70729674D01*
X137197101Y-70767367D01*
X137178534Y-70802103D01*
X137153548Y-70832548D01*
X137123103Y-70857534D01*
X137088367Y-70876101D01*
X137050674Y-70887535D01*
X137005339Y-70892000D01*
X136168661Y-70892000D01*
X136123326Y-70887535D01*
X136085633Y-70876101D01*
X136050897Y-70857534D01*
X136020452Y-70832548D01*
X135995466Y-70802103D01*
X135976899Y-70767367D01*
X135965465Y-70729674D01*
X135961000Y-70684339D01*
X135961000Y-69597661D01*
X135965465Y-69552326D01*
X135976899Y-69514633D01*
X135995466Y-69479897D01*
X136020452Y-69449452D01*
X136050897Y-69424466D01*
X136085633Y-69405899D01*
X136123326Y-69394465D01*
X136168661Y-69390000D01*
X137005339Y-69390000D01*
X137050674Y-69394465D01*
G37*
G36*
X156428674Y-68595465D02*
G01*
X156466367Y-68606899D01*
X156501103Y-68625466D01*
X156531548Y-68650452D01*
X156556534Y-68680897D01*
X156575101Y-68715633D01*
X156586535Y-68753326D01*
X156591000Y-68798661D01*
X156591000Y-69885339D01*
X156586535Y-69930674D01*
X156575101Y-69968367D01*
X156556534Y-70003103D01*
X156531548Y-70033548D01*
X156501103Y-70058534D01*
X156466367Y-70077101D01*
X156428674Y-70088535D01*
X156383339Y-70093000D01*
X155546661Y-70093000D01*
X155501326Y-70088535D01*
X155463633Y-70077101D01*
X155428897Y-70058534D01*
X155398452Y-70033548D01*
X155373466Y-70003103D01*
X155354899Y-69968367D01*
X155343465Y-69930674D01*
X155339000Y-69885339D01*
X155339000Y-68798661D01*
X155343465Y-68753326D01*
X155354899Y-68715633D01*
X155373466Y-68680897D01*
X155398452Y-68650452D01*
X155428897Y-68625466D01*
X155463633Y-68606899D01*
X155501326Y-68595465D01*
X155546661Y-68591000D01*
X156383339Y-68591000D01*
X156428674Y-68595465D01*
G37*
G36*
X154378674Y-68595465D02*
G01*
X154416367Y-68606899D01*
X154451103Y-68625466D01*
X154481548Y-68650452D01*
X154506534Y-68680897D01*
X154525101Y-68715633D01*
X154536535Y-68753326D01*
X154541000Y-68798661D01*
X154541000Y-69885339D01*
X154536535Y-69930674D01*
X154525101Y-69968367D01*
X154506534Y-70003103D01*
X154481548Y-70033548D01*
X154451103Y-70058534D01*
X154416367Y-70077101D01*
X154378674Y-70088535D01*
X154333339Y-70093000D01*
X153496661Y-70093000D01*
X153451326Y-70088535D01*
X153413633Y-70077101D01*
X153378897Y-70058534D01*
X153348452Y-70033548D01*
X153323466Y-70003103D01*
X153304899Y-69968367D01*
X153293465Y-69930674D01*
X153289000Y-69885339D01*
X153289000Y-68798661D01*
X153293465Y-68753326D01*
X153304899Y-68715633D01*
X153323466Y-68680897D01*
X153348452Y-68650452D01*
X153378897Y-68625466D01*
X153413633Y-68606899D01*
X153451326Y-68595465D01*
X153496661Y-68591000D01*
X154333339Y-68591000D01*
X154378674Y-68595465D01*
G37*
G36*
X167653512Y-67373927D02*
G01*
X167802812Y-67403624D01*
X167966784Y-67471544D01*
X168114354Y-67570147D01*
X168239853Y-67695646D01*
X168338456Y-67843216D01*
X168406376Y-68007188D01*
X168441000Y-68181259D01*
X168441000Y-68358741D01*
X168406376Y-68532812D01*
X168338456Y-68696784D01*
X168239853Y-68844354D01*
X168114354Y-68969853D01*
X167966784Y-69068456D01*
X167802812Y-69136376D01*
X167653512Y-69166073D01*
X167628742Y-69171000D01*
X167451258Y-69171000D01*
X167426488Y-69166073D01*
X167277188Y-69136376D01*
X167113216Y-69068456D01*
X166965646Y-68969853D01*
X166840147Y-68844354D01*
X166741544Y-68696784D01*
X166673624Y-68532812D01*
X166639000Y-68358741D01*
X166639000Y-68181259D01*
X166673624Y-68007188D01*
X166741544Y-67843216D01*
X166840147Y-67695646D01*
X166965646Y-67570147D01*
X167113216Y-67471544D01*
X167277188Y-67403624D01*
X167426488Y-67373927D01*
X167451258Y-67369000D01*
X167628742Y-67369000D01*
X167653512Y-67373927D01*
G37*
G36*
X165901000Y-69171000D02*
G01*
X164099000Y-69171000D01*
X164099000Y-67369000D01*
X165901000Y-67369000D01*
X165901000Y-69171000D01*
G37*
G36*
X140090601Y-66597397D02*
G01*
X140129305Y-66605096D01*
X140161340Y-66618365D01*
X140238680Y-66650400D01*
X140337115Y-66716173D01*
X140420827Y-66799885D01*
X140486600Y-66898320D01*
X140531904Y-67007696D01*
X140555000Y-67123805D01*
X140555000Y-67242195D01*
X140531904Y-67358304D01*
X140486600Y-67467680D01*
X140420827Y-67566115D01*
X140337115Y-67649827D01*
X140238680Y-67715600D01*
X140161340Y-67747635D01*
X140129305Y-67760904D01*
X140090601Y-67768603D01*
X140013195Y-67784000D01*
X139894805Y-67784000D01*
X139817399Y-67768603D01*
X139778695Y-67760904D01*
X139746660Y-67747635D01*
X139669320Y-67715600D01*
X139570885Y-67649827D01*
X139487173Y-67566115D01*
X139421400Y-67467680D01*
X139376096Y-67358304D01*
X139353000Y-67242195D01*
X139353000Y-67123805D01*
X139376096Y-67007696D01*
X139421400Y-66898320D01*
X139487173Y-66799885D01*
X139570885Y-66716173D01*
X139669320Y-66650400D01*
X139746660Y-66618365D01*
X139778695Y-66605096D01*
X139817399Y-66597397D01*
X139894805Y-66582000D01*
X140013195Y-66582000D01*
X140090601Y-66597397D01*
G37*
G36*
X142630601Y-66597397D02*
G01*
X142669305Y-66605096D01*
X142701340Y-66618365D01*
X142778680Y-66650400D01*
X142877115Y-66716173D01*
X142960827Y-66799885D01*
X143026600Y-66898320D01*
X143071904Y-67007696D01*
X143095000Y-67123805D01*
X143095000Y-67242195D01*
X143071904Y-67358304D01*
X143026600Y-67467680D01*
X142960827Y-67566115D01*
X142877115Y-67649827D01*
X142778680Y-67715600D01*
X142701340Y-67747635D01*
X142669305Y-67760904D01*
X142630601Y-67768603D01*
X142553195Y-67784000D01*
X142434805Y-67784000D01*
X142357399Y-67768603D01*
X142318695Y-67760904D01*
X142286660Y-67747635D01*
X142209320Y-67715600D01*
X142110885Y-67649827D01*
X142027173Y-67566115D01*
X141961400Y-67467680D01*
X141916096Y-67358304D01*
X141893000Y-67242195D01*
X141893000Y-67123805D01*
X141916096Y-67007696D01*
X141961400Y-66898320D01*
X142027173Y-66799885D01*
X142110885Y-66716173D01*
X142209320Y-66650400D01*
X142286660Y-66618365D01*
X142318695Y-66605096D01*
X142357399Y-66597397D01*
X142434805Y-66582000D01*
X142553195Y-66582000D01*
X142630601Y-66597397D01*
G37*
G36*
X148173674Y-66182465D02*
G01*
X148211367Y-66193899D01*
X148246103Y-66212466D01*
X148276548Y-66237452D01*
X148301534Y-66267897D01*
X148320101Y-66302633D01*
X148331535Y-66340326D01*
X148336000Y-66385661D01*
X148336000Y-67472339D01*
X148331535Y-67517674D01*
X148320101Y-67555367D01*
X148301534Y-67590103D01*
X148276548Y-67620548D01*
X148246103Y-67645534D01*
X148211367Y-67664101D01*
X148173674Y-67675535D01*
X148128339Y-67680000D01*
X147291661Y-67680000D01*
X147246326Y-67675535D01*
X147208633Y-67664101D01*
X147173897Y-67645534D01*
X147143452Y-67620548D01*
X147118466Y-67590103D01*
X147099899Y-67555367D01*
X147088465Y-67517674D01*
X147084000Y-67472339D01*
X147084000Y-66385661D01*
X147088465Y-66340326D01*
X147099899Y-66302633D01*
X147118466Y-66267897D01*
X147143452Y-66237452D01*
X147173897Y-66212466D01*
X147208633Y-66193899D01*
X147246326Y-66182465D01*
X147291661Y-66178000D01*
X148128339Y-66178000D01*
X148173674Y-66182465D01*
G37*
G36*
X146123674Y-66182465D02*
G01*
X146161367Y-66193899D01*
X146196103Y-66212466D01*
X146226548Y-66237452D01*
X146251534Y-66267897D01*
X146270101Y-66302633D01*
X146281535Y-66340326D01*
X146286000Y-66385661D01*
X146286000Y-67472339D01*
X146281535Y-67517674D01*
X146270101Y-67555367D01*
X146251534Y-67590103D01*
X146226548Y-67620548D01*
X146196103Y-67645534D01*
X146161367Y-67664101D01*
X146123674Y-67675535D01*
X146078339Y-67680000D01*
X145241661Y-67680000D01*
X145196326Y-67675535D01*
X145158633Y-67664101D01*
X145123897Y-67645534D01*
X145093452Y-67620548D01*
X145068466Y-67590103D01*
X145049899Y-67555367D01*
X145038465Y-67517674D01*
X145034000Y-67472339D01*
X145034000Y-66385661D01*
X145038465Y-66340326D01*
X145049899Y-66302633D01*
X145068466Y-66267897D01*
X145093452Y-66237452D01*
X145123897Y-66212466D01*
X145158633Y-66193899D01*
X145196326Y-66182465D01*
X145241661Y-66178000D01*
X146078339Y-66178000D01*
X146123674Y-66182465D01*
G37*
G36*
X159867022Y-64660590D02*
G01*
X159967681Y-64691125D01*
X160018012Y-64706392D01*
X160082019Y-64740605D01*
X160157164Y-64780771D01*
X160279133Y-64880867D01*
X160359449Y-64978733D01*
X160379229Y-65002835D01*
X160453608Y-65141987D01*
X160463389Y-65174230D01*
X160499410Y-65292977D01*
X160511000Y-65410655D01*
X160511000Y-66489345D01*
X160499410Y-66607023D01*
X160486251Y-66650401D01*
X160453608Y-66758013D01*
X160379229Y-66897165D01*
X160279133Y-67019133D01*
X160157165Y-67119229D01*
X160018013Y-67193608D01*
X159967682Y-67208875D01*
X159867023Y-67239410D01*
X159710000Y-67254875D01*
X159552978Y-67239410D01*
X159452319Y-67208875D01*
X159401988Y-67193608D01*
X159262836Y-67119229D01*
X159140868Y-67019133D01*
X159040772Y-66897165D01*
X158966393Y-66758013D01*
X158933750Y-66650401D01*
X158920591Y-66607023D01*
X158909001Y-66489345D01*
X158909000Y-65410656D01*
X158911156Y-65388770D01*
X158919494Y-65304103D01*
X158920590Y-65292978D01*
X158966392Y-65141989D01*
X158966392Y-65141988D01*
X159040771Y-65002836D01*
X159060552Y-64978733D01*
X159140867Y-64880867D01*
X159262835Y-64780771D01*
X159337980Y-64740605D01*
X159401987Y-64706392D01*
X159452318Y-64691125D01*
X159552977Y-64660590D01*
X159710000Y-64645125D01*
X159867022Y-64660590D01*
G37*
G36*
X157327022Y-64660590D02*
G01*
X157427681Y-64691125D01*
X157478012Y-64706392D01*
X157542019Y-64740605D01*
X157617164Y-64780771D01*
X157739133Y-64880867D01*
X157819449Y-64978733D01*
X157839229Y-65002835D01*
X157913608Y-65141987D01*
X157923389Y-65174230D01*
X157959410Y-65292977D01*
X157971000Y-65410655D01*
X157971000Y-66489345D01*
X157959410Y-66607023D01*
X157946251Y-66650401D01*
X157913608Y-66758013D01*
X157839229Y-66897165D01*
X157739133Y-67019133D01*
X157617165Y-67119229D01*
X157478013Y-67193608D01*
X157427682Y-67208875D01*
X157327023Y-67239410D01*
X157170000Y-67254875D01*
X157012978Y-67239410D01*
X156912319Y-67208875D01*
X156861988Y-67193608D01*
X156722836Y-67119229D01*
X156600868Y-67019133D01*
X156500772Y-66897165D01*
X156426393Y-66758013D01*
X156393750Y-66650401D01*
X156380591Y-66607023D01*
X156369001Y-66489345D01*
X156369000Y-65410656D01*
X156371156Y-65388770D01*
X156379494Y-65304103D01*
X156380590Y-65292978D01*
X156426392Y-65141989D01*
X156426392Y-65141988D01*
X156500771Y-65002836D01*
X156520552Y-64978733D01*
X156600867Y-64880867D01*
X156722835Y-64780771D01*
X156797980Y-64740605D01*
X156861987Y-64706392D01*
X156912318Y-64691125D01*
X157012977Y-64660590D01*
X157170000Y-64645125D01*
X157327022Y-64660590D01*
G37*
G36*
X155431000Y-67251000D02*
G01*
X153829000Y-67251000D01*
X153829000Y-64649000D01*
X155431000Y-64649000D01*
X155431000Y-67251000D01*
G37*
G36*
X164926674Y-65173465D02*
G01*
X164964367Y-65184899D01*
X164999103Y-65203466D01*
X165029548Y-65228452D01*
X165054534Y-65258897D01*
X165073101Y-65293633D01*
X165084535Y-65331326D01*
X165089000Y-65376661D01*
X165089000Y-66213339D01*
X165084535Y-66258674D01*
X165073101Y-66296367D01*
X165054534Y-66331103D01*
X165029548Y-66361548D01*
X164999103Y-66386534D01*
X164964367Y-66405101D01*
X164926674Y-66416535D01*
X164881339Y-66421000D01*
X163794661Y-66421000D01*
X163749326Y-66416535D01*
X163711633Y-66405101D01*
X163676897Y-66386534D01*
X163646452Y-66361548D01*
X163621466Y-66331103D01*
X163602899Y-66296367D01*
X163591465Y-66258674D01*
X163587000Y-66213339D01*
X163587000Y-65376661D01*
X163591465Y-65331326D01*
X163602899Y-65293633D01*
X163621466Y-65258897D01*
X163646452Y-65228452D01*
X163676897Y-65203466D01*
X163711633Y-65184899D01*
X163749326Y-65173465D01*
X163794661Y-65169000D01*
X164881339Y-65169000D01*
X164926674Y-65173465D01*
G37*
G36*
X126627000Y-64457007D02*
G01*
X126629402Y-64481393D01*
X126636515Y-64504842D01*
X126648066Y-64526453D01*
X126663611Y-64545395D01*
X126682553Y-64560940D01*
X126704164Y-64572491D01*
X126727613Y-64579604D01*
X126751999Y-64582006D01*
X126776385Y-64579604D01*
X126799834Y-64572491D01*
X126821445Y-64560940D01*
X126840387Y-64545395D01*
X126855932Y-64526453D01*
X126867483Y-64504842D01*
X126874596Y-64481393D01*
X126903410Y-64336534D01*
X126909232Y-64307266D01*
X126995997Y-64097797D01*
X127121960Y-63909280D01*
X127282280Y-63748960D01*
X127470797Y-63622997D01*
X127680266Y-63536232D01*
X127791451Y-63514116D01*
X127902635Y-63492000D01*
X128129365Y-63492000D01*
X128240549Y-63514116D01*
X128351734Y-63536232D01*
X128561203Y-63622997D01*
X128749720Y-63748960D01*
X128910040Y-63909280D01*
X129036003Y-64097797D01*
X129122768Y-64307266D01*
X129128590Y-64336534D01*
X129163403Y-64511552D01*
X129170516Y-64535001D01*
X129182067Y-64556612D01*
X129197612Y-64575554D01*
X129216554Y-64591099D01*
X129238165Y-64602650D01*
X129261614Y-64609763D01*
X129286000Y-64612165D01*
X129310386Y-64609763D01*
X129333835Y-64602650D01*
X129355446Y-64591099D01*
X129374388Y-64575554D01*
X129389933Y-64556612D01*
X129401484Y-64535001D01*
X129408597Y-64511552D01*
X129443410Y-64336534D01*
X129449232Y-64307266D01*
X129535997Y-64097797D01*
X129661960Y-63909280D01*
X129822280Y-63748960D01*
X130010797Y-63622997D01*
X130220266Y-63536232D01*
X130331451Y-63514116D01*
X130442635Y-63492000D01*
X130669365Y-63492000D01*
X130780549Y-63514116D01*
X130891734Y-63536232D01*
X131101203Y-63622997D01*
X131289720Y-63748960D01*
X131450040Y-63909280D01*
X131576003Y-64097797D01*
X131662768Y-64307266D01*
X131668590Y-64336534D01*
X131703403Y-64511552D01*
X131710516Y-64535001D01*
X131722067Y-64556612D01*
X131737612Y-64575554D01*
X131756554Y-64591099D01*
X131778165Y-64602650D01*
X131801614Y-64609763D01*
X131826000Y-64612165D01*
X131850386Y-64609763D01*
X131873835Y-64602650D01*
X131895446Y-64591099D01*
X131914388Y-64575554D01*
X131929933Y-64556612D01*
X131941484Y-64535001D01*
X131948597Y-64511552D01*
X131983410Y-64336534D01*
X131989232Y-64307266D01*
X132075997Y-64097797D01*
X132201960Y-63909280D01*
X132362280Y-63748960D01*
X132550797Y-63622997D01*
X132760266Y-63536232D01*
X132871451Y-63514116D01*
X132982635Y-63492000D01*
X133209365Y-63492000D01*
X133320549Y-63514116D01*
X133431734Y-63536232D01*
X133641203Y-63622997D01*
X133829720Y-63748960D01*
X133990040Y-63909280D01*
X134116003Y-64097797D01*
X134202768Y-64307266D01*
X134208590Y-64336534D01*
X134243403Y-64511552D01*
X134250516Y-64535001D01*
X134262067Y-64556612D01*
X134277612Y-64575554D01*
X134296554Y-64591099D01*
X134318165Y-64602650D01*
X134341614Y-64609763D01*
X134366000Y-64612165D01*
X134390386Y-64609763D01*
X134413835Y-64602650D01*
X134435446Y-64591099D01*
X134454388Y-64575554D01*
X134469933Y-64556612D01*
X134481484Y-64535001D01*
X134488597Y-64511552D01*
X134523410Y-64336534D01*
X134529232Y-64307266D01*
X134615997Y-64097797D01*
X134741960Y-63909280D01*
X134902280Y-63748960D01*
X135090797Y-63622997D01*
X135300266Y-63536232D01*
X135411451Y-63514116D01*
X135522635Y-63492000D01*
X135749365Y-63492000D01*
X135860549Y-63514116D01*
X135971734Y-63536232D01*
X136181203Y-63622997D01*
X136369720Y-63748960D01*
X136530040Y-63909280D01*
X136656003Y-64097797D01*
X136742768Y-64307266D01*
X136787000Y-64529636D01*
X136787000Y-64756364D01*
X136742768Y-64978734D01*
X136683497Y-65121827D01*
X136675146Y-65141989D01*
X136656003Y-65188203D01*
X136530040Y-65376720D01*
X136369720Y-65537040D01*
X136181203Y-65663003D01*
X135971734Y-65749768D01*
X135860549Y-65771884D01*
X135749365Y-65794000D01*
X135522635Y-65794000D01*
X135411451Y-65771884D01*
X135300266Y-65749768D01*
X135090797Y-65663003D01*
X134902280Y-65537040D01*
X134741960Y-65376720D01*
X134615997Y-65188203D01*
X134596855Y-65141989D01*
X134588503Y-65121827D01*
X134529232Y-64978734D01*
X134488597Y-64774448D01*
X134481484Y-64750999D01*
X134469933Y-64729388D01*
X134454388Y-64710446D01*
X134435446Y-64694901D01*
X134413835Y-64683350D01*
X134390386Y-64676237D01*
X134366000Y-64673835D01*
X134341614Y-64676237D01*
X134318165Y-64683350D01*
X134296554Y-64694901D01*
X134277612Y-64710446D01*
X134262067Y-64729388D01*
X134250516Y-64750999D01*
X134243403Y-64774448D01*
X134202768Y-64978734D01*
X134143497Y-65121827D01*
X134135146Y-65141989D01*
X134116003Y-65188203D01*
X133990040Y-65376720D01*
X133829720Y-65537040D01*
X133641203Y-65663003D01*
X133431734Y-65749768D01*
X133320549Y-65771884D01*
X133209365Y-65794000D01*
X132982635Y-65794000D01*
X132871451Y-65771884D01*
X132760266Y-65749768D01*
X132550797Y-65663003D01*
X132362280Y-65537040D01*
X132201960Y-65376720D01*
X132075997Y-65188203D01*
X132056855Y-65141989D01*
X132048503Y-65121827D01*
X131989232Y-64978734D01*
X131948597Y-64774448D01*
X131941484Y-64750999D01*
X131929933Y-64729388D01*
X131914388Y-64710446D01*
X131895446Y-64694901D01*
X131873835Y-64683350D01*
X131850386Y-64676237D01*
X131826000Y-64673835D01*
X131801614Y-64676237D01*
X131778165Y-64683350D01*
X131756554Y-64694901D01*
X131737612Y-64710446D01*
X131722067Y-64729388D01*
X131710516Y-64750999D01*
X131703403Y-64774448D01*
X131662768Y-64978734D01*
X131603497Y-65121827D01*
X131595146Y-65141989D01*
X131576003Y-65188203D01*
X131450040Y-65376720D01*
X131289720Y-65537040D01*
X131101203Y-65663003D01*
X130891734Y-65749768D01*
X130780549Y-65771884D01*
X130669365Y-65794000D01*
X130442635Y-65794000D01*
X130331451Y-65771884D01*
X130220266Y-65749768D01*
X130010797Y-65663003D01*
X129822280Y-65537040D01*
X129661960Y-65376720D01*
X129535997Y-65188203D01*
X129516855Y-65141989D01*
X129508503Y-65121827D01*
X129449232Y-64978734D01*
X129408597Y-64774448D01*
X129401484Y-64750999D01*
X129389933Y-64729388D01*
X129374388Y-64710446D01*
X129355446Y-64694901D01*
X129333835Y-64683350D01*
X129310386Y-64676237D01*
X129286000Y-64673835D01*
X129261614Y-64676237D01*
X129238165Y-64683350D01*
X129216554Y-64694901D01*
X129197612Y-64710446D01*
X129182067Y-64729388D01*
X129170516Y-64750999D01*
X129163403Y-64774448D01*
X129122768Y-64978734D01*
X129063497Y-65121827D01*
X129055146Y-65141989D01*
X129036003Y-65188203D01*
X128910040Y-65376720D01*
X128749720Y-65537040D01*
X128561203Y-65663003D01*
X128351734Y-65749768D01*
X128240549Y-65771884D01*
X128129365Y-65794000D01*
X127902635Y-65794000D01*
X127791451Y-65771884D01*
X127680266Y-65749768D01*
X127470797Y-65663003D01*
X127282280Y-65537040D01*
X127121960Y-65376720D01*
X126995997Y-65188203D01*
X126976855Y-65141989D01*
X126968503Y-65121827D01*
X126909232Y-64978734D01*
X126874596Y-64804607D01*
X126867483Y-64781158D01*
X126855932Y-64759547D01*
X126840387Y-64740605D01*
X126821445Y-64725060D01*
X126799834Y-64713509D01*
X126776385Y-64706396D01*
X126751999Y-64703994D01*
X126727613Y-64706396D01*
X126704164Y-64713509D01*
X126682553Y-64725060D01*
X126663611Y-64740605D01*
X126648066Y-64759547D01*
X126636515Y-64781158D01*
X126629402Y-64804607D01*
X126627000Y-64828993D01*
X126627000Y-65794000D01*
X124325000Y-65794000D01*
X124325000Y-63492000D01*
X126627000Y-63492000D01*
X126627000Y-64457007D01*
G37*
G36*
X141105000Y-64457007D02*
G01*
X141107402Y-64481393D01*
X141114515Y-64504842D01*
X141126066Y-64526453D01*
X141141611Y-64545395D01*
X141160553Y-64560940D01*
X141182164Y-64572491D01*
X141205613Y-64579604D01*
X141229999Y-64582006D01*
X141254385Y-64579604D01*
X141277834Y-64572491D01*
X141299445Y-64560940D01*
X141318387Y-64545395D01*
X141333932Y-64526453D01*
X141345483Y-64504842D01*
X141352596Y-64481393D01*
X141381410Y-64336534D01*
X141387232Y-64307266D01*
X141473997Y-64097797D01*
X141599960Y-63909280D01*
X141760280Y-63748960D01*
X141948797Y-63622997D01*
X142158266Y-63536232D01*
X142269451Y-63514116D01*
X142380635Y-63492000D01*
X142607365Y-63492000D01*
X142718549Y-63514116D01*
X142829734Y-63536232D01*
X143039203Y-63622997D01*
X143227720Y-63748960D01*
X143388040Y-63909280D01*
X143514003Y-64097797D01*
X143600768Y-64307266D01*
X143645000Y-64529636D01*
X143645000Y-64756364D01*
X143600768Y-64978734D01*
X143541497Y-65121827D01*
X143533146Y-65141989D01*
X143514003Y-65188203D01*
X143388040Y-65376720D01*
X143227720Y-65537040D01*
X143039203Y-65663003D01*
X142829734Y-65749768D01*
X142718549Y-65771884D01*
X142607365Y-65794000D01*
X142380635Y-65794000D01*
X142269451Y-65771884D01*
X142158266Y-65749768D01*
X141948797Y-65663003D01*
X141760280Y-65537040D01*
X141599960Y-65376720D01*
X141473997Y-65188203D01*
X141454855Y-65141989D01*
X141446503Y-65121827D01*
X141387232Y-64978734D01*
X141352596Y-64804607D01*
X141345483Y-64781158D01*
X141333932Y-64759547D01*
X141318387Y-64740605D01*
X141299445Y-64725060D01*
X141277834Y-64713509D01*
X141254385Y-64706396D01*
X141229999Y-64703994D01*
X141205613Y-64706396D01*
X141182164Y-64713509D01*
X141160553Y-64725060D01*
X141141611Y-64740605D01*
X141126066Y-64759547D01*
X141114515Y-64781158D01*
X141107402Y-64804607D01*
X141105000Y-64828993D01*
X141105000Y-65794000D01*
X138803000Y-65794000D01*
X138803000Y-63492000D01*
X141105000Y-63492000D01*
X141105000Y-64457007D01*
G37*
G36*
X148173674Y-63896465D02*
G01*
X148211367Y-63907899D01*
X148246103Y-63926466D01*
X148276548Y-63951452D01*
X148301534Y-63981897D01*
X148320101Y-64016633D01*
X148331535Y-64054326D01*
X148336000Y-64099661D01*
X148336000Y-65186339D01*
X148331535Y-65231674D01*
X148320101Y-65269367D01*
X148301534Y-65304103D01*
X148276548Y-65334548D01*
X148246103Y-65359534D01*
X148211367Y-65378101D01*
X148173674Y-65389535D01*
X148128339Y-65394000D01*
X147291661Y-65394000D01*
X147246326Y-65389535D01*
X147208633Y-65378101D01*
X147173897Y-65359534D01*
X147143452Y-65334548D01*
X147118466Y-65304103D01*
X147099899Y-65269367D01*
X147088465Y-65231674D01*
X147084000Y-65186339D01*
X147084000Y-64099661D01*
X147088465Y-64054326D01*
X147099899Y-64016633D01*
X147118466Y-63981897D01*
X147143452Y-63951452D01*
X147173897Y-63926466D01*
X147208633Y-63907899D01*
X147246326Y-63896465D01*
X147291661Y-63892000D01*
X148128339Y-63892000D01*
X148173674Y-63896465D01*
G37*
G36*
X146123674Y-63896465D02*
G01*
X146161367Y-63907899D01*
X146196103Y-63926466D01*
X146226548Y-63951452D01*
X146251534Y-63981897D01*
X146270101Y-64016633D01*
X146281535Y-64054326D01*
X146286000Y-64099661D01*
X146286000Y-65186339D01*
X146281535Y-65231674D01*
X146270101Y-65269367D01*
X146251534Y-65304103D01*
X146226548Y-65334548D01*
X146196103Y-65359534D01*
X146161367Y-65378101D01*
X146123674Y-65389535D01*
X146078339Y-65394000D01*
X145241661Y-65394000D01*
X145196326Y-65389535D01*
X145158633Y-65378101D01*
X145123897Y-65359534D01*
X145093452Y-65334548D01*
X145068466Y-65304103D01*
X145049899Y-65269367D01*
X145038465Y-65231674D01*
X145034000Y-65186339D01*
X145034000Y-64099661D01*
X145038465Y-64054326D01*
X145049899Y-64016633D01*
X145068466Y-63981897D01*
X145093452Y-63951452D01*
X145123897Y-63926466D01*
X145158633Y-63907899D01*
X145196326Y-63896465D01*
X145241661Y-63892000D01*
X146078339Y-63892000D01*
X146123674Y-63896465D01*
G37*
G36*
X164926674Y-63123465D02*
G01*
X164964367Y-63134899D01*
X164999103Y-63153466D01*
X165029548Y-63178452D01*
X165054534Y-63208897D01*
X165073101Y-63243633D01*
X165084535Y-63281326D01*
X165089000Y-63326661D01*
X165089000Y-64163339D01*
X165084535Y-64208674D01*
X165073101Y-64246367D01*
X165054534Y-64281103D01*
X165029548Y-64311548D01*
X164999103Y-64336534D01*
X164964367Y-64355101D01*
X164926674Y-64366535D01*
X164881339Y-64371000D01*
X163794661Y-64371000D01*
X163749326Y-64366535D01*
X163711633Y-64355101D01*
X163676897Y-64336534D01*
X163646452Y-64311548D01*
X163621466Y-64281103D01*
X163602899Y-64246367D01*
X163591465Y-64208674D01*
X163587000Y-64163339D01*
X163587000Y-63326661D01*
X163591465Y-63281326D01*
X163602899Y-63243633D01*
X163621466Y-63208897D01*
X163646452Y-63178452D01*
X163676897Y-63153466D01*
X163711633Y-63134899D01*
X163749326Y-63123465D01*
X163794661Y-63119000D01*
X164881339Y-63119000D01*
X164926674Y-63123465D01*
G37*
M02*
