M48
INCH,TZ
T1C0.0157
T2C0.0236
T3C0.0276
T4C0.0295
T5C0.0315
T6C0.0335
T7C0.0354
T8C0.0394
T9C0.0433
T10C0.1083
%
G90
G05
T1
X47592Y-39592
X48438Y-29241
X51750Y-29500
X52461Y-44398
X52854Y-43906
X53642Y-43906
X54035Y-44398
X54921Y-39280
X55413Y-39280
X55610Y-42528
X55610Y-43020
X56988Y-41445
X57874Y-40362
X60827Y-36425
X61175Y-33329
X61319Y-45382
X62205Y-36425
X62205Y-45382
X62402Y-37803
X62650Y-33100
X62894Y-34654
X62894Y-37213
X63346Y-31740
X63780Y-34358
X66437Y-48630
T3
X50050Y-34975
T4
X57500Y-33400
X58000Y-33400
X58500Y-33400
T5
X49114Y-46957
X49114Y-47957
X52114Y-46957
X52114Y-47957
T6
X46737Y-39253
X46737Y-41221
T7
X56087Y-35441
X57087Y-35441
X47482Y-43076
X47482Y-44076
X45612Y-43076
X45612Y-44076
T8
X58760Y-35441
X58760Y-36441
X58760Y-37441
X59760Y-35441
X59760Y-36441
X59760Y-37441
X64961Y-26878
X64961Y-27878
X64961Y-28878
X64961Y-29878
X64961Y-30878
X64961Y-31878
X64961Y-32878
X64961Y-33878
X64961Y-34878
X64961Y-35878
X64961Y-36878
X64961Y-37878
X64961Y-38878
X64961Y-39878
X64961Y-40878
X64961Y-41878
X64961Y-42878
X64961Y-43878
X64961Y-44878
X64961Y-45878
X65961Y-26878
X65961Y-27878
X65961Y-28878
X65961Y-29878
X65961Y-30878
X65961Y-31878
X65961Y-32878
X65961Y-33878
X65961Y-34878
X65961Y-35878
X65961Y-36878
X65961Y-37878
X65961Y-38878
X65961Y-39878
X65961Y-40878
X65961Y-41878
X65961Y-42878
X65961Y-43878
X65961Y-44878
X65961Y-45878
X60878Y-25965
X61878Y-25965
X62878Y-25965
T9
X58600Y-28300
X58600Y-29300
X58600Y-30300
X49400Y-25450
X50400Y-25450
X51400Y-25450
X52400Y-25450
X53400Y-25450
X58661Y-46661
X58661Y-48433
X61220Y-46661
X61220Y-48433
X55100Y-25450
X56100Y-25450
X50050Y-31825
X54626Y-46661
X54626Y-48433
X57185Y-46661
X57185Y-48433
T10
X46161Y-25106
X46161Y-47646
T2
G00X45536Y-38859
M15
G01X45812Y-38859
M16
G05
G00X45812Y-41615
M15
G01X45536Y-41615
M16
G05
T0
M30
