M48
; DRILL file {KiCad (5.1.5)-3} date 10/12/2020 1:56:30 PM
; FORMAT={-:-/ absolute / inch / decimal}
; #@! TF.CreationDate,2020-10-12T13:56:30-06:00
; #@! TF.GenerationSoftware,Kicad,Pcbnew,(5.1.5)-3
FMAT,2
INCH
T1C0.0157
T2C0.0236
T3C0.0276
T4C0.0295
T5C0.0315
T6C0.0335
T7C0.0354
T8C0.0394
T9C0.0433
T10C0.1083
T11C0.0433
%
G90
G05
T1
X4.7592Y-3.9592
X4.8438Y-2.9241
X5.175Y-2.95
X5.2461Y-4.4398
X5.2854Y-4.3906
X5.3642Y-4.3906
X5.4035Y-4.4398
X5.4921Y-3.928
X5.5413Y-3.928
X5.561Y-4.2528
X5.561Y-4.302
X5.6988Y-4.1445
X5.7874Y-4.0362
X6.0827Y-3.6425
X6.1175Y-3.3329
X6.1319Y-4.5382
X6.2205Y-3.6425
X6.2205Y-4.5382
X6.2402Y-3.7803
X6.265Y-3.31
X6.2894Y-3.4654
X6.2894Y-3.7213
X6.3346Y-3.174
X6.378Y-3.4358
X6.6437Y-4.863
T3
X5.005Y-3.4975
T4
X5.75Y-3.34
X5.8Y-3.34
X5.85Y-3.34
T5
X4.9114Y-4.6957
X4.9114Y-4.7957
X5.2114Y-4.6957
X5.2114Y-4.7957
T6
X4.6737Y-3.9253
X4.6737Y-4.1221
T7
X4.7482Y-4.3076
X4.7482Y-4.4076
X4.5612Y-4.3076
X4.5612Y-4.4076
X5.6087Y-3.5441
X5.7087Y-3.5441
T8
X6.4961Y-2.6878
X6.4961Y-2.7878
X6.4961Y-2.8878
X6.4961Y-2.9878
X6.4961Y-3.0878
X6.4961Y-3.1878
X6.4961Y-3.2878
X6.4961Y-3.3878
X6.4961Y-3.4878
X6.4961Y-3.5878
X6.4961Y-3.6878
X6.4961Y-3.7878
X6.4961Y-3.8878
X6.4961Y-3.9878
X6.4961Y-4.0878
X6.4961Y-4.1878
X6.4961Y-4.2878
X6.4961Y-4.3878
X6.4961Y-4.4878
X6.4961Y-4.5878
X6.5961Y-2.6878
X6.5961Y-2.7878
X6.5961Y-2.8878
X6.5961Y-2.9878
X6.5961Y-3.0878
X6.5961Y-3.1878
X6.5961Y-3.2878
X6.5961Y-3.3878
X6.5961Y-3.4878
X6.5961Y-3.5878
X6.5961Y-3.6878
X6.5961Y-3.7878
X6.5961Y-3.8878
X6.5961Y-3.9878
X6.5961Y-4.0878
X6.5961Y-4.1878
X6.5961Y-4.2878
X6.5961Y-4.3878
X6.5961Y-4.4878
X6.5961Y-4.5878
X6.0878Y-2.5965
X6.1878Y-2.5965
X6.2878Y-2.5965
X5.876Y-3.5441
X5.876Y-3.6441
X5.876Y-3.7441
X5.976Y-3.5441
X5.976Y-3.6441
X5.976Y-3.7441
T9
X5.8661Y-4.6661
X5.8661Y-4.8433
X6.122Y-4.6661
X6.122Y-4.8433
X5.4626Y-4.6661
X5.4626Y-4.8433
X5.7185Y-4.6661
X5.7185Y-4.8433
X5.86Y-2.83
X5.86Y-2.93
X5.86Y-3.03
X4.94Y-2.545
X5.04Y-2.545
X5.14Y-2.545
X5.24Y-2.545
X5.34Y-2.545
X5.51Y-2.545
X5.61Y-2.545
X5.005Y-3.1825
T10
X4.6161Y-2.5106
X4.6161Y-4.7646
T11
X5.51Y-2.645
X5.61Y-2.645
T2
G00X4.5536Y-3.8859
M15
G01X4.5812Y-3.8859
M16
G05
G00X4.5812Y-4.1615
M15
G01X4.5536Y-4.1615
M16
G05
T0
M30
